<?xml version="1.0" encoding="utf-8" standalone="no"?>
<!DOCTYPE svg PUBLIC "-//W3C//DTD SVG 1.1//EN"
  "http://www.w3.org/Graphics/SVG/1.1/DTD/svg11.dtd">
<svg xmlns:xlink="http://www.w3.org/1999/xlink" width="695.655pt" height="754.765144pt" viewBox="0 0 695.655 754.765144" xmlns="http://www.w3.org/2000/svg" version="1.1">
 <metadata>
  <rdf:RDF xmlns:dc="http://purl.org/dc/elements/1.1/" xmlns:cc="http://creativecommons.org/ns#" xmlns:rdf="http://www.w3.org/1999/02/22-rdf-syntax-ns#">
   <cc:Work>
    <dc:type rdf:resource="http://purl.org/dc/dcmitype/StillImage"/>
    <dc:date>2024-05-12T22:21:03.137082</dc:date>
    <dc:format>image/svg+xml</dc:format>
    <dc:creator>
     <cc:Agent>
      <dc:title>Matplotlib v3.8.4, https://matplotlib.org/</dc:title>
     </cc:Agent>
    </dc:creator>
   </cc:Work>
  </rdf:RDF>
 </metadata>
 <defs>
  <style type="text/css">*{stroke-linejoin: round; stroke-linecap: butt}</style>
 </defs>
 <g id="figure_1">
  <g id="patch_1">
   <path d="M 0 754.765144 
L 695.655 754.765144 
L 695.655 0 
L 0 0 
z
" style="fill: #ffffff"/>
  </g>
  <g id="axes_1">
   <g id="patch_2">
    <path d="M 72.615 697.675612 
L 688.455 697.675612 
L 688.455 66.895613 
L 72.615 66.895613 
z
" style="fill: #eaeaf2"/>
   </g>
   <g id="matplotlib.axis_1">
    <g id="xtick_1">
     <g id="line2d_1">
      <path d="M 171.283848 697.675612 
L 171.283848 66.895613 
" clip-path="url(#p693c2742de)" style="fill: none; stroke: #ffffff; stroke-width: 1.5; stroke-linecap: round"/>
     </g>
     <g id="text_1">
      <!-- 10 -->
      <g style="fill: #262626" transform="translate(160.785723 722.713034) scale(0.165 -0.165)">
       <defs>
        <path id="DejaVuSans-31" d="M 794 531 
L 1825 531 
L 1825 4091 
L 703 3866 
L 703 4441 
L 1819 4666 
L 2450 4666 
L 2450 531 
L 3481 531 
L 3481 0 
L 794 0 
L 794 531 
z
" transform="scale(0.015625)"/>
        <path id="DejaVuSans-30" d="M 2034 4250 
Q 1547 4250 1301 3770 
Q 1056 3291 1056 2328 
Q 1056 1369 1301 889 
Q 1547 409 2034 409 
Q 2525 409 2770 889 
Q 3016 1369 3016 2328 
Q 3016 3291 2770 3770 
Q 2525 4250 2034 4250 
z
M 2034 4750 
Q 2819 4750 3233 4129 
Q 3647 3509 3647 2328 
Q 3647 1150 3233 529 
Q 2819 -91 2034 -91 
Q 1250 -91 836 529 
Q 422 1150 422 2328 
Q 422 3509 836 4129 
Q 1250 4750 2034 4750 
z
" transform="scale(0.015625)"/>
       </defs>
       <use xlink:href="#DejaVuSans-31"/>
       <use xlink:href="#DejaVuSans-30" x="63.623047"/>
      </g>
     </g>
    </g>
    <g id="xtick_2">
     <g id="line2d_2">
      <path d="M 306.906413 697.675612 
L 306.906413 66.895613 
" clip-path="url(#p693c2742de)" style="fill: none; stroke: #ffffff; stroke-width: 1.5; stroke-linecap: round"/>
     </g>
     <g id="text_2">
      <!-- 20 -->
      <g style="fill: #262626" transform="translate(296.408288 722.713034) scale(0.165 -0.165)">
       <defs>
        <path id="DejaVuSans-32" d="M 1228 531 
L 3431 531 
L 3431 0 
L 469 0 
L 469 531 
Q 828 903 1448 1529 
Q 2069 2156 2228 2338 
Q 2531 2678 2651 2914 
Q 2772 3150 2772 3378 
Q 2772 3750 2511 3984 
Q 2250 4219 1831 4219 
Q 1534 4219 1204 4116 
Q 875 4013 500 3803 
L 500 4441 
Q 881 4594 1212 4672 
Q 1544 4750 1819 4750 
Q 2544 4750 2975 4387 
Q 3406 4025 3406 3419 
Q 3406 3131 3298 2873 
Q 3191 2616 2906 2266 
Q 2828 2175 2409 1742 
Q 1991 1309 1228 531 
z
" transform="scale(0.015625)"/>
       </defs>
       <use xlink:href="#DejaVuSans-32"/>
       <use xlink:href="#DejaVuSans-30" x="63.623047"/>
      </g>
     </g>
    </g>
    <g id="xtick_3">
     <g id="line2d_3">
      <path d="M 442.528978 697.675612 
L 442.528978 66.895613 
" clip-path="url(#p693c2742de)" style="fill: none; stroke: #ffffff; stroke-width: 1.5; stroke-linecap: round"/>
     </g>
     <g id="text_3">
      <!-- 30 -->
      <g style="fill: #262626" transform="translate(432.030853 722.713034) scale(0.165 -0.165)">
       <defs>
        <path id="DejaVuSans-33" d="M 2597 2516 
Q 3050 2419 3304 2112 
Q 3559 1806 3559 1356 
Q 3559 666 3084 287 
Q 2609 -91 1734 -91 
Q 1441 -91 1130 -33 
Q 819 25 488 141 
L 488 750 
Q 750 597 1062 519 
Q 1375 441 1716 441 
Q 2309 441 2620 675 
Q 2931 909 2931 1356 
Q 2931 1769 2642 2001 
Q 2353 2234 1838 2234 
L 1294 2234 
L 1294 2753 
L 1863 2753 
Q 2328 2753 2575 2939 
Q 2822 3125 2822 3475 
Q 2822 3834 2567 4026 
Q 2313 4219 1838 4219 
Q 1578 4219 1281 4162 
Q 984 4106 628 3988 
L 628 4550 
Q 988 4650 1302 4700 
Q 1616 4750 1894 4750 
Q 2613 4750 3031 4423 
Q 3450 4097 3450 3541 
Q 3450 3153 3228 2886 
Q 3006 2619 2597 2516 
z
" transform="scale(0.015625)"/>
       </defs>
       <use xlink:href="#DejaVuSans-33"/>
       <use xlink:href="#DejaVuSans-30" x="63.623047"/>
      </g>
     </g>
    </g>
    <g id="xtick_4">
     <g id="line2d_4">
      <path d="M 578.151543 697.675612 
L 578.151543 66.895613 
" clip-path="url(#p693c2742de)" style="fill: none; stroke: #ffffff; stroke-width: 1.5; stroke-linecap: round"/>
     </g>
     <g id="text_4">
      <!-- 40 -->
      <g style="fill: #262626" transform="translate(567.653418 722.713034) scale(0.165 -0.165)">
       <defs>
        <path id="DejaVuSans-34" d="M 2419 4116 
L 825 1625 
L 2419 1625 
L 2419 4116 
z
M 2253 4666 
L 3047 4666 
L 3047 1625 
L 3713 1625 
L 3713 1100 
L 3047 1100 
L 3047 0 
L 2419 0 
L 2419 1100 
L 313 1100 
L 313 1709 
L 2253 4666 
z
" transform="scale(0.015625)"/>
       </defs>
       <use xlink:href="#DejaVuSans-34"/>
       <use xlink:href="#DejaVuSans-30" x="63.623047"/>
      </g>
     </g>
    </g>
    <g id="text_5">
     <!-- Average speed reward -->
     <g style="fill: #262626" transform="translate(279.497344 743.821706) scale(0.18 -0.18)">
      <defs>
       <path id="DejaVuSans-41" d="M 2188 4044 
L 1331 1722 
L 3047 1722 
L 2188 4044 
z
M 1831 4666 
L 2547 4666 
L 4325 0 
L 3669 0 
L 3244 1197 
L 1141 1197 
L 716 0 
L 50 0 
L 1831 4666 
z
" transform="scale(0.015625)"/>
       <path id="DejaVuSans-76" d="M 191 3500 
L 800 3500 
L 1894 563 
L 2988 3500 
L 3597 3500 
L 2284 0 
L 1503 0 
L 191 3500 
z
" transform="scale(0.015625)"/>
       <path id="DejaVuSans-65" d="M 3597 1894 
L 3597 1613 
L 953 1613 
Q 991 1019 1311 708 
Q 1631 397 2203 397 
Q 2534 397 2845 478 
Q 3156 559 3463 722 
L 3463 178 
Q 3153 47 2828 -22 
Q 2503 -91 2169 -91 
Q 1331 -91 842 396 
Q 353 884 353 1716 
Q 353 2575 817 3079 
Q 1281 3584 2069 3584 
Q 2775 3584 3186 3129 
Q 3597 2675 3597 1894 
z
M 3022 2063 
Q 3016 2534 2758 2815 
Q 2500 3097 2075 3097 
Q 1594 3097 1305 2825 
Q 1016 2553 972 2059 
L 3022 2063 
z
" transform="scale(0.015625)"/>
       <path id="DejaVuSans-72" d="M 2631 2963 
Q 2534 3019 2420 3045 
Q 2306 3072 2169 3072 
Q 1681 3072 1420 2755 
Q 1159 2438 1159 1844 
L 1159 0 
L 581 0 
L 581 3500 
L 1159 3500 
L 1159 2956 
Q 1341 3275 1631 3429 
Q 1922 3584 2338 3584 
Q 2397 3584 2469 3576 
Q 2541 3569 2628 3553 
L 2631 2963 
z
" transform="scale(0.015625)"/>
       <path id="DejaVuSans-61" d="M 2194 1759 
Q 1497 1759 1228 1600 
Q 959 1441 959 1056 
Q 959 750 1161 570 
Q 1363 391 1709 391 
Q 2188 391 2477 730 
Q 2766 1069 2766 1631 
L 2766 1759 
L 2194 1759 
z
M 3341 1997 
L 3341 0 
L 2766 0 
L 2766 531 
Q 2569 213 2275 61 
Q 1981 -91 1556 -91 
Q 1019 -91 701 211 
Q 384 513 384 1019 
Q 384 1609 779 1909 
Q 1175 2209 1959 2209 
L 2766 2209 
L 2766 2266 
Q 2766 2663 2505 2880 
Q 2244 3097 1772 3097 
Q 1472 3097 1187 3025 
Q 903 2953 641 2809 
L 641 3341 
Q 956 3463 1253 3523 
Q 1550 3584 1831 3584 
Q 2591 3584 2966 3190 
Q 3341 2797 3341 1997 
z
" transform="scale(0.015625)"/>
       <path id="DejaVuSans-67" d="M 2906 1791 
Q 2906 2416 2648 2759 
Q 2391 3103 1925 3103 
Q 1463 3103 1205 2759 
Q 947 2416 947 1791 
Q 947 1169 1205 825 
Q 1463 481 1925 481 
Q 2391 481 2648 825 
Q 2906 1169 2906 1791 
z
M 3481 434 
Q 3481 -459 3084 -895 
Q 2688 -1331 1869 -1331 
Q 1566 -1331 1297 -1286 
Q 1028 -1241 775 -1147 
L 775 -588 
Q 1028 -725 1275 -790 
Q 1522 -856 1778 -856 
Q 2344 -856 2625 -561 
Q 2906 -266 2906 331 
L 2906 616 
Q 2728 306 2450 153 
Q 2172 0 1784 0 
Q 1141 0 747 490 
Q 353 981 353 1791 
Q 353 2603 747 3093 
Q 1141 3584 1784 3584 
Q 2172 3584 2450 3431 
Q 2728 3278 2906 2969 
L 2906 3500 
L 3481 3500 
L 3481 434 
z
" transform="scale(0.015625)"/>
       <path id="DejaVuSans-20" transform="scale(0.015625)"/>
       <path id="DejaVuSans-73" d="M 2834 3397 
L 2834 2853 
Q 2591 2978 2328 3040 
Q 2066 3103 1784 3103 
Q 1356 3103 1142 2972 
Q 928 2841 928 2578 
Q 928 2378 1081 2264 
Q 1234 2150 1697 2047 
L 1894 2003 
Q 2506 1872 2764 1633 
Q 3022 1394 3022 966 
Q 3022 478 2636 193 
Q 2250 -91 1575 -91 
Q 1294 -91 989 -36 
Q 684 19 347 128 
L 347 722 
Q 666 556 975 473 
Q 1284 391 1588 391 
Q 1994 391 2212 530 
Q 2431 669 2431 922 
Q 2431 1156 2273 1281 
Q 2116 1406 1581 1522 
L 1381 1569 
Q 847 1681 609 1914 
Q 372 2147 372 2553 
Q 372 3047 722 3315 
Q 1072 3584 1716 3584 
Q 2034 3584 2315 3537 
Q 2597 3491 2834 3397 
z
" transform="scale(0.015625)"/>
       <path id="DejaVuSans-70" d="M 1159 525 
L 1159 -1331 
L 581 -1331 
L 581 3500 
L 1159 3500 
L 1159 2969 
Q 1341 3281 1617 3432 
Q 1894 3584 2278 3584 
Q 2916 3584 3314 3078 
Q 3713 2572 3713 1747 
Q 3713 922 3314 415 
Q 2916 -91 2278 -91 
Q 1894 -91 1617 61 
Q 1341 213 1159 525 
z
M 3116 1747 
Q 3116 2381 2855 2742 
Q 2594 3103 2138 3103 
Q 1681 3103 1420 2742 
Q 1159 2381 1159 1747 
Q 1159 1113 1420 752 
Q 1681 391 2138 391 
Q 2594 391 2855 752 
Q 3116 1113 3116 1747 
z
" transform="scale(0.015625)"/>
       <path id="DejaVuSans-64" d="M 2906 2969 
L 2906 4863 
L 3481 4863 
L 3481 0 
L 2906 0 
L 2906 525 
Q 2725 213 2448 61 
Q 2172 -91 1784 -91 
Q 1150 -91 751 415 
Q 353 922 353 1747 
Q 353 2572 751 3078 
Q 1150 3584 1784 3584 
Q 2172 3584 2448 3432 
Q 2725 3281 2906 2969 
z
M 947 1747 
Q 947 1113 1208 752 
Q 1469 391 1925 391 
Q 2381 391 2643 752 
Q 2906 1113 2906 1747 
Q 2906 2381 2643 2742 
Q 2381 3103 1925 3103 
Q 1469 3103 1208 2742 
Q 947 2381 947 1747 
z
" transform="scale(0.015625)"/>
       <path id="DejaVuSans-77" d="M 269 3500 
L 844 3500 
L 1563 769 
L 2278 3500 
L 2956 3500 
L 3675 769 
L 4391 3500 
L 4966 3500 
L 4050 0 
L 3372 0 
L 2619 2869 
L 1863 0 
L 1184 0 
L 269 3500 
z
" transform="scale(0.015625)"/>
      </defs>
      <use xlink:href="#DejaVuSans-41"/>
      <use xlink:href="#DejaVuSans-76" x="62.533203"/>
      <use xlink:href="#DejaVuSans-65" x="121.712891"/>
      <use xlink:href="#DejaVuSans-72" x="183.236328"/>
      <use xlink:href="#DejaVuSans-61" x="224.349609"/>
      <use xlink:href="#DejaVuSans-67" x="285.628906"/>
      <use xlink:href="#DejaVuSans-65" x="349.105469"/>
      <use xlink:href="#DejaVuSans-20" x="410.628906"/>
      <use xlink:href="#DejaVuSans-73" x="442.416016"/>
      <use xlink:href="#DejaVuSans-70" x="494.515625"/>
      <use xlink:href="#DejaVuSans-65" x="557.992188"/>
      <use xlink:href="#DejaVuSans-65" x="619.515625"/>
      <use xlink:href="#DejaVuSans-64" x="681.039062"/>
      <use xlink:href="#DejaVuSans-20" x="744.515625"/>
      <use xlink:href="#DejaVuSans-72" x="776.302734"/>
      <use xlink:href="#DejaVuSans-65" x="815.166016"/>
      <use xlink:href="#DejaVuSans-77" x="876.689453"/>
      <use xlink:href="#DejaVuSans-61" x="958.476562"/>
      <use xlink:href="#DejaVuSans-72" x="1019.755859"/>
      <use xlink:href="#DejaVuSans-64" x="1059.119141"/>
     </g>
    </g>
   </g>
   <g id="matplotlib.axis_2">
    <g id="ytick_1">
     <g id="line2d_5">
      <path d="M 72.615 690.101775 
L 688.455 690.101775 
" clip-path="url(#p693c2742de)" style="fill: none; stroke: #ffffff; stroke-width: 1.5; stroke-linecap: round"/>
     </g>
     <g id="text_6">
      <!-- 125 -->
      <g style="fill: #262626" transform="translate(28.620625 696.370485) scale(0.165 -0.165)">
       <defs>
        <path id="DejaVuSans-35" d="M 691 4666 
L 3169 4666 
L 3169 4134 
L 1269 4134 
L 1269 2991 
Q 1406 3038 1543 3061 
Q 1681 3084 1819 3084 
Q 2600 3084 3056 2656 
Q 3513 2228 3513 1497 
Q 3513 744 3044 326 
Q 2575 -91 1722 -91 
Q 1428 -91 1123 -41 
Q 819 9 494 109 
L 494 744 
Q 775 591 1075 516 
Q 1375 441 1709 441 
Q 2250 441 2565 725 
Q 2881 1009 2881 1497 
Q 2881 1984 2565 2268 
Q 2250 2553 1709 2553 
Q 1456 2553 1204 2497 
Q 953 2441 691 2322 
L 691 4666 
z
" transform="scale(0.015625)"/>
       </defs>
       <use xlink:href="#DejaVuSans-31"/>
       <use xlink:href="#DejaVuSans-32" x="63.623047"/>
       <use xlink:href="#DejaVuSans-35" x="127.246094"/>
      </g>
     </g>
    </g>
    <g id="ytick_2">
     <g id="line2d_6">
      <path d="M 72.615 571.184302 
L 688.455 571.184302 
" clip-path="url(#p693c2742de)" style="fill: none; stroke: #ffffff; stroke-width: 1.5; stroke-linecap: round"/>
     </g>
     <g id="text_7">
      <!-- 130 -->
      <g style="fill: #262626" transform="translate(28.620625 577.453013) scale(0.165 -0.165)">
       <use xlink:href="#DejaVuSans-31"/>
       <use xlink:href="#DejaVuSans-33" x="63.623047"/>
       <use xlink:href="#DejaVuSans-30" x="127.246094"/>
      </g>
     </g>
    </g>
    <g id="ytick_3">
     <g id="line2d_7">
      <path d="M 72.615 452.26683 
L 688.455 452.26683 
" clip-path="url(#p693c2742de)" style="fill: none; stroke: #ffffff; stroke-width: 1.5; stroke-linecap: round"/>
     </g>
     <g id="text_8">
      <!-- 135 -->
      <g style="fill: #262626" transform="translate(28.620625 458.535541) scale(0.165 -0.165)">
       <use xlink:href="#DejaVuSans-31"/>
       <use xlink:href="#DejaVuSans-33" x="63.623047"/>
       <use xlink:href="#DejaVuSans-35" x="127.246094"/>
      </g>
     </g>
    </g>
    <g id="ytick_4">
     <g id="line2d_8">
      <path d="M 72.615 333.349358 
L 688.455 333.349358 
" clip-path="url(#p693c2742de)" style="fill: none; stroke: #ffffff; stroke-width: 1.5; stroke-linecap: round"/>
     </g>
     <g id="text_9">
      <!-- 140 -->
      <g style="fill: #262626" transform="translate(28.620625 339.618069) scale(0.165 -0.165)">
       <use xlink:href="#DejaVuSans-31"/>
       <use xlink:href="#DejaVuSans-34" x="63.623047"/>
       <use xlink:href="#DejaVuSans-30" x="127.246094"/>
      </g>
     </g>
    </g>
    <g id="ytick_5">
     <g id="line2d_9">
      <path d="M 72.615 214.431886 
L 688.455 214.431886 
" clip-path="url(#p693c2742de)" style="fill: none; stroke: #ffffff; stroke-width: 1.5; stroke-linecap: round"/>
     </g>
     <g id="text_10">
      <!-- 145 -->
      <g style="fill: #262626" transform="translate(28.620625 220.700597) scale(0.165 -0.165)">
       <use xlink:href="#DejaVuSans-31"/>
       <use xlink:href="#DejaVuSans-34" x="63.623047"/>
       <use xlink:href="#DejaVuSans-35" x="127.246094"/>
      </g>
     </g>
    </g>
    <g id="ytick_6">
     <g id="line2d_10">
      <path d="M 72.615 95.514414 
L 688.455 95.514414 
" clip-path="url(#p693c2742de)" style="fill: none; stroke: #ffffff; stroke-width: 1.5; stroke-linecap: round"/>
     </g>
     <g id="text_11">
      <!-- 150 -->
      <g style="fill: #262626" transform="translate(28.620625 101.783125) scale(0.165 -0.165)">
       <use xlink:href="#DejaVuSans-31"/>
       <use xlink:href="#DejaVuSans-35" x="63.623047"/>
       <use xlink:href="#DejaVuSans-30" x="127.246094"/>
      </g>
     </g>
    </g>
    <g id="text_12">
     <!-- Average energy efficiency -->
     <g style="fill: #262626" transform="translate(20.877188 499.668113) rotate(-90) scale(0.18 -0.18)">
      <defs>
       <path id="DejaVuSans-6e" d="M 3513 2113 
L 3513 0 
L 2938 0 
L 2938 2094 
Q 2938 2591 2744 2837 
Q 2550 3084 2163 3084 
Q 1697 3084 1428 2787 
Q 1159 2491 1159 1978 
L 1159 0 
L 581 0 
L 581 3500 
L 1159 3500 
L 1159 2956 
Q 1366 3272 1645 3428 
Q 1925 3584 2291 3584 
Q 2894 3584 3203 3211 
Q 3513 2838 3513 2113 
z
" transform="scale(0.015625)"/>
       <path id="DejaVuSans-79" d="M 2059 -325 
Q 1816 -950 1584 -1140 
Q 1353 -1331 966 -1331 
L 506 -1331 
L 506 -850 
L 844 -850 
Q 1081 -850 1212 -737 
Q 1344 -625 1503 -206 
L 1606 56 
L 191 3500 
L 800 3500 
L 1894 763 
L 2988 3500 
L 3597 3500 
L 2059 -325 
z
" transform="scale(0.015625)"/>
       <path id="DejaVuSans-66" d="M 2375 4863 
L 2375 4384 
L 1825 4384 
Q 1516 4384 1395 4259 
Q 1275 4134 1275 3809 
L 1275 3500 
L 2222 3500 
L 2222 3053 
L 1275 3053 
L 1275 0 
L 697 0 
L 697 3053 
L 147 3053 
L 147 3500 
L 697 3500 
L 697 3744 
Q 697 4328 969 4595 
Q 1241 4863 1831 4863 
L 2375 4863 
z
" transform="scale(0.015625)"/>
       <path id="DejaVuSans-69" d="M 603 3500 
L 1178 3500 
L 1178 0 
L 603 0 
L 603 3500 
z
M 603 4863 
L 1178 4863 
L 1178 4134 
L 603 4134 
L 603 4863 
z
" transform="scale(0.015625)"/>
       <path id="DejaVuSans-63" d="M 3122 3366 
L 3122 2828 
Q 2878 2963 2633 3030 
Q 2388 3097 2138 3097 
Q 1578 3097 1268 2742 
Q 959 2388 959 1747 
Q 959 1106 1268 751 
Q 1578 397 2138 397 
Q 2388 397 2633 464 
Q 2878 531 3122 666 
L 3122 134 
Q 2881 22 2623 -34 
Q 2366 -91 2075 -91 
Q 1284 -91 818 406 
Q 353 903 353 1747 
Q 353 2603 823 3093 
Q 1294 3584 2113 3584 
Q 2378 3584 2631 3529 
Q 2884 3475 3122 3366 
z
" transform="scale(0.015625)"/>
      </defs>
      <use xlink:href="#DejaVuSans-41"/>
      <use xlink:href="#DejaVuSans-76" x="62.533203"/>
      <use xlink:href="#DejaVuSans-65" x="121.712891"/>
      <use xlink:href="#DejaVuSans-72" x="183.236328"/>
      <use xlink:href="#DejaVuSans-61" x="224.349609"/>
      <use xlink:href="#DejaVuSans-67" x="285.628906"/>
      <use xlink:href="#DejaVuSans-65" x="349.105469"/>
      <use xlink:href="#DejaVuSans-20" x="410.628906"/>
      <use xlink:href="#DejaVuSans-65" x="442.416016"/>
      <use xlink:href="#DejaVuSans-6e" x="503.939453"/>
      <use xlink:href="#DejaVuSans-65" x="567.318359"/>
      <use xlink:href="#DejaVuSans-72" x="628.841797"/>
      <use xlink:href="#DejaVuSans-67" x="668.205078"/>
      <use xlink:href="#DejaVuSans-79" x="731.681641"/>
      <use xlink:href="#DejaVuSans-20" x="790.861328"/>
      <use xlink:href="#DejaVuSans-65" x="822.648438"/>
      <use xlink:href="#DejaVuSans-66" x="884.171875"/>
      <use xlink:href="#DejaVuSans-66" x="919.376953"/>
      <use xlink:href="#DejaVuSans-69" x="954.582031"/>
      <use xlink:href="#DejaVuSans-63" x="982.365234"/>
      <use xlink:href="#DejaVuSans-69" x="1037.345703"/>
      <use xlink:href="#DejaVuSans-65" x="1065.128906"/>
      <use xlink:href="#DejaVuSans-6e" x="1126.652344"/>
      <use xlink:href="#DejaVuSans-63" x="1190.03125"/>
      <use xlink:href="#DejaVuSans-79" x="1245.011719"/>
     </g>
    </g>
   </g>
   <g id="PathCollection_1">
    <path d="M 418.674433 242.445902 
C 419.573575 242.445902 420.436011 242.088669 421.071801 241.452879 
C 421.70759 240.81709 422.064823 239.954653 422.064823 239.055511 
C 422.064823 238.156369 421.70759 237.293933 421.071801 236.658143 
C 420.436011 236.022354 419.573575 235.665121 418.674433 235.665121 
C 417.775291 235.665121 416.912854 236.022354 416.277065 236.658143 
C 415.641275 237.293933 415.284042 238.156369 415.284042 239.055511 
C 415.284042 239.954653 415.641275 240.81709 416.277065 241.452879 
C 416.912854 242.088669 417.775291 242.445902 418.674433 242.445902 
z
" clip-path="url(#p693c2742de)" style="fill: #4c72b0; stroke: #ffffff; stroke-width: 0.527337"/>
    <path d="M 425.164417 252.995322 
C 426.012375 252.995322 426.825717 252.658425 427.425314 252.058828 
C 428.024911 251.459231 428.361808 250.645889 428.361808 249.797931 
C 428.361808 248.949973 428.024911 248.136631 427.425314 247.537034 
C 426.825717 246.937437 426.012375 246.60054 425.164417 246.60054 
C 424.316459 246.60054 423.503117 246.937437 422.90352 247.537034 
C 422.303923 248.136631 421.967026 248.949973 421.967026 249.797931 
C 421.967026 250.645889 422.303923 251.459231 422.90352 252.058828 
C 423.503117 252.658425 424.316459 252.995322 425.164417 252.995322 
z
" clip-path="url(#p693c2742de)" style="fill: #4c72b0; stroke: #ffffff; stroke-width: 0.527337"/>
    <path d="M 441.855118 504.524036 
C 442.702741 504.524036 443.515761 504.187272 444.115121 503.587912 
C 444.714481 502.988552 445.051245 502.175532 445.051245 501.327909 
C 445.051245 500.480286 444.714481 499.667265 444.115121 499.067905 
C 443.515761 498.468546 442.702741 498.131781 441.855118 498.131781 
C 441.007495 498.131781 440.194474 498.468546 439.595114 499.067905 
C 438.995755 499.667265 438.65899 500.480286 438.65899 501.327909 
C 438.65899 502.175532 438.995755 502.988552 439.595114 503.587912 
C 440.194474 504.187272 441.007495 504.524036 441.855118 504.524036 
z
" clip-path="url(#p693c2742de)" style="fill: #4c72b0; stroke: #ffffff; stroke-width: 0.527337"/>
    <path d="M 442.780751 518.391457 
C 443.624622 518.391457 444.434044 518.056184 445.030751 517.459477 
C 445.627458 516.86277 445.962731 516.053348 445.962731 515.209477 
C 445.962731 514.365606 445.627458 513.556184 445.030751 512.959477 
C 444.434044 512.36277 443.624622 512.027496 442.780751 512.027496 
C 441.93688 512.027496 441.127458 512.36277 440.530751 512.959477 
C 439.934044 513.556184 439.59877 514.365606 439.59877 515.209477 
C 439.59877 516.053348 439.934044 516.86277 440.530751 517.459477 
C 441.127458 518.056184 441.93688 518.391457 442.780751 518.391457 
z
" clip-path="url(#p693c2742de)" style="fill: #4c72b0; stroke: #ffffff; stroke-width: 0.527337"/>
    <path d="M 450.848525 540.733323 
C 451.712276 540.733323 452.540766 540.390151 453.15153 539.779387 
C 453.762295 539.168623 454.105466 538.340132 454.105466 537.476381 
C 454.105466 536.61263 453.762295 535.78414 453.15153 535.173376 
C 452.540766 534.562612 451.712276 534.21944 450.848525 534.21944 
C 449.984774 534.21944 449.156284 534.562612 448.545519 535.173376 
C 447.934755 535.78414 447.591583 536.61263 447.591583 537.476381 
C 447.591583 538.340132 447.934755 539.168623 448.545519 539.779387 
C 449.156284 540.390151 449.984774 540.733323 450.848525 540.733323 
z
" clip-path="url(#p693c2742de)" style="fill: #4c72b0; stroke: #ffffff; stroke-width: 0.527337"/>
    <path d="M 455.429222 545.196826 
C 456.28944 545.196826 457.114542 544.855058 457.722808 544.246792 
C 458.331074 543.638526 458.672842 542.813424 458.672842 541.953206 
C 458.672842 541.092988 458.331074 540.267886 457.722808 539.65962 
C 457.114542 539.051354 456.28944 538.709586 455.429222 538.709586 
C 454.569004 538.709586 453.743902 539.051354 453.135636 539.65962 
C 452.52737 540.267886 452.185602 541.092988 452.185602 541.953206 
C 452.185602 542.813424 452.52737 543.638526 453.135636 544.246792 
C 453.743902 544.855058 454.569004 545.196826 455.429222 545.196826 
z
" clip-path="url(#p693c2742de)" style="fill: #4c72b0; stroke: #ffffff; stroke-width: 0.527337"/>
    <path d="M 464.197474 568.741564 
C 465.082052 568.741564 465.930518 568.390117 466.556009 567.764627 
C 467.1815 567.139136 467.532946 566.290669 467.532946 565.406092 
C 467.532946 564.521515 467.1815 563.673048 466.556009 563.047558 
C 465.930518 562.422067 465.082052 562.070621 464.197474 562.070621 
C 463.312897 562.070621 462.46443 562.422067 461.83894 563.047558 
C 461.213449 563.673048 460.862003 564.521515 460.862003 565.406092 
C 460.862003 566.290669 461.213449 567.139136 461.83894 567.764627 
C 462.46443 568.390117 463.312897 568.741564 464.197474 568.741564 
z
" clip-path="url(#p693c2742de)" style="fill: #4c72b0; stroke: #ffffff; stroke-width: 0.527337"/>
    <path d="M 464.420353 573.734884 
C 465.305625 573.734884 466.154757 573.383162 466.780739 572.75718 
C 467.406721 572.131198 467.758443 571.282066 467.758443 570.396794 
C 467.758443 569.511522 467.406721 568.662389 466.780739 568.036407 
C 466.154757 567.410425 465.305625 567.058703 464.420353 567.058703 
C 463.535081 567.058703 462.685948 567.410425 462.059966 568.036407 
C 461.433984 568.662389 461.082262 569.511522 461.082262 570.396794 
C 461.082262 571.282066 461.433984 572.131198 462.059966 572.75718 
C 462.685948 573.383162 463.535081 573.734884 464.420353 573.734884 
z
" clip-path="url(#p693c2742de)" style="fill: #4c72b0; stroke: #ffffff; stroke-width: 0.527337"/>
    <path d="M 469.889303 576.86631 
C 470.806694 576.86631 471.686634 576.501827 472.335327 575.853134 
C 472.98402 575.20444 473.348503 574.3245 473.348503 573.40711 
C 473.348503 572.489719 472.98402 571.609779 472.335327 570.961086 
C 471.686634 570.312393 470.806694 569.94791 469.889303 569.94791 
C 468.971913 569.94791 468.091973 570.312393 467.443279 570.961086 
C 466.794586 571.609779 466.430103 572.489719 466.430103 573.40711 
C 466.430103 574.3245 466.794586 575.20444 467.443279 575.853134 
C 468.091973 576.501827 468.971913 576.86631 469.889303 576.86631 
z
" clip-path="url(#p693c2742de)" style="fill: #4c72b0; stroke: #ffffff; stroke-width: 0.527337"/>
    <path d="M 473.882746 587.514765 
C 474.808517 587.514765 475.696496 587.146952 476.351115 586.492333 
C 477.005734 585.837714 477.373547 584.949735 477.373547 584.023964 
C 477.373547 583.098192 477.005734 582.210214 476.351115 581.555594 
C 475.696496 580.900975 474.808517 580.533162 473.882746 580.533162 
C 472.956974 580.533162 472.068996 580.900975 471.414377 581.555594 
C 470.759757 582.210214 470.391945 583.098192 470.391945 584.023964 
C 470.391945 584.949735 470.759757 585.837714 471.414377 586.492333 
C 472.068996 587.146952 472.956974 587.514765 473.882746 587.514765 
z
" clip-path="url(#p693c2742de)" style="fill: #4c72b0; stroke: #ffffff; stroke-width: 0.527337"/>
    <path d="M 484.89256 593.269583 
C 485.753515 593.269583 486.579323 592.927522 487.18811 592.318735 
C 487.796897 591.709948 488.138958 590.884139 488.138958 590.023185 
C 488.138958 589.16223 487.796897 588.336422 487.18811 587.727635 
C 486.579323 587.118848 485.753515 586.776787 484.89256 586.776787 
C 484.031605 586.776787 483.205797 587.118848 482.59701 587.727635 
C 481.988223 588.336422 481.646162 589.16223 481.646162 590.023185 
C 481.646162 590.884139 481.988223 591.709948 482.59701 592.318735 
C 483.205797 592.927522 484.031605 593.269583 484.89256 593.269583 
z
" clip-path="url(#p693c2742de)" style="fill: #4c72b0; stroke: #ffffff; stroke-width: 0.527337"/>
    <path d="M 496.540329 600.030055 
C 497.416938 600.030055 498.257761 599.681775 498.877617 599.061919 
C 499.497473 598.442063 499.845753 597.60124 499.845753 596.724631 
C 499.845753 595.848023 499.497473 595.0072 498.877617 594.387344 
C 498.257761 593.767488 497.416938 593.419208 496.540329 593.419208 
C 495.663721 593.419208 494.822898 593.767488 494.203042 594.387344 
C 493.583186 595.0072 493.234906 595.848023 493.234906 596.724631 
C 493.234906 597.60124 493.583186 598.442063 494.203042 599.061919 
C 494.822898 599.681775 495.663721 600.030055 496.540329 600.030055 
z
" clip-path="url(#p693c2742de)" style="fill: #4c72b0; stroke: #ffffff; stroke-width: 0.527337"/>
    <path d="M 499.922305 602.736211 
C 500.844907 602.736211 501.729845 602.369657 502.382223 601.717279 
C 503.034601 601.064902 503.401154 600.179963 503.401154 599.257361 
C 503.401154 598.33476 503.034601 597.449821 502.382223 596.797444 
C 501.729845 596.145066 500.844907 595.778512 499.922305 595.778512 
C 498.999704 595.778512 498.114765 596.145066 497.462387 596.797444 
C 496.810009 597.449821 496.443456 598.33476 496.443456 599.257361 
C 496.443456 600.179963 496.810009 601.064902 497.462387 601.717279 
C 498.114765 602.369657 498.999704 602.736211 499.922305 602.736211 
z
" clip-path="url(#p693c2742de)" style="fill: #4c72b0; stroke: #ffffff; stroke-width: 0.527337"/>
    <path d="M 501.01595 609.353473 
C 501.894956 609.353473 502.738078 609.004241 503.359629 608.38269 
C 503.98118 607.761139 504.330413 606.918016 504.330413 606.039011 
C 504.330413 605.160005 503.98118 604.316883 503.359629 603.695332 
C 502.738078 603.073781 501.894956 602.724548 501.01595 602.724548 
C 500.136945 602.724548 499.293822 603.073781 498.672271 603.695332 
C 498.050721 604.316883 497.701488 605.160005 497.701488 606.039011 
C 497.701488 606.918016 498.050721 607.761139 498.672271 608.38269 
C 499.293822 609.004241 500.136945 609.353473 501.01595 609.353473 
z
" clip-path="url(#p693c2742de)" style="fill: #4c72b0; stroke: #ffffff; stroke-width: 0.527337"/>
    <path d="M 501.785108 614.408393 
C 502.678642 614.408393 503.5357 614.053388 504.167524 613.421564 
C 504.799348 612.78974 505.154353 611.932682 505.154353 611.039148 
C 505.154353 610.145614 504.799348 609.288556 504.167524 608.656732 
C 503.5357 608.024908 502.678642 607.669903 501.785108 607.669903 
C 500.891574 607.669903 500.034516 608.024908 499.402692 608.656732 
C 498.770868 609.288556 498.415863 610.145614 498.415863 611.039148 
C 498.415863 611.932682 498.770868 612.78974 499.402692 613.421564 
C 500.034516 614.053388 500.891574 614.408393 501.785108 614.408393 
z
" clip-path="url(#p693c2742de)" style="fill: #4c72b0; stroke: #ffffff; stroke-width: 0.527337"/>
    <path d="M 504.062419 631.011111 
C 504.970649 631.011111 505.841803 630.650267 506.484019 630.008052 
C 507.126235 629.365836 507.487079 628.494682 507.487079 627.586452 
C 507.487079 626.678221 507.126235 625.807067 506.484019 625.164852 
C 505.841803 624.522636 504.970649 624.161792 504.062419 624.161792 
C 503.154189 624.161792 502.283035 624.522636 501.640819 625.164852 
C 500.998603 625.807067 500.637759 626.678221 500.637759 627.586452 
C 500.637759 628.494682 500.998603 629.365836 501.640819 630.008052 
C 502.283035 630.650267 503.154189 631.011111 504.062419 631.011111 
z
" clip-path="url(#p693c2742de)" style="fill: #4c72b0; stroke: #ffffff; stroke-width: 0.527337"/>
    <path d="M 432.606422 190.483264 
C 433.49027 190.483264 434.338037 190.132107 434.963011 189.507133 
C 435.587986 188.882158 435.939143 188.034391 435.939143 187.150543 
C 435.939143 186.266696 435.587986 185.418929 434.963011 184.793954 
C 434.338037 184.16898 433.49027 183.817823 432.606422 183.817823 
C 431.722575 183.817823 430.874808 184.16898 430.249833 184.793954 
C 429.624859 185.418929 429.273702 186.266696 429.273702 187.150543 
C 429.273702 188.034391 429.624859 188.882158 430.249833 189.507133 
C 430.874808 190.132107 431.722575 190.483264 432.606422 190.483264 
z
" clip-path="url(#p693c2742de)" style="fill: #8172b3; stroke: #ffffff; stroke-width: 0.527337"/>
    <path d="M 420.813617 189.568514 
C 421.754303 189.568514 422.656587 189.194775 423.321753 188.52961 
C 423.986918 187.864444 424.360656 186.96216 424.360656 186.021474 
C 424.360656 185.080788 423.986918 184.178504 423.321753 183.513338 
C 422.656587 182.848173 421.754303 182.474435 420.813617 182.474435 
C 419.872931 182.474435 418.970646 182.848173 418.305481 183.513338 
C 417.640316 184.178504 417.266577 185.080788 417.266577 186.021474 
C 417.266577 186.96216 417.640316 187.864444 418.305481 188.52961 
C 418.970646 189.194775 419.872931 189.568514 420.813617 189.568514 
z
" clip-path="url(#p693c2742de)" style="fill: #8172b3; stroke: #ffffff; stroke-width: 0.527337"/>
    <path d="M 430.901896 189.883309 
C 431.765743 189.883309 432.594326 189.540098 433.205159 188.929266 
C 433.815991 188.318434 434.159201 187.489851 434.159201 186.626003 
C 434.159201 185.762156 433.815991 184.933573 433.205159 184.322741 
C 432.594326 183.711908 431.765743 183.368698 430.901896 183.368698 
C 430.038049 183.368698 429.209466 183.711908 428.598633 184.322741 
C 427.987801 184.933573 427.644591 185.762156 427.644591 186.626003 
C 427.644591 187.489851 427.987801 188.318434 428.598633 188.929266 
C 429.209466 189.540098 430.038049 189.883309 430.901896 189.883309 
z
" clip-path="url(#p693c2742de)" style="fill: #8172b3; stroke: #ffffff; stroke-width: 0.527337"/>
    <path d="M 459.878395 193.917284 
C 461.052656 193.917284 462.17898 193.450745 463.009308 192.620417 
C 463.839636 191.790089 464.306175 190.663764 464.306175 189.489503 
C 464.306175 188.315242 463.839636 187.188918 463.009308 186.35859 
C 462.17898 185.528261 461.052656 185.061723 459.878395 185.061723 
C 458.704133 185.061723 457.577809 185.528261 456.747481 186.35859 
C 455.917153 187.188918 455.450614 188.315242 455.450614 189.489503 
C 455.450614 190.663764 455.917153 191.790089 456.747481 192.620417 
C 457.577809 193.450745 458.704133 193.917284 459.878395 193.917284 
z
" clip-path="url(#p693c2742de)" style="fill: #8172b3; stroke: #ffffff; stroke-width: 0.527337"/>
    <path d="M 460.87989 201.162104 
C 462.093839 201.162104 463.258231 200.679797 464.116622 199.821405 
C 464.975014 198.963013 465.457321 197.798621 465.457321 196.584672 
C 465.457321 195.370723 464.975014 194.206331 464.116622 193.34794 
C 463.258231 192.489548 462.093839 192.007241 460.87989 192.007241 
C 459.665941 192.007241 458.501548 192.489548 457.643157 193.34794 
C 456.784765 194.206331 456.302458 195.370723 456.302458 196.584672 
C 456.302458 197.798621 456.784765 198.963013 457.643157 199.821405 
C 458.501548 200.679797 459.665941 201.162104 460.87989 201.162104 
z
" clip-path="url(#p693c2742de)" style="fill: #8172b3; stroke: #ffffff; stroke-width: 0.527337"/>
    <path d="M 489.910361 209.755743 
C 491.218982 209.755743 492.47418 209.235823 493.399514 208.310489 
C 494.324848 207.385154 494.844769 206.129956 494.844769 204.821336 
C 494.844769 203.512716 494.324848 202.257517 493.399514 201.332183 
C 492.47418 200.406849 491.218982 199.886928 489.910361 199.886928 
C 488.601741 199.886928 487.346543 200.406849 486.421209 201.332183 
C 485.495874 202.257517 484.975954 203.512716 484.975954 204.821336 
C 484.975954 206.129956 485.495874 207.385154 486.421209 208.310489 
C 487.346543 209.235823 488.601741 209.755743 489.910361 209.755743 
z
" clip-path="url(#p693c2742de)" style="fill: #8172b3; stroke: #ffffff; stroke-width: 0.527337"/>
    <path d="M 494.107525 217.960415 
C 495.425436 217.960415 496.689545 217.436804 497.621449 216.504901 
C 498.553352 215.572997 499.076964 214.308888 499.076964 212.990977 
C 499.076964 211.673067 498.553352 210.408957 497.621449 209.477054 
C 496.689545 208.54515 495.425436 208.021539 494.107525 208.021539 
C 492.789615 208.021539 491.525505 208.54515 490.593602 209.477054 
C 489.661699 210.408957 489.138087 211.673067 489.138087 212.990977 
C 489.138087 214.308888 489.661699 215.572997 490.593602 216.504901 
C 491.525505 217.436804 492.789615 217.960415 494.107525 217.960415 
z
" clip-path="url(#p693c2742de)" style="fill: #8172b3; stroke: #ffffff; stroke-width: 0.527337"/>
    <path d="M 510.177652 303.793101 
C 511.500675 303.793101 512.769689 303.267458 513.705207 302.33194 
C 514.640726 301.396421 515.166369 300.127407 515.166369 298.804384 
C 515.166369 297.481361 514.640726 296.212347 513.705207 295.276829 
C 512.769689 294.34131 511.500675 293.815667 510.177652 293.815667 
C 508.854629 293.815667 507.585615 294.34131 506.650096 295.276829 
C 505.714578 296.212347 505.188935 297.481361 505.188935 298.804384 
C 505.188935 300.127407 505.714578 301.396421 506.650096 302.33194 
C 507.585615 303.267458 508.854629 303.793101 510.177652 303.793101 
z
" clip-path="url(#p693c2742de)" style="fill: #8172b3; stroke: #ffffff; stroke-width: 0.527337"/>
    <path d="M 618.347534 378.36745 
C 619.669071 378.36745 620.936659 377.842398 621.871127 376.90793 
C 622.805595 375.973462 623.330647 374.705873 623.330647 373.384336 
C 623.330647 372.062799 622.805595 370.795211 621.871127 369.860743 
C 620.936659 368.926275 619.669071 368.401223 618.347534 368.401223 
C 617.025996 368.401223 615.758408 368.926275 614.82394 369.860743 
C 613.889472 370.795211 613.36442 372.062799 613.36442 373.384336 
C 613.36442 374.705873 613.889472 375.973462 614.82394 376.90793 
C 615.758408 377.842398 617.025996 378.36745 618.347534 378.36745 
z
" clip-path="url(#p693c2742de)" style="fill: #8172b3; stroke: #ffffff; stroke-width: 0.527337"/>
    <path d="M 605.020277 320.425103 
C 605.910511 320.425103 606.764403 320.07141 607.393894 319.441919 
C 608.023384 318.812429 608.377078 317.958536 608.377078 317.068302 
C 608.377078 316.178068 608.023384 315.324176 607.393894 314.694686 
C 606.764403 314.065195 605.910511 313.711501 605.020277 313.711501 
C 604.130043 313.711501 603.276151 314.065195 602.64666 314.694686 
C 602.017169 315.324176 601.663476 316.178068 601.663476 317.068302 
C 601.663476 317.958536 602.017169 318.812429 602.64666 319.441919 
C 603.276151 320.07141 604.130043 320.425103 605.020277 320.425103 
z
" clip-path="url(#p693c2742de)" style="fill: #8172b3; stroke: #ffffff; stroke-width: 0.527337"/>
    <path d="M 646.195239 476.975135 
C 647.550051 476.975135 648.849555 476.436863 649.807551 475.478867 
C 650.765547 474.52087 651.303819 473.221366 651.303819 471.866555 
C 651.303819 470.511744 650.765547 469.21224 649.807551 468.254244 
C 648.849555 467.296248 647.550051 466.757975 646.195239 466.757975 
C 644.840428 466.757975 643.540924 467.296248 642.582928 468.254244 
C 641.624932 469.21224 641.08666 470.511744 641.08666 471.866555 
C 641.08666 473.221366 641.624932 474.52087 642.582928 475.478867 
C 643.540924 476.436863 644.840428 476.975135 646.195239 476.975135 
z
" clip-path="url(#p693c2742de)" style="fill: #8172b3; stroke: #ffffff; stroke-width: 0.527337"/>
    <path d="M 617.436577 358.758773 
C 618.712354 358.758773 619.936051 358.251901 620.838162 357.34979 
C 621.740272 356.44768 622.247144 355.223983 622.247144 353.948206 
C 622.247144 352.672429 621.740272 351.448732 620.838162 350.546621 
C 619.936051 349.644511 618.712354 349.137639 617.436577 349.137639 
C 616.1608 349.137639 614.937103 349.644511 614.034993 350.546621 
C 613.132882 351.448732 612.62601 352.672429 612.62601 353.948206 
C 612.62601 355.223983 613.132882 356.44768 614.034993 357.34979 
C 614.937103 358.251901 616.1608 358.758773 617.436577 358.758773 
z
" clip-path="url(#p693c2742de)" style="fill: #8172b3; stroke: #ffffff; stroke-width: 0.527337"/>
    <path d="M 634.027628 412.448615 
C 635.352052 412.448615 636.62241 411.922416 637.558919 410.985906 
C 638.495429 410.049397 639.021628 408.77904 639.021628 407.454615 
C 639.021628 406.130191 638.495429 404.859833 637.558919 403.923324 
C 636.62241 402.986815 635.352052 402.460615 634.027628 402.460615 
C 632.703204 402.460615 631.432846 402.986815 630.496337 403.923324 
C 629.559827 404.859833 629.033628 406.130191 629.033628 407.454615 
C 629.033628 408.77904 629.559827 410.049397 630.496337 410.985906 
C 631.432846 411.922416 632.703204 412.448615 634.027628 412.448615 
z
" clip-path="url(#p693c2742de)" style="fill: #8172b3; stroke: #ffffff; stroke-width: 0.527337"/>
    <path d="M 565.52881 672.831751 
C 566.543996 672.831751 567.51774 672.428413 568.235585 671.710568 
C 568.953429 670.992724 569.356767 670.01898 569.356767 669.003794 
C 569.356767 667.988608 568.953429 667.014865 568.235585 666.29702 
C 567.51774 665.579175 566.543996 665.175838 565.52881 665.175838 
C 564.513625 665.175838 563.539881 665.579175 562.822036 666.29702 
C 562.104192 667.014865 561.700854 667.988608 561.700854 669.003794 
C 561.700854 670.01898 562.104192 670.992724 562.822036 671.710568 
C 563.539881 672.428413 564.513625 672.831751 565.52881 672.831751 
z
" clip-path="url(#p693c2742de)" style="fill: #dd8452; stroke: #ffffff; stroke-width: 0.527337"/>
    <path d="M 549.218912 557.276426 
C 550.125965 557.276426 550.995991 556.91605 551.637374 556.274666 
C 552.278758 555.633282 552.639134 554.763257 552.639134 553.856204 
C 552.639134 552.94915 552.278758 552.079125 551.637374 551.437741 
C 550.995991 550.796358 550.125965 550.435981 549.218912 550.435981 
C 548.311858 550.435981 547.441833 550.796358 546.80045 551.437741 
C 546.159066 552.079125 545.79869 552.94915 545.79869 553.856204 
C 545.79869 554.763257 546.159066 555.633282 546.80045 556.274666 
C 547.441833 556.91605 548.311858 557.276426 549.218912 557.276426 
z
" clip-path="url(#p693c2742de)" style="fill: #dd8452; stroke: #ffffff; stroke-width: 0.527337"/>
    <path d="M 506.940539 451.858723 
C 507.95769 451.858723 508.933319 451.454604 509.652553 450.735369 
C 510.371788 450.016135 510.775906 449.040506 510.775906 448.023355 
C 510.775906 447.006204 510.371788 446.030575 509.652553 445.311341 
C 508.933319 444.592106 507.95769 444.187988 506.940539 444.187988 
C 505.923388 444.187988 504.947759 444.592106 504.228525 445.311341 
C 503.50929 446.030575 503.105172 447.006204 503.105172 448.023355 
C 503.105172 449.040506 503.50929 450.016135 504.228525 450.735369 
C 504.947759 451.454604 505.923388 451.858723 506.940539 451.858723 
z
" clip-path="url(#p693c2742de)" style="fill: #dd8452; stroke: #ffffff; stroke-width: 0.527337"/>
    <path d="M 494.88685 448.987832 
C 495.859555 448.987832 496.792551 448.601372 497.480357 447.913566 
C 498.168163 447.22576 498.554623 446.292763 498.554623 445.320058 
C 498.554623 444.347354 498.168163 443.414357 497.480357 442.726551 
C 496.792551 442.038745 495.859555 441.652285 494.88685 441.652285 
C 493.914145 441.652285 492.981149 442.038745 492.293342 442.726551 
C 491.605536 443.414357 491.219076 444.347354 491.219076 445.320058 
C 491.219076 446.292763 491.605536 447.22576 492.293342 447.913566 
C 492.981149 448.601372 493.914145 448.987832 494.88685 448.987832 
z
" clip-path="url(#p693c2742de)" style="fill: #dd8452; stroke: #ffffff; stroke-width: 0.527337"/>
    <path d="M 488.297351 419.067656 
C 489.304533 419.067656 490.270599 418.667498 490.982784 417.955313 
C 491.694969 417.243128 492.095127 416.277062 492.095127 415.26988 
C 492.095127 414.262698 491.694969 413.296633 490.982784 412.584447 
C 490.270599 411.872262 489.304533 411.472105 488.297351 411.472105 
C 487.290169 411.472105 486.324103 411.872262 485.611918 412.584447 
C 484.899733 413.296633 484.499576 414.262698 484.499576 415.26988 
C 484.499576 416.277062 484.899733 417.243128 485.611918 417.955313 
C 486.324103 418.667498 487.290169 419.067656 488.297351 419.067656 
z
" clip-path="url(#p693c2742de)" style="fill: #dd8452; stroke: #ffffff; stroke-width: 0.527337"/>
    <path d="M 480.664288 402.012179 
C 481.592282 402.012179 482.482392 401.643483 483.138583 400.987292 
C 483.794773 400.331102 484.163469 399.440991 484.163469 398.512998 
C 484.163469 397.585004 483.794773 396.694893 483.138583 396.038703 
C 482.482392 395.382512 481.592282 395.013816 480.664288 395.013816 
C 479.736294 395.013816 478.846184 395.382512 478.189993 396.038703 
C 477.533802 396.694893 477.165107 397.585004 477.165107 398.512998 
C 477.165107 399.440991 477.533802 400.331102 478.189993 400.987292 
C 478.846184 401.643483 479.736294 402.012179 480.664288 402.012179 
z
" clip-path="url(#p693c2742de)" style="fill: #dd8452; stroke: #ffffff; stroke-width: 0.527337"/>
    <path d="M 477.149868 390.92574 
C 478.217516 390.92574 479.241581 390.501559 479.996522 389.746617 
C 480.751463 388.991676 481.175645 387.967612 481.175645 386.899963 
C 481.175645 385.832315 480.751463 384.808251 479.996522 384.053309 
C 479.241581 383.298368 478.217516 382.874186 477.149868 382.874186 
C 476.08222 382.874186 475.058155 383.298368 474.303214 384.053309 
C 473.548273 384.808251 473.124091 385.832315 473.124091 386.899963 
C 473.124091 387.967612 473.548273 388.991676 474.303214 389.746617 
C 475.058155 390.501559 476.08222 390.92574 477.149868 390.92574 
z
" clip-path="url(#p693c2742de)" style="fill: #dd8452; stroke: #ffffff; stroke-width: 0.527337"/>
    <path d="M 464.603912 344.631943 
C 465.811048 344.631943 466.968905 344.152343 467.822479 343.298768 
C 468.676054 342.445194 469.155654 341.287337 469.155654 340.080201 
C 469.155654 338.873064 468.676054 337.715207 467.822479 336.861633 
C 466.968905 336.008059 465.811048 335.528458 464.603912 335.528458 
C 463.396775 335.528458 462.238918 336.008059 461.385344 336.861633 
C 460.53177 337.715207 460.052169 338.873064 460.052169 340.080201 
C 460.052169 341.287337 460.53177 342.445194 461.385344 343.298768 
C 462.238918 344.152343 463.396775 344.631943 464.603912 344.631943 
z
" clip-path="url(#p693c2742de)" style="fill: #dd8452; stroke: #ffffff; stroke-width: 0.527337"/>
    <path d="M 543.131045 510.069635 
C 544.193969 510.069635 545.213502 509.64733 545.965102 508.89573 
C 546.716703 508.144129 547.139008 507.124596 547.139008 506.061672 
C 547.139008 504.998748 546.716703 503.979215 545.965102 503.227614 
C 545.213502 502.476013 544.193969 502.053709 543.131045 502.053709 
C 542.068121 502.053709 541.048588 502.476013 540.296987 503.227614 
C 539.545386 503.979215 539.123082 504.998748 539.123082 506.061672 
C 539.123082 507.124596 539.545386 508.144129 540.296987 508.89573 
C 541.048588 509.64733 542.068121 510.069635 543.131045 510.069635 
z
" clip-path="url(#p693c2742de)" style="fill: #dd8452; stroke: #ffffff; stroke-width: 0.527337"/>
    <path d="M 520.947401 133.867973 
C 521.893061 133.867973 522.800117 133.492258 523.4688 132.823575 
C 524.137483 132.154893 524.513198 131.247837 524.513198 130.302176 
C 524.513198 129.356516 524.137483 128.44946 523.4688 127.780777 
C 522.800117 127.112094 521.893061 126.736379 520.947401 126.736379 
C 520.001741 126.736379 519.094685 127.112094 518.426002 127.780777 
C 517.757319 128.44946 517.381604 129.356516 517.381604 130.302176 
C 517.381604 131.247837 517.757319 132.154893 518.426002 132.823575 
C 519.094685 133.492258 520.001741 133.867973 520.947401 133.867973 
z
" clip-path="url(#p693c2742de)" style="fill: #55a868; stroke: #ffffff; stroke-width: 0.527337"/>
    <path d="M 571.454396 135.649737 
C 572.493775 135.649737 573.490724 135.236787 574.225676 134.501835 
C 574.960628 133.766883 575.373577 132.769935 575.373577 131.730556 
C 575.373577 130.691177 574.960628 129.694228 574.225676 128.959276 
C 573.490724 128.224324 572.493775 127.811375 571.454396 127.811375 
C 570.415017 127.811375 569.418069 128.224324 568.683117 128.959276 
C 567.948165 129.694228 567.535215 130.691177 567.535215 131.730556 
C 567.535215 132.769935 567.948165 133.766883 568.683117 134.501835 
C 569.418069 135.236787 570.415017 135.649737 571.454396 135.649737 
z
" clip-path="url(#p693c2742de)" style="fill: #55a868; stroke: #ffffff; stroke-width: 0.527337"/>
    <path d="M 580.967836 137.753715 
C 581.920395 137.753715 582.834069 137.375259 583.50763 136.701698 
C 584.181192 136.028136 584.559647 135.114463 584.559647 134.161903 
C 584.559647 133.209344 584.181192 132.29567 583.50763 131.622109 
C 582.834069 130.948547 581.920395 130.570091 580.967836 130.570091 
C 580.015276 130.570091 579.101603 130.948547 578.428041 131.622109 
C 577.75448 132.29567 577.376024 133.209344 577.376024 134.161903 
C 577.376024 135.114463 577.75448 136.028136 578.428041 136.701698 
C 579.101603 137.375259 580.015276 137.753715 580.967836 137.753715 
z
" clip-path="url(#p693c2742de)" style="fill: #55a868; stroke: #ffffff; stroke-width: 0.527337"/>
    <path d="M 579.47827 137.658315 
C 580.441332 137.658315 581.365079 137.275687 582.046066 136.594699 
C 582.727053 135.913712 583.109682 134.989965 583.109682 134.026904 
C 583.109682 133.063842 582.727053 132.140096 582.046066 131.459108 
C 581.365079 130.778121 580.441332 130.395493 579.47827 130.395493 
C 578.515209 130.395493 577.591462 130.778121 576.910475 131.459108 
C 576.229488 132.140096 575.846859 133.063842 575.846859 134.026904 
C 575.846859 134.989965 576.229488 135.913712 576.910475 136.594699 
C 577.591462 137.275687 578.515209 137.658315 579.47827 137.658315 
z
" clip-path="url(#p693c2742de)" style="fill: #55a868; stroke: #ffffff; stroke-width: 0.527337"/>
    <path d="M 592.104255 141.577677 
C 592.99849 141.577677 593.856221 141.222393 594.488541 140.590073 
C 595.120861 139.957753 595.476145 139.100022 595.476145 138.205787 
C 595.476145 137.311551 595.120861 136.45382 594.488541 135.8215 
C 593.856221 135.18918 592.99849 134.833896 592.104255 134.833896 
C 591.210019 134.833896 590.352288 135.18918 589.719968 135.8215 
C 589.087648 136.45382 588.732364 137.311551 588.732364 138.205787 
C 588.732364 139.100022 589.087648 139.957753 589.719968 140.590073 
C 590.352288 141.222393 591.210019 141.577677 592.104255 141.577677 
z
" clip-path="url(#p693c2742de)" style="fill: #55a868; stroke: #ffffff; stroke-width: 0.527337"/>
    <path d="M 596.670052 146.849385 
C 597.52455 146.849385 598.344165 146.50989 598.948386 145.905669 
C 599.552607 145.301447 599.892103 144.481832 599.892103 143.627334 
C 599.892103 142.772836 599.552607 141.953221 598.948386 141.349 
C 598.344165 140.744779 597.52455 140.405283 596.670052 140.405283 
C 595.815554 140.405283 594.995939 140.744779 594.391717 141.349 
C 593.787496 141.953221 593.448 142.772836 593.448 143.627334 
C 593.448 144.481832 593.787496 145.301447 594.391717 145.905669 
C 594.995939 146.50989 595.815554 146.849385 596.670052 146.849385 
z
" clip-path="url(#p693c2742de)" style="fill: #55a868; stroke: #ffffff; stroke-width: 0.527337"/>
    <path d="M 603.186722 150.574086 
C 604.100379 150.574086 604.976738 150.211086 605.622791 149.565033 
C 606.268844 148.91898 606.631843 148.042621 606.631843 147.128964 
C 606.631843 146.215307 606.268844 145.338948 605.622791 144.692895 
C 604.976738 144.046842 604.100379 143.683842 603.186722 143.683842 
C 602.273065 143.683842 601.396706 144.046842 600.750653 144.692895 
C 600.1046 145.338948 599.7416 146.215307 599.7416 147.128964 
C 599.7416 148.042621 600.1046 148.91898 600.750653 149.565033 
C 601.396706 150.211086 602.273065 150.574086 603.186722 150.574086 
z
" clip-path="url(#p693c2742de)" style="fill: #55a868; stroke: #ffffff; stroke-width: 0.527337"/>
    <path d="M 614.008235 165.232125 
C 614.929945 165.232125 615.814029 164.865926 616.465776 164.214179 
C 617.117524 163.562431 617.483723 162.678348 617.483723 161.756638 
C 617.483723 160.834927 617.117524 159.950844 616.465776 159.299097 
C 615.814029 158.647349 614.929945 158.28115 614.008235 158.28115 
C 613.086525 158.28115 612.202442 158.647349 611.550694 159.299097 
C 610.898947 159.950844 610.532747 160.834927 610.532747 161.756638 
C 610.532747 162.678348 610.898947 163.562431 611.550694 164.214179 
C 612.202442 164.865926 613.086525 165.232125 614.008235 165.232125 
z
" clip-path="url(#p693c2742de)" style="fill: #55a868; stroke: #ffffff; stroke-width: 0.527337"/>
    <path d="M 622.095196 170.61723 
C 622.991765 170.61723 623.851732 170.261019 624.485702 169.62705 
C 625.119672 168.99308 625.475882 168.133112 625.475882 167.236544 
C 625.475882 166.339976 625.119672 165.480008 624.485702 164.846038 
C 623.851732 164.212069 622.991765 163.855858 622.095196 163.855858 
C 621.198628 163.855858 620.33866 164.212069 619.70469 164.846038 
C 619.070721 165.480008 618.714511 166.339976 618.714511 167.236544 
C 618.714511 168.133112 619.070721 168.99308 619.70469 169.62705 
C 620.33866 170.261019 621.198628 170.61723 622.095196 170.61723 
z
" clip-path="url(#p693c2742de)" style="fill: #55a868; stroke: #ffffff; stroke-width: 0.527337"/>
    <path d="M 625.231155 175.3637 
C 626.121553 175.3637 626.975603 175.009941 627.605209 174.380334 
C 628.234816 173.750728 628.588574 172.896678 628.588574 172.00628 
C 628.588574 171.115882 628.234816 170.261832 627.605209 169.632226 
C 626.975603 169.002619 626.121553 168.64886 625.231155 168.64886 
C 624.340757 168.64886 623.486707 169.002619 622.857101 169.632226 
C 622.227494 170.261832 621.873735 171.115882 621.873735 172.00628 
C 621.873735 172.896678 622.227494 173.750728 622.857101 174.380334 
C 623.486707 175.009941 624.340757 175.3637 625.231155 175.3637 
z
" clip-path="url(#p693c2742de)" style="fill: #55a868; stroke: #ffffff; stroke-width: 0.527337"/>
    <path d="M 643.165764 191.1177 
C 644.075962 191.1177 644.949003 190.756075 645.59261 190.112468 
C 646.236217 189.468861 646.597842 188.59582 646.597842 187.685622 
C 646.597842 186.775425 646.236217 185.902384 645.59261 185.258777 
C 644.949003 184.61517 644.075962 184.253544 643.165764 184.253544 
C 642.255567 184.253544 641.382526 184.61517 640.738919 185.258777 
C 640.095312 185.902384 639.733686 186.775425 639.733686 187.685622 
C 639.733686 188.59582 640.095312 189.468861 640.738919 190.112468 
C 641.382526 190.756075 642.255567 191.1177 643.165764 191.1177 
z
" clip-path="url(#p693c2742de)" style="fill: #55a868; stroke: #ffffff; stroke-width: 0.527337"/>
    <path d="M 627.680452 184.965821 
C 628.64845 184.965821 629.576932 184.581231 630.26141 183.896753 
C 630.945888 183.212275 631.330478 182.283793 631.330478 181.315795 
C 631.330478 180.347797 630.945888 179.419315 630.26141 178.734837 
C 629.576932 178.050358 628.64845 177.665769 627.680452 177.665769 
C 626.712453 177.665769 625.783972 178.050358 625.099493 178.734837 
C 624.415015 179.419315 624.030425 180.347797 624.030425 181.315795 
C 624.030425 182.283793 624.415015 183.212275 625.099493 183.896753 
C 625.783972 184.581231 626.712453 184.965821 627.680452 184.965821 
z
" clip-path="url(#p693c2742de)" style="fill: #55a868; stroke: #ffffff; stroke-width: 0.527337"/>
    <path d="M 631.576209 188.50427 
C 632.53308 188.50427 633.450889 188.124101 634.127499 187.447491 
C 634.804109 186.770881 635.184278 185.853072 635.184278 184.896201 
C 635.184278 183.93933 634.804109 183.021521 634.127499 182.344911 
C 633.450889 181.668301 632.53308 181.288132 631.576209 181.288132 
C 630.619338 181.288132 629.701529 181.668301 629.024919 182.344911 
C 628.348309 183.021521 627.96814 183.93933 627.96814 184.896201 
C 627.96814 185.853072 628.348309 186.770881 629.024919 187.447491 
C 629.701529 188.124101 630.619338 188.50427 631.576209 188.50427 
z
" clip-path="url(#p693c2742de)" style="fill: #55a868; stroke: #ffffff; stroke-width: 0.527337"/>
    <path d="M 644.620659 201.843128 
C 645.533401 201.843128 646.408883 201.480492 647.054289 200.835085 
C 647.699696 200.189679 648.062332 199.314197 648.062332 198.401455 
C 648.062332 197.488712 647.699696 196.613231 647.054289 195.967824 
C 646.408883 195.322418 645.533401 194.959782 644.620659 194.959782 
C 643.707917 194.959782 642.832435 195.322418 642.187029 195.967824 
C 641.541622 196.613231 641.178986 197.488712 641.178986 198.401455 
C 641.178986 199.314197 641.541622 200.189679 642.187029 200.835085 
C 642.832435 201.480492 643.707917 201.843128 644.620659 201.843128 
z
" clip-path="url(#p693c2742de)" style="fill: #55a868; stroke: #ffffff; stroke-width: 0.527337"/>
    <path d="M 645.606127 207.027337 
C 646.521584 207.027337 647.39967 206.663622 648.046996 206.016296 
C 648.694322 205.368971 649.058036 204.490885 649.058036 203.575428 
C 649.058036 202.659971 648.694322 201.781886 648.046996 201.13456 
C 647.39967 200.487234 646.521584 200.123519 645.606127 200.123519 
C 644.69067 200.123519 643.812585 200.487234 643.165259 201.13456 
C 642.517933 201.781886 642.154218 202.659971 642.154218 203.575428 
C 642.154218 204.490885 642.517933 205.368971 643.165259 206.016296 
C 643.812585 206.663622 644.69067 207.027337 645.606127 207.027337 
z
" clip-path="url(#p693c2742de)" style="fill: #55a868; stroke: #ffffff; stroke-width: 0.527337"/>
    <path d="M 658.822621 209.44241 
C 659.715779 209.44241 660.572475 209.087555 661.204032 208.455997 
C 661.83559 207.824439 662.190445 206.967743 662.190445 206.074586 
C 662.190445 205.181429 661.83559 204.324733 661.204032 203.693175 
C 660.572475 203.061618 659.715779 202.706763 658.822621 202.706763 
C 657.929464 202.706763 657.072768 203.061618 656.441211 203.693175 
C 655.809653 204.324733 655.454798 205.181429 655.454798 206.074586 
C 655.454798 206.967743 655.809653 207.824439 656.441211 208.455997 
C 657.072768 209.087555 657.929464 209.44241 658.822621 209.44241 
z
" clip-path="url(#p693c2742de)" style="fill: #55a868; stroke: #ffffff; stroke-width: 0.527337"/>
    <path d="M 646.35391 208.912758 
C 647.278729 208.912758 648.165795 208.545324 648.81974 207.891378 
C 649.473686 207.237432 649.841121 206.350367 649.841121 205.425548 
C 649.841121 204.500729 649.473686 203.613664 648.81974 202.959718 
C 648.165795 202.305772 647.278729 201.938338 646.35391 201.938338 
C 645.429091 201.938338 644.542026 202.305772 643.88808 202.959718 
C 643.234135 203.613664 642.8667 204.500729 642.8667 205.425548 
C 642.8667 206.350367 643.234135 207.237432 643.88808 207.891378 
C 644.542026 208.545324 645.429091 208.912758 646.35391 208.912758 
z
" clip-path="url(#p693c2742de)" style="fill: #55a868; stroke: #ffffff; stroke-width: 0.527337"/>
    <path d="M 660.462273 218.705156 
C 661.356273 218.705156 662.213779 218.349966 662.845933 217.717812 
C 663.478087 217.085658 663.833277 216.228153 663.833277 215.334152 
C 663.833277 214.440152 663.478087 213.582646 662.845933 212.950492 
C 662.213779 212.318338 661.356273 211.963148 660.462273 211.963148 
C 659.568272 211.963148 658.710767 212.318338 658.078613 212.950492 
C 657.446459 213.582646 657.091269 214.440152 657.091269 215.334152 
C 657.091269 216.228153 657.446459 217.085658 658.078613 217.717812 
C 658.710767 218.349966 659.568272 218.705156 660.462273 218.705156 
z
" clip-path="url(#p693c2742de)" style="fill: #55a868; stroke: #ffffff; stroke-width: 0.527337"/>
    <path d="M 441.621477 156.894809 
C 442.532547 156.894809 443.406425 156.532837 444.050649 155.888613 
C 444.694873 155.244389 445.056845 154.370511 445.056845 153.459441 
C 445.056845 152.548371 444.694873 151.674493 444.050649 151.030269 
C 443.406425 150.386045 442.532547 150.024073 441.621477 150.024073 
C 440.710407 150.024073 439.836529 150.386045 439.192305 151.030269 
C 438.548081 151.674493 438.186109 152.548371 438.186109 153.459441 
C 438.186109 154.370511 438.548081 155.244389 439.192305 155.888613 
C 439.836529 156.532837 440.710407 156.894809 441.621477 156.894809 
z
" clip-path="url(#p693c2742de)" style="fill: #c44e52; stroke: #ffffff; stroke-width: 0.527337"/>
    <path d="M 437.503743 154.361945 
C 438.3973 154.361945 439.25438 154.006931 439.88622 153.37509 
C 440.518061 152.74325 440.873075 151.88617 440.873075 150.992613 
C 440.873075 150.099056 440.518061 149.241976 439.88622 148.610136 
C 439.25438 147.978296 438.3973 147.623282 437.503743 147.623282 
C 436.610186 147.623282 435.753106 147.978296 435.121266 148.610136 
C 434.489426 149.241976 434.134412 150.099056 434.134412 150.992613 
C 434.134412 151.88617 434.489426 152.74325 435.121266 153.37509 
C 435.753106 154.006931 436.610186 154.361945 437.503743 154.361945 
z
" clip-path="url(#p693c2742de)" style="fill: #c44e52; stroke: #ffffff; stroke-width: 0.527337"/>
    <path d="M 438.177512 154.892948 
C 439.160077 154.892948 440.102531 154.502571 440.79731 153.807792 
C 441.492088 153.113014 441.882465 152.17056 441.882465 151.187995 
C 441.882465 150.20543 441.492088 149.262976 440.79731 148.568197 
C 440.102531 147.873419 439.160077 147.483042 438.177512 147.483042 
C 437.194947 147.483042 436.252493 147.873419 435.557715 148.568197 
C 434.862936 149.262976 434.472559 150.20543 434.472559 151.187995 
C 434.472559 152.17056 434.862936 153.113014 435.557715 153.807792 
C 436.252493 154.502571 437.194947 154.892948 438.177512 154.892948 
z
" clip-path="url(#p693c2742de)" style="fill: #c44e52; stroke: #ffffff; stroke-width: 0.527337"/>
    <path d="M 452.214622 157.774566 
C 453.346347 157.774566 454.431871 157.324927 455.232121 156.524677 
C 456.032371 155.724427 456.48201 154.638902 456.48201 153.507178 
C 456.48201 152.375453 456.032371 151.289929 455.232121 150.489679 
C 454.431871 149.689429 453.346347 149.23979 452.214622 149.23979 
C 451.082898 149.23979 449.997374 149.689429 449.197124 150.489679 
C 448.396874 151.289929 447.947235 152.375453 447.947235 153.507178 
C 447.947235 154.638902 448.396874 155.724427 449.197124 156.524677 
C 449.997374 157.324927 451.082898 157.774566 452.214622 157.774566 
z
" clip-path="url(#p693c2742de)" style="fill: #c44e52; stroke: #ffffff; stroke-width: 0.527337"/>
    <path d="M 457.511947 161.694903 
C 458.409894 161.694903 459.271184 161.338145 459.906129 160.7032 
C 460.541073 160.068256 460.897831 159.206966 460.897831 158.309019 
C 460.897831 157.411072 460.541073 156.549781 459.906129 155.914837 
C 459.271184 155.279892 458.409894 154.923134 457.511947 154.923134 
C 456.614 154.923134 455.752709 155.279892 455.117765 155.914837 
C 454.48282 156.549781 454.126062 157.411072 454.126062 158.309019 
C 454.126062 159.206966 454.48282 160.068256 455.117765 160.7032 
C 455.752709 161.338145 456.614 161.694903 457.511947 161.694903 
z
" clip-path="url(#p693c2742de)" style="fill: #c44e52; stroke: #ffffff; stroke-width: 0.527337"/>
    <path d="M 469.594293 168.376102 
C 470.495466 168.376102 471.359851 168.018062 471.997077 167.380836 
C 472.634303 166.743611 472.992343 165.879226 472.992343 164.978052 
C 472.992343 164.076879 472.634303 163.212493 471.997077 162.575268 
C 471.359851 161.938042 470.495466 161.580002 469.594293 161.580002 
C 468.693119 161.580002 467.828734 161.938042 467.191508 162.575268 
C 466.554283 163.212493 466.196243 164.076879 466.196243 164.978052 
C 466.196243 165.879226 466.554283 166.743611 467.191508 167.380836 
C 467.828734 168.018062 468.693119 168.376102 469.594293 168.376102 
z
" clip-path="url(#p693c2742de)" style="fill: #c44e52; stroke: #ffffff; stroke-width: 0.527337"/>
    <path d="M 479.621188 168.717519 
C 480.516208 168.717519 481.374691 168.361924 482.007565 167.729049 
C 482.64044 167.096175 482.996035 166.237692 482.996035 165.342673 
C 482.996035 164.447653 482.64044 163.58917 482.007565 162.956296 
C 481.374691 162.323421 480.516208 161.967826 479.621188 161.967826 
C 478.726169 161.967826 477.867686 162.323421 477.234812 162.956296 
C 476.601937 163.58917 476.246342 164.447653 476.246342 165.342673 
C 476.246342 166.237692 476.601937 167.096175 477.234812 167.729049 
C 477.867686 168.361924 478.726169 168.717519 479.621188 168.717519 
z
" clip-path="url(#p693c2742de)" style="fill: #c44e52; stroke: #ffffff; stroke-width: 0.527337"/>
    <path d="M 484.229817 171.905329 
C 485.172953 171.905329 486.077588 171.530617 486.744486 170.863719 
C 487.411384 170.196821 487.786096 169.292186 487.786096 168.34905 
C 487.786096 167.405914 487.411384 166.501279 486.744486 165.834381 
C 486.077588 165.167483 485.172953 164.792771 484.229817 164.792771 
C 483.28668 164.792771 482.382046 165.167483 481.715148 165.834381 
C 481.04825 166.501279 480.673538 167.405914 480.673538 168.34905 
C 480.673538 169.292186 481.04825 170.196821 481.715148 170.863719 
C 482.382046 171.530617 483.28668 171.905329 484.229817 171.905329 
z
" clip-path="url(#p693c2742de)" style="fill: #c44e52; stroke: #ffffff; stroke-width: 0.527337"/>
    <path d="M 486.882565 181.216676 
C 487.799798 181.216676 488.679588 180.852255 489.32817 180.203673 
C 489.976752 179.555091 490.341172 178.675302 490.341172 177.758069 
C 490.341172 176.840835 489.976752 175.961046 489.32817 175.312464 
C 488.679588 174.663882 487.799798 174.299461 486.882565 174.299461 
C 485.965332 174.299461 485.085542 174.663882 484.43696 175.312464 
C 483.788378 175.961046 483.423958 176.840835 483.423958 177.758069 
C 483.423958 178.675302 483.788378 179.555091 484.43696 180.203673 
C 485.085542 180.852255 485.965332 181.216676 486.882565 181.216676 
z
" clip-path="url(#p693c2742de)" style="fill: #c44e52; stroke: #ffffff; stroke-width: 0.527337"/>
    <path d="M 497.661658 182.041741 
C 498.556511 182.041741 499.414834 181.686212 500.047591 181.053455 
C 500.680348 180.420698 501.035877 179.562375 501.035877 178.667522 
C 501.035877 177.772668 500.680348 176.914345 500.047591 176.281588 
C 499.414834 175.648831 498.556511 175.293302 497.661658 175.293302 
C 496.766805 175.293302 495.908482 175.648831 495.275725 176.281588 
C 494.642968 176.914345 494.287439 177.772668 494.287439 178.667522 
C 494.287439 179.562375 494.642968 180.420698 495.275725 181.053455 
C 495.908482 181.686212 496.766805 182.041741 497.661658 182.041741 
z
" clip-path="url(#p693c2742de)" style="fill: #c44e52; stroke: #ffffff; stroke-width: 0.527337"/>
    <path d="M 100.607727 101.931392 
C 102.295469 101.931392 103.914313 101.260845 105.107727 100.067431 
C 106.301141 98.874017 106.971688 97.255173 106.971688 95.567431 
C 106.971688 93.879688 106.301141 92.260845 105.107727 91.067431 
C 103.914313 89.874017 102.295469 89.20347 100.607727 89.20347 
C 98.919985 89.20347 97.301141 89.874017 96.107727 91.067431 
C 94.914313 92.260845 94.243766 93.879688 94.243766 95.567431 
C 94.243766 97.255173 94.914313 98.874017 96.107727 100.067431 
C 97.301141 101.260845 98.919985 101.931392 100.607727 101.931392 
z
" clip-path="url(#p693c2742de)" style="fill: #937860; stroke: #ffffff; stroke-width: 0.527337"/>
    <path d="M 144.759447 102.22771 
C 146.387585 102.22771 147.949257 101.580844 149.100525 100.429576 
C 150.251792 99.278309 150.898658 97.716636 150.898658 96.088499 
C 150.898658 94.460361 150.251792 92.898688 149.100525 91.747421 
C 147.949257 90.596154 146.387585 89.949288 144.759447 89.949288 
C 143.131309 89.949288 141.569636 90.596154 140.418369 91.747421 
C 139.267102 92.898688 138.620236 94.460361 138.620236 96.088499 
C 138.620236 97.716636 139.267102 99.278309 140.418369 100.429576 
C 141.569636 101.580844 143.131309 102.22771 144.759447 102.22771 
z
" clip-path="url(#p693c2742de)" style="fill: #937860; stroke: #ffffff; stroke-width: 0.527337"/>
    <path d="M 188.250643 102.443407 
C 189.850643 102.443407 191.385326 101.807721 192.516696 100.67635 
C 193.648066 99.54498 194.283753 98.010297 194.283753 96.410297 
C 194.283753 94.810298 193.648066 93.275615 192.516696 92.144245 
C 191.385326 91.012874 189.850643 90.377188 188.250643 90.377188 
C 186.650644 90.377188 185.115961 91.012874 183.984591 92.144245 
C 182.85322 93.275615 182.217534 94.810298 182.217534 96.410297 
C 182.217534 98.010297 182.85322 99.54498 183.984591 100.67635 
C 185.115961 101.807721 186.650644 102.443407 188.250643 102.443407 
z
" clip-path="url(#p693c2742de)" style="fill: #937860; stroke: #ffffff; stroke-width: 0.527337"/>
    <path d="M 293.619949 102.51794 
C 295.192107 102.51794 296.700085 101.893315 297.811768 100.781632 
C 298.923451 99.669948 299.548076 98.161971 299.548076 96.589813 
C 299.548076 95.017655 298.923451 93.509678 297.811768 92.397995 
C 296.700085 91.286311 295.192107 90.661686 293.619949 90.661686 
C 292.047792 90.661686 290.539814 91.286311 289.428131 92.397995 
C 288.316448 93.509678 287.691823 95.017655 287.691823 96.589813 
C 287.691823 98.161971 288.316448 99.669948 289.428131 100.781632 
C 290.539814 101.893315 292.047792 102.51794 293.619949 102.51794 
z
" clip-path="url(#p693c2742de)" style="fill: #937860; stroke: #ffffff; stroke-width: 0.527337"/>
    <path d="M 378.442209 102.510891 
C 379.742689 102.510891 380.990079 101.994205 381.909657 101.074627 
C 382.829235 100.155049 383.345921 98.907659 383.345921 97.607179 
C 383.345921 96.3067 382.829235 95.059309 381.909657 94.139731 
C 380.990079 93.220153 379.742689 92.703467 378.442209 92.703467 
C 377.14173 92.703467 375.894339 93.220153 374.974761 94.139731 
C 374.055184 95.059309 373.538498 96.3067 373.538498 97.607179 
C 373.538498 98.907659 374.055184 100.155049 374.974761 101.074627 
C 375.894339 101.994205 377.14173 102.510891 378.442209 102.510891 
z
" clip-path="url(#p693c2742de)" style="fill: #937860; stroke: #ffffff; stroke-width: 0.527337"/>
    <path d="M 431.96046 103.479523 
C 432.995814 103.479523 433.988902 103.068173 434.721008 102.336067 
C 435.453114 101.603961 435.864465 100.610872 435.864465 99.575518 
C 435.864465 98.540164 435.453114 97.547076 434.721008 96.81497 
C 433.988902 96.082864 432.995814 95.671513 431.96046 95.671513 
C 430.925106 95.671513 429.932017 96.082864 429.199911 96.81497 
C 428.467805 97.547076 428.056455 98.540164 428.056455 99.575518 
C 428.056455 100.610872 428.467805 101.603961 429.199911 102.336067 
C 429.932017 103.068173 430.925106 103.479523 431.96046 103.479523 
z
" clip-path="url(#p693c2742de)" style="fill: #937860; stroke: #ffffff; stroke-width: 0.527337"/>
    <path d="M 433.43356 105.565097 
C 434.522224 105.565097 435.566446 105.132566 436.336248 104.362764 
C 437.10605 103.592963 437.53858 102.548741 437.53858 101.460076 
C 437.53858 100.371412 437.10605 99.32719 436.336248 98.557388 
C 435.566446 97.787587 434.522224 97.355056 433.43356 97.355056 
C 432.344895 97.355056 431.300674 97.787587 430.530872 98.557388 
C 429.76107 99.32719 429.328539 100.371412 429.328539 101.460076 
C 429.328539 102.548741 429.76107 103.592963 430.530872 104.362764 
C 431.300674 105.132566 432.344895 105.565097 433.43356 105.565097 
z
" clip-path="url(#p693c2742de)" style="fill: #937860; stroke: #ffffff; stroke-width: 0.527337"/>
    <path d="M 462.548037 119.370452 
C 463.480398 119.370452 464.374697 119.000022 465.033976 118.340743 
C 465.693254 117.681464 466.063685 116.787165 466.063685 115.854805 
C 466.063685 114.922444 465.693254 114.028145 465.033976 113.368867 
C 464.374697 112.709588 463.480398 112.339157 462.548037 112.339157 
C 461.615677 112.339157 460.721378 112.709588 460.062099 113.368867 
C 459.402821 114.028145 459.03239 114.922444 459.03239 115.854805 
C 459.03239 116.787165 459.402821 117.681464 460.062099 118.340743 
C 460.721378 119.000022 461.615677 119.370452 462.548037 119.370452 
z
" clip-path="url(#p693c2742de)" style="fill: #937860; stroke: #ffffff; stroke-width: 0.527337"/>
    <path d="M 511.496801 121.752711 
C 512.451862 121.752711 513.367935 121.373261 514.043265 120.697931 
C 514.718596 120.022601 515.098045 119.106528 515.098045 118.151467 
C 515.098045 117.196406 514.718596 116.280334 514.043265 115.605004 
C 513.367935 114.929673 512.451862 114.550224 511.496801 114.550224 
C 510.54174 114.550224 509.625668 114.929673 508.950338 115.605004 
C 508.275007 116.280334 507.895558 117.196406 507.895558 118.151467 
C 507.895558 119.106528 508.275007 120.022601 508.950338 120.697931 
C 509.625668 121.373261 510.54174 121.752711 511.496801 121.752711 
z
" clip-path="url(#p693c2742de)" style="fill: #937860; stroke: #ffffff; stroke-width: 0.527337"/>
    <path d="M 589.135812 121.581784 
C 590.035504 121.581784 590.898467 121.224333 591.534645 120.588155 
C 592.170823 119.951977 592.528274 119.089013 592.528274 118.189322 
C 592.528274 117.28963 592.170823 116.426667 591.534645 115.790489 
C 590.898467 115.154311 590.035504 114.79686 589.135812 114.79686 
C 588.236121 114.79686 587.373157 115.154311 586.736979 115.790489 
C 586.100802 116.426667 585.74335 117.28963 585.74335 118.189322 
C 585.74335 119.089013 586.100802 119.951977 586.736979 120.588155 
C 587.373157 121.224333 588.236121 121.581784 589.135812 121.581784 
z
" clip-path="url(#p693c2742de)" style="fill: #937860; stroke: #ffffff; stroke-width: 0.527337"/>
    <path d="M 607.417167 130.837554 
C 608.346326 130.837554 609.237555 130.468395 609.894571 129.81138 
C 610.551586 129.154365 610.920745 128.263136 610.920745 127.333976 
C 610.920745 126.404816 610.551586 125.513587 609.894571 124.856572 
C 609.237555 124.199556 608.346326 123.830397 607.417167 123.830397 
C 606.488007 123.830397 605.596778 124.199556 604.939762 124.856572 
C 604.282747 125.513587 603.913588 126.404816 603.913588 127.333976 
C 603.913588 128.263136 604.282747 129.154365 604.939762 129.81138 
C 605.596778 130.468395 606.488007 130.837554 607.417167 130.837554 
z
" clip-path="url(#p693c2742de)" style="fill: #937860; stroke: #ffffff; stroke-width: 0.527337"/>
    <path d="M 632.45379 138.656953 
C 633.36748 138.656953 634.243871 138.29394 634.889947 137.647863 
C 635.536024 137.001787 635.899037 136.125396 635.899037 135.211706 
C 635.899037 134.298016 635.536024 133.421625 634.889947 132.775549 
C 634.243871 132.129472 633.36748 131.766459 632.45379 131.766459 
C 631.5401 131.766459 630.663709 132.129472 630.017633 132.775549 
C 629.371556 133.421625 629.008543 134.298016 629.008543 135.211706 
C 629.008543 136.125396 629.371556 137.001787 630.017633 137.647863 
C 630.663709 138.29394 631.5401 138.656953 632.45379 138.656953 
z
" clip-path="url(#p693c2742de)" style="fill: #937860; stroke: #ffffff; stroke-width: 0.527337"/>
    <path d="M 640.771171 145.159468 
C 641.6811 145.159468 642.553884 144.797949 643.197301 144.154532 
C 643.840719 143.511114 644.202237 142.638331 644.202237 141.728401 
C 644.202237 140.818472 643.840719 139.945688 643.197301 139.30227 
C 642.553884 138.658853 641.6811 138.297334 640.771171 138.297334 
C 639.861241 138.297334 638.988457 138.658853 638.34504 139.30227 
C 637.701623 139.945688 637.340104 140.818472 637.340104 141.728401 
C 637.340104 142.638331 637.701623 143.511114 638.34504 144.154532 
C 638.988457 144.797949 639.861241 145.159468 640.771171 145.159468 
z
" clip-path="url(#p693c2742de)" style="fill: #937860; stroke: #ffffff; stroke-width: 0.527337"/>
   </g>
   <g id="line2d_11"/>
   <g id="line2d_12"/>
   <g id="line2d_13"/>
   <g id="line2d_14"/>
   <g id="line2d_15"/>
   <g id="line2d_16"/>
   <g id="line2d_17"/>
   <g id="line2d_18"/>
   <g id="line2d_19"/>
   <g id="line2d_20"/>
   <g id="line2d_21"/>
   <g id="line2d_22"/>
   <g id="line2d_23"/>
   <g id="patch_3">
    <path d="M 72.615 697.675612 
L 72.615 66.895612 
" style="fill: none; stroke: #ffffff; stroke-width: 1.875; stroke-linejoin: miter; stroke-linecap: square"/>
   </g>
   <g id="patch_4">
    <path d="M 72.615 697.675612 
L 688.455 697.675612 
" style="fill: none; stroke: #ffffff; stroke-width: 1.875; stroke-linejoin: miter; stroke-linecap: square"/>
   </g>
   <g id="legend_1">
    <g id="patch_5">
     <path d="M 75.915 60.587813 
L 670.440938 60.587813 
Q 673.740938 60.587813 673.740938 57.287813 
L 673.740938 10.5 
Q 673.740938 7.2 670.440938 7.2 
L 75.915 7.2 
Q 72.615 7.2 72.615 10.5 
L 72.615 57.287813 
Q 72.615 60.587813 75.915 60.587813 
z
" style="fill: #eaeaf2; opacity: 0.8; stroke: #cccccc; stroke-width: 1.5; stroke-linejoin: miter"/>
    </g>
    <g id="line2d_24">
     <defs>
      <path id="m6d642fd366" d="M 0 4.5 
C 1.193414 4.5 2.338109 4.025852 3.181981 3.181981 
C 4.025852 2.338109 4.5 1.193414 4.5 0 
C 4.5 -1.193414 4.025852 -2.338109 3.181981 -3.181981 
C 2.338109 -4.025852 1.193414 -4.5 0 -4.5 
C -1.193414 -4.5 -2.338109 -4.025852 -3.181981 -3.181981 
C -4.025852 -2.338109 -4.5 -1.193414 -4.5 0 
C -4.5 1.193414 -4.025852 2.338109 -3.181981 3.181981 
C -2.338109 4.025852 -1.193414 4.5 0 4.5 
z
"/>
     </defs>
     <g>
      <use xlink:href="#m6d642fd366" x="95.715" y="20.562422" style="fill: #4c72b0"/>
     </g>
    </g>
    <g id="text_13">
     <!-- A-critic-MO-hyper -->
     <g style="fill: #262626" transform="translate(125.415 26.337422) scale(0.165 -0.165)">
      <defs>
       <path id="DejaVuSans-2d" d="M 313 2009 
L 1997 2009 
L 1997 1497 
L 313 1497 
L 313 2009 
z
" transform="scale(0.015625)"/>
       <path id="DejaVuSans-74" d="M 1172 4494 
L 1172 3500 
L 2356 3500 
L 2356 3053 
L 1172 3053 
L 1172 1153 
Q 1172 725 1289 603 
Q 1406 481 1766 481 
L 2356 481 
L 2356 0 
L 1766 0 
Q 1100 0 847 248 
Q 594 497 594 1153 
L 594 3053 
L 172 3053 
L 172 3500 
L 594 3500 
L 594 4494 
L 1172 4494 
z
" transform="scale(0.015625)"/>
       <path id="DejaVuSans-4d" d="M 628 4666 
L 1569 4666 
L 2759 1491 
L 3956 4666 
L 4897 4666 
L 4897 0 
L 4281 0 
L 4281 4097 
L 3078 897 
L 2444 897 
L 1241 4097 
L 1241 0 
L 628 0 
L 628 4666 
z
" transform="scale(0.015625)"/>
       <path id="DejaVuSans-4f" d="M 2522 4238 
Q 1834 4238 1429 3725 
Q 1025 3213 1025 2328 
Q 1025 1447 1429 934 
Q 1834 422 2522 422 
Q 3209 422 3611 934 
Q 4013 1447 4013 2328 
Q 4013 3213 3611 3725 
Q 3209 4238 2522 4238 
z
M 2522 4750 
Q 3503 4750 4090 4092 
Q 4678 3434 4678 2328 
Q 4678 1225 4090 567 
Q 3503 -91 2522 -91 
Q 1538 -91 948 565 
Q 359 1222 359 2328 
Q 359 3434 948 4092 
Q 1538 4750 2522 4750 
z
" transform="scale(0.015625)"/>
       <path id="DejaVuSans-68" d="M 3513 2113 
L 3513 0 
L 2938 0 
L 2938 2094 
Q 2938 2591 2744 2837 
Q 2550 3084 2163 3084 
Q 1697 3084 1428 2787 
Q 1159 2491 1159 1978 
L 1159 0 
L 581 0 
L 581 4863 
L 1159 4863 
L 1159 2956 
Q 1366 3272 1645 3428 
Q 1925 3584 2291 3584 
Q 2894 3584 3203 3211 
Q 3513 2838 3513 2113 
z
" transform="scale(0.015625)"/>
      </defs>
      <use xlink:href="#DejaVuSans-41"/>
      <use xlink:href="#DejaVuSans-2d" x="66.158203"/>
      <use xlink:href="#DejaVuSans-63" x="102.242188"/>
      <use xlink:href="#DejaVuSans-72" x="157.222656"/>
      <use xlink:href="#DejaVuSans-69" x="198.335938"/>
      <use xlink:href="#DejaVuSans-74" x="226.119141"/>
      <use xlink:href="#DejaVuSans-69" x="265.328125"/>
      <use xlink:href="#DejaVuSans-63" x="293.111328"/>
      <use xlink:href="#DejaVuSans-2d" x="348.091797"/>
      <use xlink:href="#DejaVuSans-4d" x="384.175781"/>
      <use xlink:href="#DejaVuSans-4f" x="470.455078"/>
      <use xlink:href="#DejaVuSans-2d" x="551.916016"/>
      <use xlink:href="#DejaVuSans-68" x="588"/>
      <use xlink:href="#DejaVuSans-79" x="651.378906"/>
      <use xlink:href="#DejaVuSans-70" x="710.558594"/>
      <use xlink:href="#DejaVuSans-65" x="774.035156"/>
      <use xlink:href="#DejaVuSans-72" x="835.558594"/>
     </g>
    </g>
    <g id="line2d_25">
     <defs>
      <path id="mdd0708848a" d="M 0 4.5 
C 1.193414 4.5 2.338109 4.025852 3.181981 3.181981 
C 4.025852 2.338109 4.5 1.193414 4.5 0 
C 4.5 -1.193414 4.025852 -2.338109 3.181981 -3.181981 
C 2.338109 -4.025852 1.193414 -4.5 0 -4.5 
C -1.193414 -4.5 -2.338109 -4.025852 -3.181981 -3.181981 
C -4.025852 -2.338109 -4.5 -1.193414 -4.5 0 
C -4.5 1.193414 -4.025852 2.338109 -3.181981 3.181981 
C -2.338109 4.025852 -1.193414 4.5 0 4.5 
z
"/>
     </defs>
     <g>
      <use xlink:href="#mdd0708848a" x="95.715" y="44.781328" style="fill: #dd8452"/>
     </g>
    </g>
    <g id="text_14">
     <!-- SAP-critic-MO-hyper -->
     <g style="fill: #262626" transform="translate(125.415 50.556328) scale(0.165 -0.165)">
      <defs>
       <path id="DejaVuSans-53" d="M 3425 4513 
L 3425 3897 
Q 3066 4069 2747 4153 
Q 2428 4238 2131 4238 
Q 1616 4238 1336 4038 
Q 1056 3838 1056 3469 
Q 1056 3159 1242 3001 
Q 1428 2844 1947 2747 
L 2328 2669 
Q 3034 2534 3370 2195 
Q 3706 1856 3706 1288 
Q 3706 609 3251 259 
Q 2797 -91 1919 -91 
Q 1588 -91 1214 -16 
Q 841 59 441 206 
L 441 856 
Q 825 641 1194 531 
Q 1563 422 1919 422 
Q 2459 422 2753 634 
Q 3047 847 3047 1241 
Q 3047 1584 2836 1778 
Q 2625 1972 2144 2069 
L 1759 2144 
Q 1053 2284 737 2584 
Q 422 2884 422 3419 
Q 422 4038 858 4394 
Q 1294 4750 2059 4750 
Q 2388 4750 2728 4690 
Q 3069 4631 3425 4513 
z
" transform="scale(0.015625)"/>
       <path id="DejaVuSans-50" d="M 1259 4147 
L 1259 2394 
L 2053 2394 
Q 2494 2394 2734 2622 
Q 2975 2850 2975 3272 
Q 2975 3691 2734 3919 
Q 2494 4147 2053 4147 
L 1259 4147 
z
M 628 4666 
L 2053 4666 
Q 2838 4666 3239 4311 
Q 3641 3956 3641 3272 
Q 3641 2581 3239 2228 
Q 2838 1875 2053 1875 
L 1259 1875 
L 1259 0 
L 628 0 
L 628 4666 
z
" transform="scale(0.015625)"/>
      </defs>
      <use xlink:href="#DejaVuSans-53"/>
      <use xlink:href="#DejaVuSans-41" x="65.351562"/>
      <use xlink:href="#DejaVuSans-50" x="133.759766"/>
      <use xlink:href="#DejaVuSans-2d" x="191.8125"/>
      <use xlink:href="#DejaVuSans-63" x="227.896484"/>
      <use xlink:href="#DejaVuSans-72" x="282.876953"/>
      <use xlink:href="#DejaVuSans-69" x="323.990234"/>
      <use xlink:href="#DejaVuSans-74" x="351.773438"/>
      <use xlink:href="#DejaVuSans-69" x="390.982422"/>
      <use xlink:href="#DejaVuSans-63" x="418.765625"/>
      <use xlink:href="#DejaVuSans-2d" x="473.746094"/>
      <use xlink:href="#DejaVuSans-4d" x="509.830078"/>
      <use xlink:href="#DejaVuSans-4f" x="596.109375"/>
      <use xlink:href="#DejaVuSans-2d" x="677.570312"/>
      <use xlink:href="#DejaVuSans-68" x="713.654297"/>
      <use xlink:href="#DejaVuSans-79" x="777.033203"/>
      <use xlink:href="#DejaVuSans-70" x="836.212891"/>
      <use xlink:href="#DejaVuSans-65" x="899.689453"/>
      <use xlink:href="#DejaVuSans-72" x="961.212891"/>
     </g>
    </g>
    <g id="line2d_26">
     <defs>
      <path id="m55576dd888" d="M 0 4.5 
C 1.193414 4.5 2.338109 4.025852 3.181981 3.181981 
C 4.025852 2.338109 4.5 1.193414 4.5 0 
C 4.5 -1.193414 4.025852 -2.338109 3.181981 -3.181981 
C 2.338109 -4.025852 1.193414 -4.5 0 -4.5 
C -1.193414 -4.5 -2.338109 -4.025852 -3.181981 -3.181981 
C -4.025852 -2.338109 -4.5 -1.193414 -4.5 0 
C -4.5 1.193414 -4.025852 2.338109 -3.181981 3.181981 
C -2.338109 4.025852 -1.193414 4.5 0 4.5 
z
"/>
     </defs>
     <g>
      <use xlink:href="#m55576dd888" x="340.299141" y="20.562422" style="fill: #55a868"/>
     </g>
    </g>
    <g id="text_15">
     <!-- GPI-LS -->
     <g style="fill: #262626" transform="translate(369.999141 26.337422) scale(0.165 -0.165)">
      <defs>
       <path id="DejaVuSans-47" d="M 3809 666 
L 3809 1919 
L 2778 1919 
L 2778 2438 
L 4434 2438 
L 4434 434 
Q 4069 175 3628 42 
Q 3188 -91 2688 -91 
Q 1594 -91 976 548 
Q 359 1188 359 2328 
Q 359 3472 976 4111 
Q 1594 4750 2688 4750 
Q 3144 4750 3555 4637 
Q 3966 4525 4313 4306 
L 4313 3634 
Q 3963 3931 3569 4081 
Q 3175 4231 2741 4231 
Q 1884 4231 1454 3753 
Q 1025 3275 1025 2328 
Q 1025 1384 1454 906 
Q 1884 428 2741 428 
Q 3075 428 3337 486 
Q 3600 544 3809 666 
z
" transform="scale(0.015625)"/>
       <path id="DejaVuSans-49" d="M 628 4666 
L 1259 4666 
L 1259 0 
L 628 0 
L 628 4666 
z
" transform="scale(0.015625)"/>
       <path id="DejaVuSans-4c" d="M 628 4666 
L 1259 4666 
L 1259 531 
L 3531 531 
L 3531 0 
L 628 0 
L 628 4666 
z
" transform="scale(0.015625)"/>
      </defs>
      <use xlink:href="#DejaVuSans-47"/>
      <use xlink:href="#DejaVuSans-50" x="77.490234"/>
      <use xlink:href="#DejaVuSans-49" x="137.792969"/>
      <use xlink:href="#DejaVuSans-2d" x="167.285156"/>
      <use xlink:href="#DejaVuSans-4c" x="203.369141"/>
      <use xlink:href="#DejaVuSans-53" x="259.082031"/>
     </g>
    </g>
    <g id="line2d_27">
     <defs>
      <path id="m64328b6581" d="M 0 4.5 
C 1.193414 4.5 2.338109 4.025852 3.181981 3.181981 
C 4.025852 2.338109 4.5 1.193414 4.5 0 
C 4.5 -1.193414 4.025852 -2.338109 3.181981 -3.181981 
C 2.338109 -4.025852 1.193414 -4.5 0 -4.5 
C -1.193414 -4.5 -2.338109 -4.025852 -3.181981 -3.181981 
C -4.025852 -2.338109 -4.5 -1.193414 -4.5 0 
C -4.5 1.193414 -4.025852 2.338109 -3.181981 3.181981 
C -2.338109 4.025852 -1.193414 4.5 0 4.5 
z
"/>
     </defs>
     <g>
      <use xlink:href="#m64328b6581" x="340.299141" y="44.781328" style="fill: #c44e52"/>
     </g>
    </g>
    <g id="text_16">
     <!-- CAPQL -->
     <g style="fill: #262626" transform="translate(369.999141 50.556328) scale(0.165 -0.165)">
      <defs>
       <path id="DejaVuSans-43" d="M 4122 4306 
L 4122 3641 
Q 3803 3938 3442 4084 
Q 3081 4231 2675 4231 
Q 1875 4231 1450 3742 
Q 1025 3253 1025 2328 
Q 1025 1406 1450 917 
Q 1875 428 2675 428 
Q 3081 428 3442 575 
Q 3803 722 4122 1019 
L 4122 359 
Q 3791 134 3420 21 
Q 3050 -91 2638 -91 
Q 1578 -91 968 557 
Q 359 1206 359 2328 
Q 359 3453 968 4101 
Q 1578 4750 2638 4750 
Q 3056 4750 3426 4639 
Q 3797 4528 4122 4306 
z
" transform="scale(0.015625)"/>
       <path id="DejaVuSans-51" d="M 2522 4238 
Q 1834 4238 1429 3725 
Q 1025 3213 1025 2328 
Q 1025 1447 1429 934 
Q 1834 422 2522 422 
Q 3209 422 3611 934 
Q 4013 1447 4013 2328 
Q 4013 3213 3611 3725 
Q 3209 4238 2522 4238 
z
M 3406 84 
L 4238 -825 
L 3475 -825 
L 2784 -78 
Q 2681 -84 2626 -87 
Q 2572 -91 2522 -91 
Q 1538 -91 948 567 
Q 359 1225 359 2328 
Q 359 3434 948 4092 
Q 1538 4750 2522 4750 
Q 3503 4750 4090 4092 
Q 4678 3434 4678 2328 
Q 4678 1516 4351 937 
Q 4025 359 3406 84 
z
" transform="scale(0.015625)"/>
      </defs>
      <use xlink:href="#DejaVuSans-43"/>
      <use xlink:href="#DejaVuSans-41" x="69.824219"/>
      <use xlink:href="#DejaVuSans-50" x="138.232422"/>
      <use xlink:href="#DejaVuSans-51" x="198.535156"/>
      <use xlink:href="#DejaVuSans-4c" x="277.246094"/>
     </g>
    </g>
    <g id="line2d_28">
     <defs>
      <path id="m901de76db8" d="M 0 4.5 
C 1.193414 4.5 2.338109 4.025852 3.181981 3.181981 
C 4.025852 2.338109 4.5 1.193414 4.5 0 
C 4.5 -1.193414 4.025852 -2.338109 3.181981 -3.181981 
C 2.338109 -4.025852 1.193414 -4.5 0 -4.5 
C -1.193414 -4.5 -2.338109 -4.025852 -3.181981 -3.181981 
C -4.025852 -2.338109 -4.5 -1.193414 -4.5 0 
C -4.5 1.193414 -4.025852 2.338109 -3.181981 3.181981 
C -2.338109 4.025852 -1.193414 4.5 0 4.5 
z
"/>
     </defs>
     <g>
      <use xlink:href="#m901de76db8" x="474.438984" y="20.562422" style="fill: #8172b3"/>
     </g>
    </g>
    <g id="text_17">
     <!-- CAPQL Large -->
     <g style="fill: #262626" transform="translate(504.138984 26.337422) scale(0.165 -0.165)">
      <use xlink:href="#DejaVuSans-43"/>
      <use xlink:href="#DejaVuSans-41" x="69.824219"/>
      <use xlink:href="#DejaVuSans-50" x="138.232422"/>
      <use xlink:href="#DejaVuSans-51" x="198.535156"/>
      <use xlink:href="#DejaVuSans-4c" x="277.246094"/>
      <use xlink:href="#DejaVuSans-20" x="332.958984"/>
      <use xlink:href="#DejaVuSans-4c" x="364.746094"/>
      <use xlink:href="#DejaVuSans-61" x="420.458984"/>
      <use xlink:href="#DejaVuSans-72" x="481.738281"/>
      <use xlink:href="#DejaVuSans-67" x="521.101562"/>
      <use xlink:href="#DejaVuSans-65" x="584.578125"/>
     </g>
    </g>
    <g id="line2d_29">
     <defs>
      <path id="m245ca436ae" d="M 0 4.5 
C 1.193414 4.5 2.338109 4.025852 3.181981 3.181981 
C 4.025852 2.338109 4.5 1.193414 4.5 0 
C 4.5 -1.193414 4.025852 -2.338109 3.181981 -3.181981 
C 2.338109 -4.025852 1.193414 -4.5 0 -4.5 
C -1.193414 -4.5 -2.338109 -4.025852 -3.181981 -3.181981 
C -4.025852 -2.338109 -4.5 -1.193414 -4.5 0 
C -4.5 1.193414 -4.025852 2.338109 -3.181981 3.181981 
C -2.338109 4.025852 -1.193414 4.5 0 4.5 
z
"/>
     </defs>
     <g>
      <use xlink:href="#m245ca436ae" x="474.438984" y="44.781328" style="fill: #937860"/>
     </g>
    </g>
    <g id="text_18">
     <!-- PGMORL (9M steps) -->
     <g style="fill: #262626" transform="translate(504.138984 50.556328) scale(0.165 -0.165)">
      <defs>
       <path id="DejaVuSans-52" d="M 2841 2188 
Q 3044 2119 3236 1894 
Q 3428 1669 3622 1275 
L 4263 0 
L 3584 0 
L 2988 1197 
Q 2756 1666 2539 1819 
Q 2322 1972 1947 1972 
L 1259 1972 
L 1259 0 
L 628 0 
L 628 4666 
L 2053 4666 
Q 2853 4666 3247 4331 
Q 3641 3997 3641 3322 
Q 3641 2881 3436 2590 
Q 3231 2300 2841 2188 
z
M 1259 4147 
L 1259 2491 
L 2053 2491 
Q 2509 2491 2742 2702 
Q 2975 2913 2975 3322 
Q 2975 3731 2742 3939 
Q 2509 4147 2053 4147 
L 1259 4147 
z
" transform="scale(0.015625)"/>
       <path id="DejaVuSans-28" d="M 1984 4856 
Q 1566 4138 1362 3434 
Q 1159 2731 1159 2009 
Q 1159 1288 1364 580 
Q 1569 -128 1984 -844 
L 1484 -844 
Q 1016 -109 783 600 
Q 550 1309 550 2009 
Q 550 2706 781 3412 
Q 1013 4119 1484 4856 
L 1984 4856 
z
" transform="scale(0.015625)"/>
       <path id="DejaVuSans-39" d="M 703 97 
L 703 672 
Q 941 559 1184 500 
Q 1428 441 1663 441 
Q 2288 441 2617 861 
Q 2947 1281 2994 2138 
Q 2813 1869 2534 1725 
Q 2256 1581 1919 1581 
Q 1219 1581 811 2004 
Q 403 2428 403 3163 
Q 403 3881 828 4315 
Q 1253 4750 1959 4750 
Q 2769 4750 3195 4129 
Q 3622 3509 3622 2328 
Q 3622 1225 3098 567 
Q 2575 -91 1691 -91 
Q 1453 -91 1209 -44 
Q 966 3 703 97 
z
M 1959 2075 
Q 2384 2075 2632 2365 
Q 2881 2656 2881 3163 
Q 2881 3666 2632 3958 
Q 2384 4250 1959 4250 
Q 1534 4250 1286 3958 
Q 1038 3666 1038 3163 
Q 1038 2656 1286 2365 
Q 1534 2075 1959 2075 
z
" transform="scale(0.015625)"/>
       <path id="DejaVuSans-29" d="M 513 4856 
L 1013 4856 
Q 1481 4119 1714 3412 
Q 1947 2706 1947 2009 
Q 1947 1309 1714 600 
Q 1481 -109 1013 -844 
L 513 -844 
Q 928 -128 1133 580 
Q 1338 1288 1338 2009 
Q 1338 2731 1133 3434 
Q 928 4138 513 4856 
z
" transform="scale(0.015625)"/>
      </defs>
      <use xlink:href="#DejaVuSans-50"/>
      <use xlink:href="#DejaVuSans-47" x="60.302734"/>
      <use xlink:href="#DejaVuSans-4d" x="137.792969"/>
      <use xlink:href="#DejaVuSans-4f" x="224.072266"/>
      <use xlink:href="#DejaVuSans-52" x="302.783203"/>
      <use xlink:href="#DejaVuSans-4c" x="372.265625"/>
      <use xlink:href="#DejaVuSans-20" x="427.978516"/>
      <use xlink:href="#DejaVuSans-28" x="459.765625"/>
      <use xlink:href="#DejaVuSans-39" x="498.779297"/>
      <use xlink:href="#DejaVuSans-4d" x="562.402344"/>
      <use xlink:href="#DejaVuSans-20" x="648.681641"/>
      <use xlink:href="#DejaVuSans-73" x="680.46875"/>
      <use xlink:href="#DejaVuSans-74" x="732.568359"/>
      <use xlink:href="#DejaVuSans-65" x="771.777344"/>
      <use xlink:href="#DejaVuSans-70" x="833.300781"/>
      <use xlink:href="#DejaVuSans-73" x="896.777344"/>
      <use xlink:href="#DejaVuSans-29" x="948.876953"/>
     </g>
    </g>
   </g>
  </g>
 </g>
 <defs>
  <clipPath id="p693c2742de">
   <rect x="72.615" y="66.895613" width="615.84" height="630.78"/>
  </clipPath>
 </defs>
</svg>
