<?xml version="1.0" encoding="utf-8" standalone="no"?>
<!DOCTYPE svg PUBLIC "-//W3C//DTD SVG 1.1//EN"
  "http://www.w3.org/Graphics/SVG/1.1/DTD/svg11.dtd">
<svg xmlns:xlink="http://www.w3.org/1999/xlink" width="465.853125pt" height="282.149531pt" viewBox="0 0 465.853125 282.149531" xmlns="http://www.w3.org/2000/svg" version="1.1">
 <metadata>
  <rdf:RDF xmlns:dc="http://purl.org/dc/elements/1.1/" xmlns:cc="http://creativecommons.org/ns#" xmlns:rdf="http://www.w3.org/1999/02/22-rdf-syntax-ns#">
   <cc:Work>
    <dc:type rdf:resource="http://purl.org/dc/dcmitype/StillImage"/>
    <dc:date>2024-07-17T15:11:29.895781</dc:date>
    <dc:format>image/svg+xml</dc:format>
    <dc:creator>
     <cc:Agent>
      <dc:title>Matplotlib v3.8.4, https://matplotlib.org/</dc:title>
     </cc:Agent>
    </dc:creator>
   </cc:Work>
  </rdf:RDF>
 </metadata>
 <defs>
  <style type="text/css">*{stroke-linejoin: round; stroke-linecap: butt}</style>
 </defs>
 <g id="figure_1">
  <g id="patch_1">
   <path d="M 0 282.149531 
L 465.853125 282.149531 
L 465.853125 0 
L 0 0 
z
" style="fill: #ffffff"/>
  </g>
  <g id="axes_1">
   <g id="patch_2">
    <path d="M 79.213125 228.96 
L 225.151587 228.96 
L 225.151587 7.2 
L 79.213125 7.2 
z
" style="fill: #ffffff"/>
   </g>
   <g id="matplotlib.axis_1">
    <g id="xtick_1">
     <g id="line2d_1">
      <path d="M 99.533352 228.96 
L 99.533352 7.2 
" clip-path="url(#pcabd03850e)" style="fill: none; stroke: #cccccc; stroke-opacity: 0.25; stroke-width: 1.5; stroke-linecap: round"/>
     </g>
     <g id="text_1">
      <!-- 700 -->
      <g style="fill: #262626" transform="translate(83.786164 250.097422) scale(0.165 -0.165)">
       <defs>
        <path id="DejaVuSans-37" d="M 525 4666 
L 3525 4666 
L 3525 4397 
L 1831 0 
L 1172 0 
L 2766 4134 
L 525 4134 
L 525 4666 
z
" transform="scale(0.015625)"/>
        <path id="DejaVuSans-30" d="M 2034 4250 
Q 1547 4250 1301 3770 
Q 1056 3291 1056 2328 
Q 1056 1369 1301 889 
Q 1547 409 2034 409 
Q 2525 409 2770 889 
Q 3016 1369 3016 2328 
Q 3016 3291 2770 3770 
Q 2525 4250 2034 4250 
z
M 2034 4750 
Q 2819 4750 3233 4129 
Q 3647 3509 3647 2328 
Q 3647 1150 3233 529 
Q 2819 -91 2034 -91 
Q 1250 -91 836 529 
Q 422 1150 422 2328 
Q 422 3509 836 4129 
Q 1250 4750 2034 4750 
z
" transform="scale(0.015625)"/>
       </defs>
       <use xlink:href="#DejaVuSans-37"/>
       <use xlink:href="#DejaVuSans-30" x="63.623047"/>
       <use xlink:href="#DejaVuSans-30" x="127.246094"/>
      </g>
     </g>
    </g>
    <g id="xtick_2">
     <g id="line2d_2">
      <path d="M 147.453993 228.96 
L 147.453993 7.2 
" clip-path="url(#pcabd03850e)" style="fill: none; stroke: #cccccc; stroke-opacity: 0.25; stroke-width: 1.5; stroke-linecap: round"/>
     </g>
     <g id="text_2">
      <!-- 1400 -->
      <g style="fill: #262626" transform="translate(126.457743 250.097422) scale(0.165 -0.165)">
       <defs>
        <path id="DejaVuSans-31" d="M 794 531 
L 1825 531 
L 1825 4091 
L 703 3866 
L 703 4441 
L 1819 4666 
L 2450 4666 
L 2450 531 
L 3481 531 
L 3481 0 
L 794 0 
L 794 531 
z
" transform="scale(0.015625)"/>
        <path id="DejaVuSans-34" d="M 2419 4116 
L 825 1625 
L 2419 1625 
L 2419 4116 
z
M 2253 4666 
L 3047 4666 
L 3047 1625 
L 3713 1625 
L 3713 1100 
L 3047 1100 
L 3047 0 
L 2419 0 
L 2419 1100 
L 313 1100 
L 313 1709 
L 2253 4666 
z
" transform="scale(0.015625)"/>
       </defs>
       <use xlink:href="#DejaVuSans-31"/>
       <use xlink:href="#DejaVuSans-34" x="63.623047"/>
       <use xlink:href="#DejaVuSans-30" x="127.246094"/>
       <use xlink:href="#DejaVuSans-30" x="190.869141"/>
      </g>
     </g>
    </g>
    <g id="xtick_3">
     <g id="line2d_3">
      <path d="M 195.374634 228.96 
L 195.374634 7.2 
" clip-path="url(#pcabd03850e)" style="fill: none; stroke: #cccccc; stroke-opacity: 0.25; stroke-width: 1.5; stroke-linecap: round"/>
     </g>
     <g id="text_3">
      <!-- 2100 -->
      <g style="fill: #262626" transform="translate(174.378384 250.097422) scale(0.165 -0.165)">
       <defs>
        <path id="DejaVuSans-32" d="M 1228 531 
L 3431 531 
L 3431 0 
L 469 0 
L 469 531 
Q 828 903 1448 1529 
Q 2069 2156 2228 2338 
Q 2531 2678 2651 2914 
Q 2772 3150 2772 3378 
Q 2772 3750 2511 3984 
Q 2250 4219 1831 4219 
Q 1534 4219 1204 4116 
Q 875 4013 500 3803 
L 500 4441 
Q 881 4594 1212 4672 
Q 1544 4750 1819 4750 
Q 2544 4750 2975 4387 
Q 3406 4025 3406 3419 
Q 3406 3131 3298 2873 
Q 3191 2616 2906 2266 
Q 2828 2175 2409 1742 
Q 1991 1309 1228 531 
z
" transform="scale(0.015625)"/>
       </defs>
       <use xlink:href="#DejaVuSans-32"/>
       <use xlink:href="#DejaVuSans-31" x="63.623047"/>
       <use xlink:href="#DejaVuSans-30" x="127.246094"/>
       <use xlink:href="#DejaVuSans-30" x="190.869141"/>
      </g>
     </g>
    </g>
    <g id="text_4">
     <!-- Speed reward -->
     <g style="fill: #262626" transform="translate(89.938918 271.206094) scale(0.18 -0.18)">
      <defs>
       <path id="DejaVuSans-53" d="M 3425 4513 
L 3425 3897 
Q 3066 4069 2747 4153 
Q 2428 4238 2131 4238 
Q 1616 4238 1336 4038 
Q 1056 3838 1056 3469 
Q 1056 3159 1242 3001 
Q 1428 2844 1947 2747 
L 2328 2669 
Q 3034 2534 3370 2195 
Q 3706 1856 3706 1288 
Q 3706 609 3251 259 
Q 2797 -91 1919 -91 
Q 1588 -91 1214 -16 
Q 841 59 441 206 
L 441 856 
Q 825 641 1194 531 
Q 1563 422 1919 422 
Q 2459 422 2753 634 
Q 3047 847 3047 1241 
Q 3047 1584 2836 1778 
Q 2625 1972 2144 2069 
L 1759 2144 
Q 1053 2284 737 2584 
Q 422 2884 422 3419 
Q 422 4038 858 4394 
Q 1294 4750 2059 4750 
Q 2388 4750 2728 4690 
Q 3069 4631 3425 4513 
z
" transform="scale(0.015625)"/>
       <path id="DejaVuSans-70" d="M 1159 525 
L 1159 -1331 
L 581 -1331 
L 581 3500 
L 1159 3500 
L 1159 2969 
Q 1341 3281 1617 3432 
Q 1894 3584 2278 3584 
Q 2916 3584 3314 3078 
Q 3713 2572 3713 1747 
Q 3713 922 3314 415 
Q 2916 -91 2278 -91 
Q 1894 -91 1617 61 
Q 1341 213 1159 525 
z
M 3116 1747 
Q 3116 2381 2855 2742 
Q 2594 3103 2138 3103 
Q 1681 3103 1420 2742 
Q 1159 2381 1159 1747 
Q 1159 1113 1420 752 
Q 1681 391 2138 391 
Q 2594 391 2855 752 
Q 3116 1113 3116 1747 
z
" transform="scale(0.015625)"/>
       <path id="DejaVuSans-65" d="M 3597 1894 
L 3597 1613 
L 953 1613 
Q 991 1019 1311 708 
Q 1631 397 2203 397 
Q 2534 397 2845 478 
Q 3156 559 3463 722 
L 3463 178 
Q 3153 47 2828 -22 
Q 2503 -91 2169 -91 
Q 1331 -91 842 396 
Q 353 884 353 1716 
Q 353 2575 817 3079 
Q 1281 3584 2069 3584 
Q 2775 3584 3186 3129 
Q 3597 2675 3597 1894 
z
M 3022 2063 
Q 3016 2534 2758 2815 
Q 2500 3097 2075 3097 
Q 1594 3097 1305 2825 
Q 1016 2553 972 2059 
L 3022 2063 
z
" transform="scale(0.015625)"/>
       <path id="DejaVuSans-64" d="M 2906 2969 
L 2906 4863 
L 3481 4863 
L 3481 0 
L 2906 0 
L 2906 525 
Q 2725 213 2448 61 
Q 2172 -91 1784 -91 
Q 1150 -91 751 415 
Q 353 922 353 1747 
Q 353 2572 751 3078 
Q 1150 3584 1784 3584 
Q 2172 3584 2448 3432 
Q 2725 3281 2906 2969 
z
M 947 1747 
Q 947 1113 1208 752 
Q 1469 391 1925 391 
Q 2381 391 2643 752 
Q 2906 1113 2906 1747 
Q 2906 2381 2643 2742 
Q 2381 3103 1925 3103 
Q 1469 3103 1208 2742 
Q 947 2381 947 1747 
z
" transform="scale(0.015625)"/>
       <path id="DejaVuSans-20" transform="scale(0.015625)"/>
       <path id="DejaVuSans-72" d="M 2631 2963 
Q 2534 3019 2420 3045 
Q 2306 3072 2169 3072 
Q 1681 3072 1420 2755 
Q 1159 2438 1159 1844 
L 1159 0 
L 581 0 
L 581 3500 
L 1159 3500 
L 1159 2956 
Q 1341 3275 1631 3429 
Q 1922 3584 2338 3584 
Q 2397 3584 2469 3576 
Q 2541 3569 2628 3553 
L 2631 2963 
z
" transform="scale(0.015625)"/>
       <path id="DejaVuSans-77" d="M 269 3500 
L 844 3500 
L 1563 769 
L 2278 3500 
L 2956 3500 
L 3675 769 
L 4391 3500 
L 4966 3500 
L 4050 0 
L 3372 0 
L 2619 2869 
L 1863 0 
L 1184 0 
L 269 3500 
z
" transform="scale(0.015625)"/>
       <path id="DejaVuSans-61" d="M 2194 1759 
Q 1497 1759 1228 1600 
Q 959 1441 959 1056 
Q 959 750 1161 570 
Q 1363 391 1709 391 
Q 2188 391 2477 730 
Q 2766 1069 2766 1631 
L 2766 1759 
L 2194 1759 
z
M 3341 1997 
L 3341 0 
L 2766 0 
L 2766 531 
Q 2569 213 2275 61 
Q 1981 -91 1556 -91 
Q 1019 -91 701 211 
Q 384 513 384 1019 
Q 384 1609 779 1909 
Q 1175 2209 1959 2209 
L 2766 2209 
L 2766 2266 
Q 2766 2663 2505 2880 
Q 2244 3097 1772 3097 
Q 1472 3097 1187 3025 
Q 903 2953 641 2809 
L 641 3341 
Q 956 3463 1253 3523 
Q 1550 3584 1831 3584 
Q 2591 3584 2966 3190 
Q 3341 2797 3341 1997 
z
" transform="scale(0.015625)"/>
      </defs>
      <use xlink:href="#DejaVuSans-53"/>
      <use xlink:href="#DejaVuSans-70" x="63.476562"/>
      <use xlink:href="#DejaVuSans-65" x="126.953125"/>
      <use xlink:href="#DejaVuSans-65" x="188.476562"/>
      <use xlink:href="#DejaVuSans-64" x="250"/>
      <use xlink:href="#DejaVuSans-20" x="313.476562"/>
      <use xlink:href="#DejaVuSans-72" x="345.263672"/>
      <use xlink:href="#DejaVuSans-65" x="384.126953"/>
      <use xlink:href="#DejaVuSans-77" x="445.650391"/>
      <use xlink:href="#DejaVuSans-61" x="527.4375"/>
      <use xlink:href="#DejaVuSans-72" x="588.716797"/>
      <use xlink:href="#DejaVuSans-64" x="628.080078"/>
     </g>
    </g>
   </g>
   <g id="matplotlib.axis_2">
    <g id="ytick_1">
     <g id="line2d_4">
      <path d="M 79.213125 212.713944 
L 225.151587 212.713944 
" clip-path="url(#pcabd03850e)" style="fill: none; stroke: #cccccc; stroke-opacity: 0.25; stroke-width: 1.5; stroke-linecap: round"/>
     </g>
     <g id="text_5">
      <!-- 1400 -->
      <g style="fill: #262626" transform="translate(28.620625 218.982655) scale(0.165 -0.165)">
       <use xlink:href="#DejaVuSans-31"/>
       <use xlink:href="#DejaVuSans-34" x="63.623047"/>
       <use xlink:href="#DejaVuSans-30" x="127.246094"/>
       <use xlink:href="#DejaVuSans-30" x="190.869141"/>
      </g>
     </g>
    </g>
    <g id="ytick_2">
     <g id="line2d_5">
      <path d="M 79.213125 139.601176 
L 225.151587 139.601176 
" clip-path="url(#pcabd03850e)" style="fill: none; stroke: #cccccc; stroke-opacity: 0.25; stroke-width: 1.5; stroke-linecap: round"/>
     </g>
     <g id="text_6">
      <!-- 1800 -->
      <g style="fill: #262626" transform="translate(28.620625 145.869887) scale(0.165 -0.165)">
       <defs>
        <path id="DejaVuSans-38" d="M 2034 2216 
Q 1584 2216 1326 1975 
Q 1069 1734 1069 1313 
Q 1069 891 1326 650 
Q 1584 409 2034 409 
Q 2484 409 2743 651 
Q 3003 894 3003 1313 
Q 3003 1734 2745 1975 
Q 2488 2216 2034 2216 
z
M 1403 2484 
Q 997 2584 770 2862 
Q 544 3141 544 3541 
Q 544 4100 942 4425 
Q 1341 4750 2034 4750 
Q 2731 4750 3128 4425 
Q 3525 4100 3525 3541 
Q 3525 3141 3298 2862 
Q 3072 2584 2669 2484 
Q 3125 2378 3379 2068 
Q 3634 1759 3634 1313 
Q 3634 634 3220 271 
Q 2806 -91 2034 -91 
Q 1263 -91 848 271 
Q 434 634 434 1313 
Q 434 1759 690 2068 
Q 947 2378 1403 2484 
z
M 1172 3481 
Q 1172 3119 1398 2916 
Q 1625 2713 2034 2713 
Q 2441 2713 2670 2916 
Q 2900 3119 2900 3481 
Q 2900 3844 2670 4047 
Q 2441 4250 2034 4250 
Q 1625 4250 1398 4047 
Q 1172 3844 1172 3481 
z
" transform="scale(0.015625)"/>
       </defs>
       <use xlink:href="#DejaVuSans-31"/>
       <use xlink:href="#DejaVuSans-38" x="63.623047"/>
       <use xlink:href="#DejaVuSans-30" x="127.246094"/>
       <use xlink:href="#DejaVuSans-30" x="190.869141"/>
      </g>
     </g>
    </g>
    <g id="ytick_3">
     <g id="line2d_6">
      <path d="M 79.213125 66.488409 
L 225.151587 66.488409 
" clip-path="url(#pcabd03850e)" style="fill: none; stroke: #cccccc; stroke-opacity: 0.25; stroke-width: 1.5; stroke-linecap: round"/>
     </g>
     <g id="text_7">
      <!-- 2200 -->
      <g style="fill: #262626" transform="translate(28.620625 72.75712) scale(0.165 -0.165)">
       <use xlink:href="#DejaVuSans-32"/>
       <use xlink:href="#DejaVuSans-32" x="63.623047"/>
       <use xlink:href="#DejaVuSans-30" x="127.246094"/>
       <use xlink:href="#DejaVuSans-30" x="190.869141"/>
      </g>
     </g>
    </g>
    <g id="text_8">
     <!-- Energy efficiency -->
     <g style="fill: #262626" transform="translate(20.877187 195.792188) rotate(-90) scale(0.18 -0.18)">
      <defs>
       <path id="DejaVuSans-45" d="M 628 4666 
L 3578 4666 
L 3578 4134 
L 1259 4134 
L 1259 2753 
L 3481 2753 
L 3481 2222 
L 1259 2222 
L 1259 531 
L 3634 531 
L 3634 0 
L 628 0 
L 628 4666 
z
" transform="scale(0.015625)"/>
       <path id="DejaVuSans-6e" d="M 3513 2113 
L 3513 0 
L 2938 0 
L 2938 2094 
Q 2938 2591 2744 2837 
Q 2550 3084 2163 3084 
Q 1697 3084 1428 2787 
Q 1159 2491 1159 1978 
L 1159 0 
L 581 0 
L 581 3500 
L 1159 3500 
L 1159 2956 
Q 1366 3272 1645 3428 
Q 1925 3584 2291 3584 
Q 2894 3584 3203 3211 
Q 3513 2838 3513 2113 
z
" transform="scale(0.015625)"/>
       <path id="DejaVuSans-67" d="M 2906 1791 
Q 2906 2416 2648 2759 
Q 2391 3103 1925 3103 
Q 1463 3103 1205 2759 
Q 947 2416 947 1791 
Q 947 1169 1205 825 
Q 1463 481 1925 481 
Q 2391 481 2648 825 
Q 2906 1169 2906 1791 
z
M 3481 434 
Q 3481 -459 3084 -895 
Q 2688 -1331 1869 -1331 
Q 1566 -1331 1297 -1286 
Q 1028 -1241 775 -1147 
L 775 -588 
Q 1028 -725 1275 -790 
Q 1522 -856 1778 -856 
Q 2344 -856 2625 -561 
Q 2906 -266 2906 331 
L 2906 616 
Q 2728 306 2450 153 
Q 2172 0 1784 0 
Q 1141 0 747 490 
Q 353 981 353 1791 
Q 353 2603 747 3093 
Q 1141 3584 1784 3584 
Q 2172 3584 2450 3431 
Q 2728 3278 2906 2969 
L 2906 3500 
L 3481 3500 
L 3481 434 
z
" transform="scale(0.015625)"/>
       <path id="DejaVuSans-79" d="M 2059 -325 
Q 1816 -950 1584 -1140 
Q 1353 -1331 966 -1331 
L 506 -1331 
L 506 -850 
L 844 -850 
Q 1081 -850 1212 -737 
Q 1344 -625 1503 -206 
L 1606 56 
L 191 3500 
L 800 3500 
L 1894 763 
L 2988 3500 
L 3597 3500 
L 2059 -325 
z
" transform="scale(0.015625)"/>
       <path id="DejaVuSans-66" d="M 2375 4863 
L 2375 4384 
L 1825 4384 
Q 1516 4384 1395 4259 
Q 1275 4134 1275 3809 
L 1275 3500 
L 2222 3500 
L 2222 3053 
L 1275 3053 
L 1275 0 
L 697 0 
L 697 3053 
L 147 3053 
L 147 3500 
L 697 3500 
L 697 3744 
Q 697 4328 969 4595 
Q 1241 4863 1831 4863 
L 2375 4863 
z
" transform="scale(0.015625)"/>
       <path id="DejaVuSans-69" d="M 603 3500 
L 1178 3500 
L 1178 0 
L 603 0 
L 603 3500 
z
M 603 4863 
L 1178 4863 
L 1178 4134 
L 603 4134 
L 603 4863 
z
" transform="scale(0.015625)"/>
       <path id="DejaVuSans-63" d="M 3122 3366 
L 3122 2828 
Q 2878 2963 2633 3030 
Q 2388 3097 2138 3097 
Q 1578 3097 1268 2742 
Q 959 2388 959 1747 
Q 959 1106 1268 751 
Q 1578 397 2138 397 
Q 2388 397 2633 464 
Q 2878 531 3122 666 
L 3122 134 
Q 2881 22 2623 -34 
Q 2366 -91 2075 -91 
Q 1284 -91 818 406 
Q 353 903 353 1747 
Q 353 2603 823 3093 
Q 1294 3584 2113 3584 
Q 2378 3584 2631 3529 
Q 2884 3475 3122 3366 
z
" transform="scale(0.015625)"/>
      </defs>
      <use xlink:href="#DejaVuSans-45"/>
      <use xlink:href="#DejaVuSans-6e" x="63.183594"/>
      <use xlink:href="#DejaVuSans-65" x="126.5625"/>
      <use xlink:href="#DejaVuSans-72" x="188.085938"/>
      <use xlink:href="#DejaVuSans-67" x="227.449219"/>
      <use xlink:href="#DejaVuSans-79" x="290.925781"/>
      <use xlink:href="#DejaVuSans-20" x="350.105469"/>
      <use xlink:href="#DejaVuSans-65" x="381.892578"/>
      <use xlink:href="#DejaVuSans-66" x="443.416016"/>
      <use xlink:href="#DejaVuSans-66" x="478.621094"/>
      <use xlink:href="#DejaVuSans-69" x="513.826172"/>
      <use xlink:href="#DejaVuSans-63" x="541.609375"/>
      <use xlink:href="#DejaVuSans-69" x="596.589844"/>
      <use xlink:href="#DejaVuSans-65" x="624.373047"/>
      <use xlink:href="#DejaVuSans-6e" x="685.896484"/>
      <use xlink:href="#DejaVuSans-63" x="749.275391"/>
      <use xlink:href="#DejaVuSans-79" x="804.255859"/>
     </g>
    </g>
   </g>
   <g id="PathCollection_1">
    <path d="M 86.149806 48.794305 
C 86.379478 48.794305 86.599775 48.703055 86.762178 48.540652 
C 86.924581 48.378249 87.015831 48.157952 87.015831 47.92828 
C 87.015831 47.698607 86.924581 47.47831 86.762178 47.315907 
C 86.599775 47.153504 86.379478 47.062254 86.149806 47.062254 
C 85.920133 47.062254 85.699836 47.153504 85.537433 47.315907 
C 85.37503 47.47831 85.28378 47.698607 85.28378 47.92828 
C 85.28378 48.157952 85.37503 48.378249 85.537433 48.540652 
C 85.699836 48.703055 85.920133 48.794305 86.149806 48.794305 
z
" clip-path="url(#pcabd03850e)" style="fill: #0173b2; fill-opacity: 0.85; stroke: #0173b2; stroke-opacity: 0.85; stroke-width: 1.5"/>
    <path d="M 85.934476 33.360657 
C 86.164149 33.360657 86.384446 33.269407 86.546849 33.107004 
C 86.709252 32.944601 86.800502 32.724304 86.800502 32.494631 
C 86.800502 32.264959 86.709252 32.044662 86.546849 31.882259 
C 86.384446 31.719856 86.164149 31.628606 85.934476 31.628606 
C 85.704804 31.628606 85.484507 31.719856 85.322104 31.882259 
C 85.159701 32.044662 85.068451 32.264959 85.068451 32.494631 
C 85.068451 32.724304 85.159701 32.944601 85.322104 33.107004 
C 85.484507 33.269407 85.704804 33.360657 85.934476 33.360657 
z
" clip-path="url(#pcabd03850e)" style="fill: #0173b2; fill-opacity: 0.85; stroke: #0173b2; stroke-opacity: 0.85; stroke-width: 1.5"/>
    <path d="M 85.888688 30.788546 
C 86.118361 30.788546 86.338657 30.697296 86.50106 30.534893 
C 86.663464 30.37249 86.754713 30.152193 86.754713 29.92252 
C 86.754713 29.692848 86.663464 29.472551 86.50106 29.310148 
C 86.338657 29.147745 86.118361 29.056495 85.888688 29.056495 
C 85.659015 29.056495 85.438719 29.147745 85.276316 29.310148 
C 85.113913 29.472551 85.022663 29.692848 85.022663 29.92252 
C 85.022663 30.152193 85.113913 30.37249 85.276316 30.534893 
C 85.438719 30.697296 85.659015 30.788546 85.888688 30.788546 
z
" clip-path="url(#pcabd03850e)" style="fill: #0173b2; fill-opacity: 0.85; stroke: #0173b2; stroke-opacity: 0.85; stroke-width: 1.5"/>
    <path d="M 159.123 101.518085 
C 159.849288 101.518085 160.545928 101.229527 161.059491 100.715964 
C 161.573055 100.2024 161.861612 99.505761 161.861612 98.779472 
C 161.861612 98.053184 161.573055 97.356544 161.059491 96.842981 
C 160.545928 96.329417 159.849288 96.040859 159.123 96.040859 
C 158.396711 96.040859 157.700072 96.329417 157.186508 96.842981 
C 156.672944 97.356544 156.384387 98.053184 156.384387 98.779472 
C 156.384387 99.505761 156.672944 100.2024 157.186508 100.715964 
C 157.700072 101.229527 158.396711 101.518085 159.123 101.518085 
z
" clip-path="url(#pcabd03850e)" style="fill: #0173b2; fill-opacity: 0.85; stroke: #0173b2; stroke-opacity: 0.85; stroke-width: 1.5"/>
    <path d="M 205.06556 116.878474 
C 205.44342 116.878474 205.805854 116.728349 206.073041 116.461162 
C 206.340228 116.193975 206.490353 115.831541 206.490353 115.453681 
C 206.490353 115.075822 206.340228 114.713388 206.073041 114.446201 
C 205.805854 114.179014 205.44342 114.028889 205.06556 114.028889 
C 204.687701 114.028889 204.325267 114.179014 204.05808 114.446201 
C 203.790893 114.713388 203.640768 115.075822 203.640768 115.453681 
C 203.640768 115.831541 203.790893 116.193975 204.05808 116.461162 
C 204.325267 116.728349 204.687701 116.878474 205.06556 116.878474 
z
" clip-path="url(#pcabd03850e)" style="fill: #0173b2; fill-opacity: 0.85; stroke: #0173b2; stroke-opacity: 0.85; stroke-width: 1.5"/>
    <path d="M 206.038848 116.798837 
C 206.36509 116.798837 206.678014 116.66922 206.908702 116.438532 
C 207.13939 116.207844 207.269007 115.894921 207.269007 115.568679 
C 207.269007 115.242437 207.13939 114.929513 206.908702 114.698825 
C 206.678014 114.468137 206.36509 114.33852 206.038848 114.33852 
C 205.712606 114.33852 205.399682 114.468137 205.168995 114.698825 
C 204.938307 114.929513 204.808689 115.242437 204.808689 115.568679 
C 204.808689 115.894921 204.938307 116.207844 205.168995 116.438532 
C 205.399682 116.66922 205.712606 116.798837 206.038848 116.798837 
z
" clip-path="url(#pcabd03850e)" style="fill: #0173b2; fill-opacity: 0.85; stroke: #0173b2; stroke-opacity: 0.85; stroke-width: 1.5"/>
    <path d="M 207.078722 117.02328 
C 207.353615 117.02328 207.617286 116.914064 207.811664 116.719686 
C 208.006043 116.525307 208.115259 116.261636 208.115259 115.986743 
C 208.115259 115.71185 208.006043 115.448179 207.811664 115.253801 
C 207.617286 115.059422 207.353615 114.950206 207.078722 114.950206 
C 206.803829 114.950206 206.540158 115.059422 206.34578 115.253801 
C 206.151401 115.448179 206.042185 115.71185 206.042185 115.986743 
C 206.042185 116.261636 206.151401 116.525307 206.34578 116.719686 
C 206.540158 116.914064 206.803829 117.02328 207.078722 117.02328 
z
" clip-path="url(#pcabd03850e)" style="fill: #0173b2; fill-opacity: 0.85; stroke: #0173b2; stroke-opacity: 0.85; stroke-width: 1.5"/>
    <path d="M 208.026455 118.311293 
C 208.418206 118.311293 208.793965 118.155648 209.070976 117.878638 
C 209.347986 117.601628 209.50363 117.225869 209.50363 116.834118 
C 209.50363 116.442366 209.347986 116.066607 209.070976 115.789597 
C 208.793965 115.512587 208.418206 115.356942 208.026455 115.356942 
C 207.634703 115.356942 207.258944 115.512587 206.981934 115.789597 
C 206.704924 116.066607 206.54928 116.442366 206.54928 116.834118 
C 206.54928 117.225869 206.704924 117.601628 206.981934 117.878638 
C 207.258944 118.155648 207.634703 118.311293 208.026455 118.311293 
z
" clip-path="url(#pcabd03850e)" style="fill: #0173b2; fill-opacity: 0.85; stroke: #0173b2; stroke-opacity: 0.85; stroke-width: 1.5"/>
    <path d="M 210.394893 118.531812 
C 210.683627 118.531812 210.960573 118.417097 211.164739 118.212931 
C 211.368904 118.008766 211.483619 117.731819 211.483619 117.443086 
C 211.483619 117.154352 211.368904 116.877406 211.164739 116.67324 
C 210.960573 116.469075 210.683627 116.35436 210.394893 116.35436 
C 210.10616 116.35436 209.829213 116.469075 209.625048 116.67324 
C 209.420882 116.877406 209.306167 117.154352 209.306167 117.443086 
C 209.306167 117.731819 209.420882 118.008766 209.625048 118.212931 
C 209.829213 118.417097 210.10616 118.531812 210.394893 118.531812 
z
" clip-path="url(#pcabd03850e)" style="fill: #0173b2; fill-opacity: 0.85; stroke: #0173b2; stroke-opacity: 0.85; stroke-width: 1.5"/>
    <path d="M 211.022932 119.415003 
C 211.296608 119.415003 211.559111 119.30627 211.752629 119.112753 
C 211.946147 118.919235 212.054879 118.656732 212.054879 118.383056 
C 212.054879 118.109381 211.946147 117.846877 211.752629 117.65336 
C 211.559111 117.459842 211.296608 117.351109 211.022932 117.351109 
C 210.749257 117.351109 210.486754 117.459842 210.293236 117.65336 
C 210.099718 117.846877 209.990986 118.109381 209.990986 118.383056 
C 209.990986 118.656732 210.099718 118.919235 210.293236 119.112753 
C 210.486754 119.30627 210.749257 119.415003 211.022932 119.415003 
z
" clip-path="url(#pcabd03850e)" style="fill: #0173b2; fill-opacity: 0.85; stroke: #0173b2; stroke-opacity: 0.85; stroke-width: 1.5"/>
    <path d="M 211.871872 120.546926 
C 212.148199 120.546926 212.413245 120.43714 212.608638 120.241748 
C 212.80403 120.046355 212.913816 119.781309 212.913816 119.504983 
C 212.913816 119.228656 212.80403 118.96361 212.608638 118.768218 
C 212.413245 118.572825 212.148199 118.463039 211.871872 118.463039 
C 211.595546 118.463039 211.3305 118.572825 211.135107 118.768218 
C 210.939715 118.96361 210.829929 119.228656 210.829929 119.504983 
C 210.829929 119.781309 210.939715 120.046355 211.135107 120.241748 
C 211.3305 120.43714 211.595546 120.546926 211.871872 120.546926 
z
" clip-path="url(#pcabd03850e)" style="fill: #0173b2; fill-opacity: 0.85; stroke: #0173b2; stroke-opacity: 0.85; stroke-width: 1.5"/>
    <path d="M 213.12887 121.962474 
C 213.447734 121.962474 213.753581 121.835788 213.979052 121.610317 
C 214.204522 121.384847 214.331208 121.079 214.331208 120.760136 
C 214.331208 120.441272 214.204522 120.135425 213.979052 119.909954 
C 213.753581 119.684484 213.447734 119.557798 213.12887 119.557798 
C 212.810006 119.557798 212.504159 119.684484 212.278689 119.909954 
C 212.053218 120.135425 211.926532 120.441272 211.926532 120.760136 
C 211.926532 121.079 212.053218 121.384847 212.278689 121.610317 
C 212.504159 121.835788 212.810006 121.962474 213.12887 121.962474 
z
" clip-path="url(#pcabd03850e)" style="fill: #0173b2; fill-opacity: 0.85; stroke: #0173b2; stroke-opacity: 0.85; stroke-width: 1.5"/>
    <path d="M 213.858159 122.883123 
C 214.121927 122.883123 214.374928 122.778326 214.56144 122.591814 
C 214.747952 122.405302 214.852749 122.152301 214.852749 121.888533 
C 214.852749 121.624765 214.747952 121.371764 214.56144 121.185252 
C 214.374928 120.99874 214.121927 120.893943 213.858159 120.893943 
C 213.594391 120.893943 213.34139 120.99874 213.154878 121.185252 
C 212.968366 121.371764 212.863569 121.624765 212.863569 121.888533 
C 212.863569 122.152301 212.968366 122.405302 213.154878 122.591814 
C 213.34139 122.778326 213.594391 122.883123 213.858159 122.883123 
z
" clip-path="url(#pcabd03850e)" style="fill: #0173b2; fill-opacity: 0.85; stroke: #0173b2; stroke-opacity: 0.85; stroke-width: 1.5"/>
    <path d="M 214.886751 125.066845 
C 215.173189 125.066845 215.447933 124.953042 215.650475 124.7505 
C 215.853017 124.547958 215.96682 124.273214 215.96682 123.986777 
C 215.96682 123.700339 215.853017 123.425595 215.650475 123.223053 
C 215.447933 123.020511 215.173189 122.906708 214.886751 122.906708 
C 214.600314 122.906708 214.325569 123.020511 214.123028 123.223053 
C 213.920486 123.425595 213.806683 123.700339 213.806683 123.986777 
C 213.806683 124.273214 213.920486 124.547958 214.123028 124.7505 
C 214.325569 124.953042 214.600314 125.066845 214.886751 125.066845 
z
" clip-path="url(#pcabd03850e)" style="fill: #0173b2; fill-opacity: 0.85; stroke: #0173b2; stroke-opacity: 0.85; stroke-width: 1.5"/>
    <path d="M 85.852226 18.389854 
C 86.081898 18.389854 86.302195 18.298604 86.464598 18.136201 
C 86.627001 17.973798 86.718251 17.753501 86.718251 17.523828 
C 86.718251 17.294156 86.627001 17.073859 86.464598 16.911456 
C 86.302195 16.749053 86.081898 16.657803 85.852226 16.657803 
C 85.622553 16.657803 85.402256 16.749053 85.239853 16.911456 
C 85.07745 17.073859 84.9862 17.294156 84.9862 17.523828 
C 84.9862 17.753501 85.07745 17.973798 85.239853 18.136201 
C 85.402256 18.298604 85.622553 18.389854 85.852226 18.389854 
z
" clip-path="url(#pcabd03850e)" style="fill: #d55e00; fill-opacity: 0.85; stroke: #d55e00; stroke-opacity: 0.85; stroke-width: 1.5"/>
    <path d="M 85.846691 18.146025 
C 86.076364 18.146025 86.296661 18.054776 86.459064 17.892372 
C 86.621467 17.729969 86.712717 17.509673 86.712717 17.28 
C 86.712717 17.050327 86.621467 16.830031 86.459064 16.667628 
C 86.296661 16.505224 86.076364 16.413975 85.846691 16.413975 
C 85.617019 16.413975 85.396722 16.505224 85.234319 16.667628 
C 85.071916 16.830031 84.980666 17.050327 84.980666 17.28 
C 84.980666 17.509673 85.071916 17.729969 85.234319 17.892372 
C 85.396722 18.054776 85.617019 18.146025 85.846691 18.146025 
z
" clip-path="url(#pcabd03850e)" style="fill: #d55e00; fill-opacity: 0.85; stroke: #d55e00; stroke-opacity: 0.85; stroke-width: 1.5"/>
    <path d="M 85.856625 20.492247 
C 86.086298 20.492247 86.306595 20.400997 86.468998 20.238594 
C 86.631401 20.076191 86.722651 19.855895 86.722651 19.626222 
C 86.722651 19.396549 86.631401 19.176253 86.468998 19.013849 
C 86.306595 18.851446 86.086298 18.760197 85.856625 18.760197 
C 85.626953 18.760197 85.406656 18.851446 85.244253 19.013849 
C 85.08185 19.176253 84.9906 19.396549 84.9906 19.626222 
C 84.9906 19.855895 85.08185 20.076191 85.244253 20.238594 
C 85.406656 20.400997 85.626953 20.492247 85.856625 20.492247 
z
" clip-path="url(#pcabd03850e)" style="fill: #d55e00; fill-opacity: 0.85; stroke: #d55e00; stroke-opacity: 0.85; stroke-width: 1.5"/>
    <path d="M 85.931169 21.911752 
C 86.160842 21.911752 86.381139 21.820502 86.543542 21.658099 
C 86.705945 21.495696 86.797195 21.2754 86.797195 21.045727 
C 86.797195 20.816054 86.705945 20.595758 86.543542 20.433355 
C 86.381139 20.270951 86.160842 20.179702 85.931169 20.179702 
C 85.701497 20.179702 85.4812 20.270951 85.318797 20.433355 
C 85.156394 20.595758 85.065144 20.816054 85.065144 21.045727 
C 85.065144 21.2754 85.156394 21.495696 85.318797 21.658099 
C 85.4812 21.820502 85.701497 21.911752 85.931169 21.911752 
z
" clip-path="url(#pcabd03850e)" style="fill: #d55e00; fill-opacity: 0.85; stroke: #d55e00; stroke-opacity: 0.85; stroke-width: 1.5"/>
    <path d="M 85.984934 21.934466 
C 86.214607 21.934466 86.434904 21.843216 86.597307 21.680813 
C 86.75971 21.51841 86.85096 21.298113 86.85096 21.068441 
C 86.85096 20.838768 86.75971 20.618471 86.597307 20.456068 
C 86.434904 20.293665 86.214607 20.202415 85.984934 20.202415 
C 85.755262 20.202415 85.534965 20.293665 85.372562 20.456068 
C 85.210159 20.618471 85.118909 20.838768 85.118909 21.068441 
C 85.118909 21.298113 85.210159 21.51841 85.372562 21.680813 
C 85.534965 21.843216 85.755262 21.934466 85.984934 21.934466 
z
" clip-path="url(#pcabd03850e)" style="fill: #d55e00; fill-opacity: 0.85; stroke: #d55e00; stroke-opacity: 0.85; stroke-width: 1.5"/>
    <path d="M 86.024424 22.183649 
C 86.254096 22.183649 86.474393 22.0924 86.636796 21.929996 
C 86.799199 21.767593 86.890449 21.547297 86.890449 21.317624 
C 86.890449 21.087951 86.799199 20.867655 86.636796 20.705252 
C 86.474393 20.542849 86.254096 20.451599 86.024424 20.451599 
C 85.794751 20.451599 85.574454 20.542849 85.412051 20.705252 
C 85.249648 20.867655 85.158398 21.087951 85.158398 21.317624 
C 85.158398 21.547297 85.249648 21.767593 85.412051 21.929996 
C 85.574454 22.0924 85.794751 22.183649 86.024424 22.183649 
z
" clip-path="url(#pcabd03850e)" style="fill: #d55e00; fill-opacity: 0.85; stroke: #d55e00; stroke-opacity: 0.85; stroke-width: 1.5"/>
    <path d="M 86.058843 22.56211 
C 86.288516 22.56211 86.508812 22.47086 86.671215 22.308457 
C 86.833618 22.146054 86.924868 21.925757 86.924868 21.696084 
C 86.924868 21.466412 86.833618 21.246115 86.671215 21.083712 
C 86.508812 20.921309 86.288516 20.830059 86.058843 20.830059 
C 85.82917 20.830059 85.608874 20.921309 85.44647 21.083712 
C 85.284067 21.246115 85.192817 21.466412 85.192817 21.696084 
C 85.192817 21.925757 85.284067 22.146054 85.44647 22.308457 
C 85.608874 22.47086 85.82917 22.56211 86.058843 22.56211 
z
" clip-path="url(#pcabd03850e)" style="fill: #d55e00; fill-opacity: 0.85; stroke: #d55e00; stroke-opacity: 0.85; stroke-width: 1.5"/>
    <path d="M 134.268847 48.759106 
C 134.995136 48.759106 135.691775 48.470549 136.205339 47.956985 
C 136.718902 47.443421 137.00746 46.746782 137.00746 46.020493 
C 137.00746 45.294205 136.718902 44.597565 136.205339 44.084002 
C 135.691775 43.570438 134.995136 43.28188 134.268847 43.28188 
C 133.542558 43.28188 132.845919 43.570438 132.332355 44.084002 
C 131.818792 44.597565 131.530234 45.294205 131.530234 46.020493 
C 131.530234 46.746782 131.818792 47.443421 132.332355 47.956985 
C 132.845919 48.470549 133.542558 48.759106 134.268847 48.759106 
z
" clip-path="url(#pcabd03850e)" style="fill: #d55e00; fill-opacity: 0.85; stroke: #d55e00; stroke-opacity: 0.85; stroke-width: 1.5"/>
    <path d="M 154.041861 53.032527 
C 154.301016 53.032527 154.549592 52.929563 154.732842 52.746313 
C 154.916093 52.563062 155.019056 52.314486 155.019056 52.055331 
C 155.019056 51.796176 154.916093 51.5476 154.732842 51.364349 
C 154.549592 51.181099 154.301016 51.078135 154.041861 51.078135 
C 153.782705 51.078135 153.53413 51.181099 153.350879 51.364349 
C 153.167629 51.5476 153.064665 51.796176 153.064665 52.055331 
C 153.064665 52.314486 153.167629 52.563062 153.350879 52.746313 
C 153.53413 52.929563 153.782705 53.032527 154.041861 53.032527 
z
" clip-path="url(#pcabd03850e)" style="fill: #d55e00; fill-opacity: 0.85; stroke: #d55e00; stroke-opacity: 0.85; stroke-width: 1.5"/>
    <path d="M 157.729821 53.90613 
C 157.959494 53.90613 158.179791 53.81488 158.342194 53.652477 
C 158.504597 53.490074 158.595847 53.269777 158.595847 53.040104 
C 158.595847 52.810432 158.504597 52.590135 158.342194 52.427732 
C 158.179791 52.265329 157.959494 52.174079 157.729821 52.174079 
C 157.500149 52.174079 157.279852 52.265329 157.117449 52.427732 
C 156.955046 52.590135 156.863796 52.810432 156.863796 53.040104 
C 156.863796 53.269777 156.955046 53.490074 157.117449 53.652477 
C 157.279852 53.81488 157.500149 53.90613 157.729821 53.90613 
z
" clip-path="url(#pcabd03850e)" style="fill: #d55e00; fill-opacity: 0.85; stroke: #d55e00; stroke-opacity: 0.85; stroke-width: 1.5"/>
    <path d="M 161.43803 55.756261 
C 161.667703 55.756261 161.888 55.665011 162.050403 55.502608 
C 162.212806 55.340205 162.304056 55.119908 162.304056 54.890236 
C 162.304056 54.660563 162.212806 54.440266 162.050403 54.277863 
C 161.888 54.11546 161.667703 54.02421 161.43803 54.02421 
C 161.208358 54.02421 160.988061 54.11546 160.825658 54.277863 
C 160.663255 54.440266 160.572005 54.660563 160.572005 54.890236 
C 160.572005 55.119908 160.663255 55.340205 160.825658 55.502608 
C 160.988061 55.665011 161.208358 55.756261 161.43803 55.756261 
z
" clip-path="url(#pcabd03850e)" style="fill: #d55e00; fill-opacity: 0.85; stroke: #d55e00; stroke-opacity: 0.85; stroke-width: 1.5"/>
    <path d="M 165.061502 58.335206 
C 165.312846 58.335206 165.553928 58.235346 165.731655 58.057619 
C 165.909381 57.879893 166.009241 57.63881 166.009241 57.387467 
C 166.009241 57.136124 165.909381 56.895041 165.731655 56.717314 
C 165.553928 56.539588 165.312846 56.439728 165.061502 56.439728 
C 164.810159 56.439728 164.569076 56.539588 164.39135 56.717314 
C 164.213623 56.895041 164.113763 57.136124 164.113763 57.387467 
C 164.113763 57.63881 164.213623 57.879893 164.39135 58.057619 
C 164.569076 58.235346 164.810159 58.335206 165.061502 58.335206 
z
" clip-path="url(#pcabd03850e)" style="fill: #d55e00; fill-opacity: 0.85; stroke: #d55e00; stroke-opacity: 0.85; stroke-width: 1.5"/>
    <path d="M 167.451451 61.422582 
C 167.682163 61.422582 167.903456 61.330919 168.066594 61.167781 
C 168.229732 61.004643 168.321395 60.78335 168.321395 60.552638 
C 168.321395 60.321925 168.229732 60.100632 168.066594 59.937494 
C 167.903456 59.774356 167.682163 59.682693 167.451451 59.682693 
C 167.220739 59.682693 166.999445 59.774356 166.836307 59.937494 
C 166.673169 60.100632 166.581506 60.321925 166.581506 60.552638 
C 166.581506 60.78335 166.673169 61.004643 166.836307 61.167781 
C 166.999445 61.330919 167.220739 61.422582 167.451451 61.422582 
z
" clip-path="url(#pcabd03850e)" style="fill: #d55e00; fill-opacity: 0.85; stroke: #d55e00; stroke-opacity: 0.85; stroke-width: 1.5"/>
    <path d="M 169.629741 64.755906 
C 169.859413 64.755906 170.07971 64.664656 170.242113 64.502253 
C 170.404516 64.33985 170.495766 64.119553 170.495766 63.88988 
C 170.495766 63.660208 170.404516 63.439911 170.242113 63.277508 
C 170.07971 63.115105 169.859413 63.023855 169.629741 63.023855 
C 169.400068 63.023855 169.179771 63.115105 169.017368 63.277508 
C 168.854965 63.439911 168.763715 63.660208 168.763715 63.88988 
C 168.763715 64.119553 168.854965 64.33985 169.017368 64.502253 
C 169.179771 64.664656 169.400068 64.755906 169.629741 64.755906 
z
" clip-path="url(#pcabd03850e)" style="fill: #d55e00; fill-opacity: 0.85; stroke: #d55e00; stroke-opacity: 0.85; stroke-width: 1.5"/>
    <path d="M 171.445225 68.342263 
C 171.75133 68.342263 172.04494 68.220646 172.26139 68.004197 
C 172.477839 67.787747 172.599456 67.494138 172.599456 67.188032 
C 172.599456 66.881926 172.477839 66.588316 172.26139 66.371867 
C 172.04494 66.155417 171.75133 66.0338 171.445225 66.0338 
C 171.139119 66.0338 170.845509 66.155417 170.629059 66.371867 
C 170.41261 66.588316 170.290993 66.881926 170.290993 67.188032 
C 170.290993 67.494138 170.41261 67.787747 170.629059 68.004197 
C 170.845509 68.220646 171.139119 68.342263 171.445225 68.342263 
z
" clip-path="url(#pcabd03850e)" style="fill: #d55e00; fill-opacity: 0.85; stroke: #d55e00; stroke-opacity: 0.85; stroke-width: 1.5"/>
    <path d="M 174.116668 72.015008 
C 174.406707 72.015008 174.684905 71.899775 174.889993 71.694686 
C 175.095082 71.489598 175.210315 71.2114 175.210315 70.921361 
C 175.210315 70.631323 175.095082 70.353124 174.889993 70.148036 
C 174.684905 69.942948 174.406707 69.827714 174.116668 69.827714 
C 173.82663 69.827714 173.548431 69.942948 173.343343 70.148036 
C 173.138255 70.353124 173.023021 70.631323 173.023021 70.921361 
C 173.023021 71.2114 173.138255 71.489598 173.343343 71.694686 
C 173.548431 71.899775 173.82663 72.015008 174.116668 72.015008 
z
" clip-path="url(#pcabd03850e)" style="fill: #d55e00; fill-opacity: 0.85; stroke: #d55e00; stroke-opacity: 0.85; stroke-width: 1.5"/>
    <path d="M 177.411371 74.856187 
C 177.646718 74.856187 177.872456 74.762683 178.038872 74.596268 
C 178.205287 74.429853 178.298791 74.204114 178.298791 73.968768 
C 178.298791 73.733421 178.205287 73.507683 178.038872 73.341267 
C 177.872456 73.174852 177.646718 73.081348 177.411371 73.081348 
C 177.176025 73.081348 176.950286 73.174852 176.783871 73.341267 
C 176.617456 73.507683 176.523952 73.733421 176.523952 73.968768 
C 176.523952 74.204114 176.617456 74.429853 176.783871 74.596268 
C 176.950286 74.762683 177.176025 74.856187 177.411371 74.856187 
z
" clip-path="url(#pcabd03850e)" style="fill: #d55e00; fill-opacity: 0.85; stroke: #d55e00; stroke-opacity: 0.85; stroke-width: 1.5"/>
    <path d="M 180.95436 77.098175 
C 181.204655 77.098175 181.444733 76.998731 181.621719 76.821746 
C 181.798705 76.64476 181.898148 76.404682 181.898148 76.154386 
C 181.898148 75.904091 181.798705 75.664013 181.621719 75.487027 
C 181.444733 75.310041 181.204655 75.210598 180.95436 75.210598 
C 180.704064 75.210598 180.463986 75.310041 180.287 75.487027 
C 180.110015 75.664013 180.010571 75.904091 180.010571 76.154386 
C 180.010571 76.404682 180.110015 76.64476 180.287 76.821746 
C 180.463986 76.998731 180.704064 77.098175 180.95436 77.098175 
z
" clip-path="url(#pcabd03850e)" style="fill: #d55e00; fill-opacity: 0.85; stroke: #d55e00; stroke-opacity: 0.85; stroke-width: 1.5"/>
    <path d="M 181.801135 77.30315 
C 182.058406 77.30315 182.305173 77.200936 182.487091 77.019018 
C 182.669008 76.837101 182.771223 76.590333 182.771223 76.333063 
C 182.771223 76.075793 182.669008 75.829025 182.487091 75.647107 
C 182.305173 75.46519 182.058406 75.362975 181.801135 75.362975 
C 181.543865 75.362975 181.297098 75.46519 181.11518 75.647107 
C 180.933263 75.829025 180.831048 76.075793 180.831048 76.333063 
C 180.831048 76.590333 180.933263 76.837101 181.11518 77.019018 
C 181.297098 77.200936 181.543865 77.30315 181.801135 77.30315 
z
" clip-path="url(#pcabd03850e)" style="fill: #d55e00; fill-opacity: 0.85; stroke: #d55e00; stroke-opacity: 0.85; stroke-width: 1.5"/>
    <path d="M 180.037104 75.327129 
C 180.275213 75.327129 180.503601 75.232527 180.67197 75.064159 
C 180.840338 74.89579 180.93494 74.667402 180.93494 74.429293 
C 180.93494 74.191184 180.840338 73.962795 180.67197 73.794427 
C 180.503601 73.626058 180.275213 73.531456 180.037104 73.531456 
C 179.798995 73.531456 179.570606 73.626058 179.402238 73.794427 
C 179.233869 73.962795 179.139267 74.191184 179.139267 74.429293 
C 179.139267 74.667402 179.233869 74.89579 179.402238 75.064159 
C 179.570606 75.232527 179.798995 75.327129 180.037104 75.327129 
z
" clip-path="url(#pcabd03850e)" style="fill: #d55e00; fill-opacity: 0.85; stroke: #d55e00; stroke-opacity: 0.85; stroke-width: 1.5"/>
    <path d="M 184.344621 85.036629 
C 184.683955 85.036629 185.009436 84.901811 185.249381 84.661865 
C 185.489326 84.42192 185.624145 84.096439 185.624145 83.757106 
C 185.624145 83.417772 185.489326 83.092291 185.249381 82.852346 
C 185.009436 82.6124 184.683955 82.477582 184.344621 82.477582 
C 184.005288 82.477582 183.679807 82.6124 183.439861 82.852346 
C 183.199916 83.092291 183.065098 83.417772 183.065098 83.757106 
C 183.065098 84.096439 183.199916 84.42192 183.439861 84.661865 
C 183.679807 84.901811 184.005288 85.036629 184.344621 85.036629 
z
" clip-path="url(#pcabd03850e)" style="fill: #d55e00; fill-opacity: 0.85; stroke: #d55e00; stroke-opacity: 0.85; stroke-width: 1.5"/>
    <path d="M 186.912509 88.950517 
C 187.2313 88.950517 187.537077 88.82386 187.762496 88.598441 
C 187.987915 88.373022 188.114572 88.067245 188.114572 87.748454 
C 188.114572 87.429663 187.987915 87.123886 187.762496 86.898467 
C 187.537077 86.673048 187.2313 86.546391 186.912509 86.546391 
C 186.593718 86.546391 186.287941 86.673048 186.062522 86.898467 
C 185.837103 87.123886 185.710446 87.429663 185.710446 87.748454 
C 185.710446 88.067245 185.837103 88.373022 186.062522 88.598441 
C 186.287941 88.82386 186.593718 88.950517 186.912509 88.950517 
z
" clip-path="url(#pcabd03850e)" style="fill: #d55e00; fill-opacity: 0.85; stroke: #d55e00; stroke-opacity: 0.85; stroke-width: 1.5"/>
    <path d="M 189.496784 93.453191 
C 189.874137 93.453191 190.236085 93.303267 190.502914 93.036438 
C 190.769743 92.769609 190.919667 92.407661 190.919667 92.030308 
C 190.919667 91.652955 190.769743 91.291006 190.502914 91.024177 
C 190.236085 90.757349 189.874137 90.607425 189.496784 90.607425 
C 189.119431 90.607425 188.757482 90.757349 188.490654 91.024177 
C 188.223825 91.291006 188.073901 91.652955 188.073901 92.030308 
C 188.073901 92.407661 188.223825 92.769609 188.490654 93.036438 
C 188.757482 93.303267 189.119431 93.453191 189.496784 93.453191 
z
" clip-path="url(#pcabd03850e)" style="fill: #d55e00; fill-opacity: 0.85; stroke: #d55e00; stroke-opacity: 0.85; stroke-width: 1.5"/>
    <path d="M 191.527394 97.538083 
C 191.83563 97.538083 192.131283 97.415619 192.349239 97.197663 
C 192.567195 96.979708 192.689658 96.684055 192.689658 96.375819 
C 192.689658 96.067583 192.567195 95.77193 192.349239 95.553974 
C 192.131283 95.336018 191.83563 95.213555 191.527394 95.213555 
C 191.219158 95.213555 190.923505 95.336018 190.70555 95.553974 
C 190.487594 95.77193 190.36513 96.067583 190.36513 96.375819 
C 190.36513 96.684055 190.487594 96.979708 190.70555 97.197663 
C 190.923505 97.415619 191.219158 97.538083 191.527394 97.538083 
z
" clip-path="url(#pcabd03850e)" style="fill: #d55e00; fill-opacity: 0.85; stroke: #d55e00; stroke-opacity: 0.85; stroke-width: 1.5"/>
    <path d="M 194.357106 102.036925 
C 194.706461 102.036925 195.041555 101.898125 195.288587 101.651093 
C 195.535619 101.404061 195.67442 101.068967 195.67442 100.719611 
C 195.67442 100.370255 195.535619 100.035161 195.288587 99.788129 
C 195.041555 99.541098 194.706461 99.402297 194.357106 99.402297 
C 194.00775 99.402297 193.672656 99.541098 193.425624 99.788129 
C 193.178592 100.035161 193.039791 100.370255 193.039791 100.719611 
C 193.039791 101.068967 193.178592 101.404061 193.425624 101.651093 
C 193.672656 101.898125 194.00775 102.036925 194.357106 102.036925 
z
" clip-path="url(#pcabd03850e)" style="fill: #d55e00; fill-opacity: 0.85; stroke: #d55e00; stroke-opacity: 0.85; stroke-width: 1.5"/>
    <path d="M 196.532437 106.214549 
C 196.789706 106.214549 197.036472 106.112335 197.218388 105.930418 
C 197.400304 105.748502 197.502518 105.501736 197.502518 105.244468 
C 197.502518 104.987199 197.400304 104.740433 197.218388 104.558517 
C 197.036472 104.376601 196.789706 104.274387 196.532437 104.274387 
C 196.275169 104.274387 196.028403 104.376601 195.846486 104.558517 
C 195.66457 104.740433 195.562356 104.987199 195.562356 105.244468 
C 195.562356 105.501736 195.66457 105.748502 195.846486 105.930418 
C 196.028403 106.112335 196.275169 106.214549 196.532437 106.214549 
z
" clip-path="url(#pcabd03850e)" style="fill: #d55e00; fill-opacity: 0.85; stroke: #d55e00; stroke-opacity: 0.85; stroke-width: 1.5"/>
    <path d="M 198.60677 110.760912 
C 198.860203 110.760912 199.103291 110.660222 199.282496 110.481018 
C 199.4617 110.301813 199.562391 110.058725 199.562391 109.805292 
C 199.562391 109.551858 199.4617 109.30877 199.282496 109.129566 
C 199.103291 108.950361 198.860203 108.849671 198.60677 108.849671 
C 198.353336 108.849671 198.110249 108.950361 197.931044 109.129566 
C 197.751839 109.30877 197.651149 109.551858 197.651149 109.805292 
C 197.651149 110.058725 197.751839 110.301813 197.931044 110.481018 
C 198.110249 110.660222 198.353336 110.760912 198.60677 110.760912 
z
" clip-path="url(#pcabd03850e)" style="fill: #d55e00; fill-opacity: 0.85; stroke: #d55e00; stroke-opacity: 0.85; stroke-width: 1.5"/>
    <path d="M 200.127154 115.260801 
C 200.489814 115.260801 200.83767 115.116714 201.094109 114.860274 
C 201.350549 114.603835 201.494635 114.255979 201.494635 113.893319 
C 201.494635 113.530659 201.350549 113.182803 201.094109 112.926364 
C 200.83767 112.669924 200.489814 112.525837 200.127154 112.525837 
C 199.764493 112.525837 199.416638 112.669924 199.160198 112.926364 
C 198.903759 113.182803 198.759672 113.530659 198.759672 113.893319 
C 198.759672 114.255979 198.903759 114.603835 199.160198 114.860274 
C 199.416638 115.116714 199.764493 115.260801 200.127154 115.260801 
z
" clip-path="url(#pcabd03850e)" style="fill: #d55e00; fill-opacity: 0.85; stroke: #d55e00; stroke-opacity: 0.85; stroke-width: 1.5"/>
    <path d="M 201.961365 119.550248 
C 202.351708 119.550248 202.726117 119.395163 203.002131 119.119148 
C 203.278145 118.843134 203.43323 118.468726 203.43323 118.078382 
C 203.43323 117.688039 203.278145 117.313631 203.002131 117.037617 
C 202.726117 116.761602 202.351708 116.606517 201.961365 116.606517 
C 201.571022 116.606517 201.196614 116.761602 200.920599 117.037617 
C 200.644585 117.313631 200.4895 117.688039 200.4895 118.078382 
C 200.4895 118.468726 200.644585 118.843134 200.920599 119.119148 
C 201.196614 119.395163 201.571022 119.550248 201.961365 119.550248 
z
" clip-path="url(#pcabd03850e)" style="fill: #d55e00; fill-opacity: 0.85; stroke: #d55e00; stroke-opacity: 0.85; stroke-width: 1.5"/>
    <path d="M 204.092373 124.224776 
C 204.448438 124.224776 204.789967 124.08331 205.041743 123.831534 
C 205.293519 123.579758 205.434985 123.238229 205.434985 122.882164 
C 205.434985 122.5261 205.293519 122.18457 205.041743 121.932794 
C 204.789967 121.681019 204.448438 121.539553 204.092373 121.539553 
C 203.736308 121.539553 203.394779 121.681019 203.143003 121.932794 
C 202.891227 122.18457 202.749761 122.5261 202.749761 122.882164 
C 202.749761 123.238229 202.891227 123.579758 203.143003 123.831534 
C 203.394779 124.08331 203.736308 124.224776 204.092373 124.224776 
z
" clip-path="url(#pcabd03850e)" style="fill: #d55e00; fill-opacity: 0.85; stroke: #d55e00; stroke-opacity: 0.85; stroke-width: 1.5"/>
    <path d="M 206.304491 128.861284 
C 206.649656 128.861284 206.980731 128.724148 207.2248 128.48008 
C 207.468869 128.236011 207.606004 127.904936 207.606004 127.55977 
C 207.606004 127.214605 207.468869 126.88353 207.2248 126.639461 
C 206.980731 126.395392 206.649656 126.258257 206.304491 126.258257 
C 205.959325 126.258257 205.62825 126.395392 205.384182 126.639461 
C 205.140113 126.88353 205.002977 127.214605 205.002977 127.55977 
C 205.002977 127.904936 205.140113 128.236011 205.384182 128.48008 
C 205.62825 128.724148 205.959325 128.861284 206.304491 128.861284 
z
" clip-path="url(#pcabd03850e)" style="fill: #d55e00; fill-opacity: 0.85; stroke: #d55e00; stroke-opacity: 0.85; stroke-width: 1.5"/>
    <path d="M 206.856618 132.219047 
C 207.297197 132.219047 207.719791 132.044003 208.031328 131.732466 
C 208.342865 131.420929 208.517909 130.998335 208.517909 130.557755 
C 208.517909 130.117176 208.342865 129.694582 208.031328 129.383045 
C 207.719791 129.071508 207.297197 128.896464 206.856618 128.896464 
C 206.416038 128.896464 205.993444 129.071508 205.681907 129.383045 
C 205.37037 129.694582 205.195326 130.117176 205.195326 130.557755 
C 205.195326 130.998335 205.37037 131.420929 205.681907 131.732466 
C 205.993444 132.044003 206.416038 132.219047 206.856618 132.219047 
z
" clip-path="url(#pcabd03850e)" style="fill: #d55e00; fill-opacity: 0.85; stroke: #d55e00; stroke-opacity: 0.85; stroke-width: 1.5"/>
    <path d="M 207.573706 135.94872 
C 207.898166 135.94872 208.20938 135.819811 208.438808 135.590383 
C 208.668236 135.360956 208.797145 135.049741 208.797145 134.725281 
C 208.797145 134.400821 208.668236 134.089607 208.438808 133.860179 
C 208.20938 133.630752 207.898166 133.501842 207.573706 133.501842 
C 207.249246 133.501842 206.938032 133.630752 206.708604 133.860179 
C 206.479176 134.089607 206.350267 134.400821 206.350267 134.725281 
C 206.350267 135.049741 206.479176 135.360956 206.708604 135.590383 
C 206.938032 135.819811 207.249246 135.94872 207.573706 135.94872 
z
" clip-path="url(#pcabd03850e)" style="fill: #d55e00; fill-opacity: 0.85; stroke: #d55e00; stroke-opacity: 0.85; stroke-width: 1.5"/>
    <path d="M 209.227312 147.917451 
C 209.696732 147.917451 210.14699 147.730949 210.47892 147.399018 
C 210.81085 147.067088 210.997353 146.616831 210.997353 146.147411 
C 210.997353 145.677991 210.81085 145.227733 210.47892 144.895803 
C 210.14699 144.563873 209.696732 144.37737 209.227312 144.37737 
C 208.757892 144.37737 208.307635 144.563873 207.975705 144.895803 
C 207.643774 145.227733 207.457272 145.677991 207.457272 146.147411 
C 207.457272 146.616831 207.643774 147.067088 207.975705 147.399018 
C 208.307635 147.730949 208.757892 147.917451 209.227312 147.917451 
z
" clip-path="url(#pcabd03850e)" style="fill: #d55e00; fill-opacity: 0.85; stroke: #d55e00; stroke-opacity: 0.85; stroke-width: 1.5"/>
    <path d="M 210.609911 151.894527 
C 211.025297 151.894527 211.423725 151.729493 211.717447 151.435771 
C 212.011169 151.142049 212.176204 150.743621 212.176204 150.328235 
C 212.176204 149.912849 212.011169 149.514421 211.717447 149.220699 
C 211.423725 148.926977 211.025297 148.761942 210.609911 148.761942 
C 210.194525 148.761942 209.796097 148.926977 209.502375 149.220699 
C 209.208653 149.514421 209.043618 149.912849 209.043618 150.328235 
C 209.043618 150.743621 209.208653 151.142049 209.502375 151.435771 
C 209.796097 151.729493 210.194525 151.894527 210.609911 151.894527 
z
" clip-path="url(#pcabd03850e)" style="fill: #d55e00; fill-opacity: 0.85; stroke: #d55e00; stroke-opacity: 0.85; stroke-width: 1.5"/>
    <path d="M 210.815937 159.046351 
C 211.520651 159.046351 212.196597 158.766365 212.694905 158.268057 
C 213.193213 157.769749 213.473199 157.093803 213.473199 156.389089 
C 213.473199 155.684375 213.193213 155.008429 212.694905 154.510121 
C 212.196597 154.011812 211.520651 153.731826 210.815937 153.731826 
C 210.111223 153.731826 209.435277 154.011812 208.936969 154.510121 
C 208.438661 155.008429 208.158675 155.684375 208.158675 156.389089 
C 208.158675 157.093803 208.438661 157.769749 208.936969 158.268057 
C 209.435277 158.766365 210.111223 159.046351 210.815937 159.046351 
z
" clip-path="url(#pcabd03850e)" style="fill: #d55e00; fill-opacity: 0.85; stroke: #d55e00; stroke-opacity: 0.85; stroke-width: 1.5"/>
    <path d="M 213.73687 161.285251 
C 214.024593 161.285251 214.300571 161.170937 214.504023 160.967486 
C 214.707474 160.764034 214.821788 160.488056 214.821788 160.200333 
C 214.821788 159.912609 214.707474 159.636631 214.504023 159.43318 
C 214.300571 159.229729 214.024593 159.115415 213.73687 159.115415 
C 213.449146 159.115415 213.173168 159.229729 212.969717 159.43318 
C 212.766266 159.636631 212.651952 159.912609 212.651952 160.200333 
C 212.651952 160.488056 212.766266 160.764034 212.969717 160.967486 
C 213.173168 161.170937 213.449146 161.285251 213.73687 161.285251 
z
" clip-path="url(#pcabd03850e)" style="fill: #d55e00; fill-opacity: 0.85; stroke: #d55e00; stroke-opacity: 0.85; stroke-width: 1.5"/>
    <path d="M 213.826754 169.929589 
C 214.394736 169.929589 214.939532 169.703927 215.341156 169.302303 
C 215.74278 168.900679 215.968441 168.355884 215.968441 167.787902 
C 215.968441 167.21992 215.74278 166.675125 215.341156 166.273501 
C 214.939532 165.871877 214.394736 165.646215 213.826754 165.646215 
C 213.258773 165.646215 212.713977 165.871877 212.312353 166.273501 
C 211.910729 166.675125 211.685068 167.21992 211.685068 167.787902 
C 211.685068 168.355884 211.910729 168.900679 212.312353 169.302303 
C 212.713977 169.703927 213.258773 169.929589 213.826754 169.929589 
z
" clip-path="url(#pcabd03850e)" style="fill: #d55e00; fill-opacity: 0.85; stroke: #d55e00; stroke-opacity: 0.85; stroke-width: 1.5"/>
    <path d="M 215.744466 170.066587 
C 216.100616 170.066587 216.442226 169.925087 216.694062 169.673252 
C 216.945898 169.421416 217.087398 169.079805 217.087398 168.723655 
C 217.087398 168.367506 216.945898 168.025895 216.694062 167.774059 
C 216.442226 167.522223 216.100616 167.380723 215.744466 167.380723 
C 215.388316 167.380723 215.046706 167.522223 214.79487 167.774059 
C 214.543034 168.025895 214.401534 168.367506 214.401534 168.723655 
C 214.401534 169.079805 214.543034 169.421416 214.79487 169.673252 
C 215.046706 169.925087 215.388316 170.066587 215.744466 170.066587 
z
" clip-path="url(#pcabd03850e)" style="fill: #d55e00; fill-opacity: 0.85; stroke: #d55e00; stroke-opacity: 0.85; stroke-width: 1.5"/>
    <path d="M 216.947379 177.874771 
C 217.450464 177.874771 217.933012 177.674893 218.288747 177.319158 
C 218.644481 176.963423 218.844359 176.480875 218.844359 175.97779 
C 218.844359 175.474705 218.644481 174.992158 218.288747 174.636423 
C 217.933012 174.280688 217.450464 174.08081 216.947379 174.08081 
C 216.444294 174.08081 215.961746 174.280688 215.606011 174.636423 
C 215.250276 174.992158 215.050399 175.474705 215.050399 175.97779 
C 215.050399 176.480875 215.250276 176.963423 215.606011 177.319158 
C 215.961746 177.674893 216.444294 177.874771 216.947379 177.874771 
z
" clip-path="url(#pcabd03850e)" style="fill: #d55e00; fill-opacity: 0.85; stroke: #d55e00; stroke-opacity: 0.85; stroke-width: 1.5"/>
    <path d="M 217.396501 183.913662 
C 217.761209 183.913662 218.111028 183.768762 218.368915 183.510875 
C 218.626802 183.252988 218.771702 182.903168 218.771702 182.538461 
C 218.771702 182.173753 218.626802 181.823934 218.368915 181.566047 
C 218.111028 181.30816 217.761209 181.16326 217.396501 181.16326 
C 217.031794 181.16326 216.681975 181.30816 216.424087 181.566047 
C 216.1662 181.823934 216.0213 182.173753 216.0213 182.538461 
C 216.0213 182.903168 216.1662 183.252988 216.424087 183.510875 
C 216.681975 183.768762 217.031794 183.913662 217.396501 183.913662 
z
" clip-path="url(#pcabd03850e)" style="fill: #d55e00; fill-opacity: 0.85; stroke: #d55e00; stroke-opacity: 0.85; stroke-width: 1.5"/>
    <path d="M 217.668144 195.308705 
C 217.997378 195.308705 218.313171 195.177899 218.545974 194.945096 
C 218.778778 194.712292 218.909584 194.396499 218.909584 194.067265 
C 218.909584 193.738032 218.778778 193.422238 218.545974 193.189435 
C 218.313171 192.956632 217.997378 192.825826 217.668144 192.825826 
C 217.33891 192.825826 217.023117 192.956632 216.790314 193.189435 
C 216.55751 193.422238 216.426704 193.738032 216.426704 194.067265 
C 216.426704 194.396499 216.55751 194.712292 216.790314 194.945096 
C 217.023117 195.177899 217.33891 195.308705 217.668144 195.308705 
z
" clip-path="url(#pcabd03850e)" style="fill: #d55e00; fill-opacity: 0.85; stroke: #d55e00; stroke-opacity: 0.85; stroke-width: 1.5"/>
    <path d="M 217.873134 201.549755 
C 218.299672 201.549755 218.708797 201.38029 219.010405 201.078682 
C 219.312013 200.777074 219.481478 200.367948 219.481478 199.94141 
C 219.481478 199.514872 219.312013 199.105747 219.010405 198.804139 
C 218.708797 198.502531 218.299672 198.333066 217.873134 198.333066 
C 217.446596 198.333066 217.03747 198.502531 216.735862 198.804139 
C 216.434255 199.105747 216.264789 199.514872 216.264789 199.94141 
C 216.264789 200.367948 216.434255 200.777074 216.735862 201.078682 
C 217.03747 201.38029 217.446596 201.549755 217.873134 201.549755 
z
" clip-path="url(#pcabd03850e)" style="fill: #d55e00; fill-opacity: 0.85; stroke: #d55e00; stroke-opacity: 0.85; stroke-width: 1.5"/>
    <path d="M 217.95147 217.366841 
C 218.424766 217.366841 218.878742 217.178799 219.213414 216.844127 
C 219.548085 216.509456 219.736128 216.05548 219.736128 215.582183 
C 219.736128 215.108886 219.548085 214.654911 219.213414 214.320239 
C 218.878742 213.985568 218.424766 213.797525 217.95147 213.797525 
C 217.478173 213.797525 217.024197 213.985568 216.689525 214.320239 
C 216.354854 214.654911 216.166811 215.108886 216.166811 215.582183 
C 216.166811 216.05548 216.354854 216.509456 216.689525 216.844127 
C 217.024197 217.178799 217.478173 217.366841 217.95147 217.366841 
z
" clip-path="url(#pcabd03850e)" style="fill: #d55e00; fill-opacity: 0.85; stroke: #d55e00; stroke-opacity: 0.85; stroke-width: 1.5"/>
    <path d="M 218.51802 219.826811 
C 218.769117 219.826811 219.009964 219.727049 219.187517 219.549496 
C 219.365069 219.371944 219.464831 219.131097 219.464831 218.88 
C 219.464831 218.628903 219.365069 218.388056 219.187517 218.210504 
C 219.009964 218.032951 218.769117 217.933189 218.51802 217.933189 
C 218.266923 217.933189 218.026076 218.032951 217.848524 218.210504 
C 217.670971 218.388056 217.571209 218.628903 217.571209 218.88 
C 217.571209 219.131097 217.670971 219.371944 217.848524 219.549496 
C 218.026076 219.727049 218.266923 219.826811 218.51802 219.826811 
z
" clip-path="url(#pcabd03850e)" style="fill: #d55e00; fill-opacity: 0.85; stroke: #d55e00; stroke-opacity: 0.85; stroke-width: 1.5"/>
   </g>
   <g id="patch_3">
    <path d="M 82.418837 57.349313 
L 140.608187 57.349313 
L 140.608187 11.653833 
L 82.418837 11.653833 
L 82.418837 57.349313 
z
" clip-path="url(#pcabd03850e)" style="fill: none; opacity: 0.9; stroke: #ff0000; stroke-width: 1.5; stroke-linejoin: miter"/>
   </g>
   <g id="patch_4">
    <path d="M 74.213125 228.96 
L 74.213125 7.2 
" style="fill: none; stroke: #262626; stroke-width: 2; stroke-linejoin: miter; stroke-linecap: square"/>
   </g>
   <g id="patch_5">
    <path d="M 79.213125 233.96 
L 225.151587 233.96 
" style="fill: none; stroke: #262626; stroke-width: 2; stroke-linejoin: miter; stroke-linecap: square"/>
   </g>
  </g>
  <g id="axes_2">
   <g id="patch_6">
    <path d="M 312.714663 228.96 
L 458.653125 228.96 
L 458.653125 7.2 
L 312.714663 7.2 
z
" style="fill: #ffffff"/>
   </g>
   <g id="matplotlib.axis_3">
    <g id="xtick_4">
     <g id="line2d_7">
      <path d="M 335.263934 228.96 
L 335.263934 7.2 
" clip-path="url(#pa5a6e8e236)" style="fill: none; stroke: #cccccc; stroke-opacity: 0.25; stroke-width: 1.5; stroke-linecap: round"/>
     </g>
     <g id="text_9">
      <!-- 30 -->
      <g style="fill: #262626" transform="translate(324.765809 250.097422) scale(0.165 -0.165)">
       <defs>
        <path id="DejaVuSans-33" d="M 2597 2516 
Q 3050 2419 3304 2112 
Q 3559 1806 3559 1356 
Q 3559 666 3084 287 
Q 2609 -91 1734 -91 
Q 1441 -91 1130 -33 
Q 819 25 488 141 
L 488 750 
Q 750 597 1062 519 
Q 1375 441 1716 441 
Q 2309 441 2620 675 
Q 2931 909 2931 1356 
Q 2931 1769 2642 2001 
Q 2353 2234 1838 2234 
L 1294 2234 
L 1294 2753 
L 1863 2753 
Q 2328 2753 2575 2939 
Q 2822 3125 2822 3475 
Q 2822 3834 2567 4026 
Q 2313 4219 1838 4219 
Q 1578 4219 1281 4162 
Q 984 4106 628 3988 
L 628 4550 
Q 988 4650 1302 4700 
Q 1616 4750 1894 4750 
Q 2613 4750 3031 4423 
Q 3450 4097 3450 3541 
Q 3450 3153 3228 2886 
Q 3006 2619 2597 2516 
z
" transform="scale(0.015625)"/>
       </defs>
       <use xlink:href="#DejaVuSans-33"/>
       <use xlink:href="#DejaVuSans-30" x="63.623047"/>
      </g>
     </g>
    </g>
    <g id="xtick_5">
     <g id="line2d_8">
      <path d="M 380.840796 228.96 
L 380.840796 7.2 
" clip-path="url(#pa5a6e8e236)" style="fill: none; stroke: #cccccc; stroke-opacity: 0.25; stroke-width: 1.5; stroke-linecap: round"/>
     </g>
     <g id="text_10">
      <!-- 35 -->
      <g style="fill: #262626" transform="translate(370.342671 250.097422) scale(0.165 -0.165)">
       <defs>
        <path id="DejaVuSans-35" d="M 691 4666 
L 3169 4666 
L 3169 4134 
L 1269 4134 
L 1269 2991 
Q 1406 3038 1543 3061 
Q 1681 3084 1819 3084 
Q 2600 3084 3056 2656 
Q 3513 2228 3513 1497 
Q 3513 744 3044 326 
Q 2575 -91 1722 -91 
Q 1428 -91 1123 -41 
Q 819 9 494 109 
L 494 744 
Q 775 591 1075 516 
Q 1375 441 1709 441 
Q 2250 441 2565 725 
Q 2881 1009 2881 1497 
Q 2881 1984 2565 2268 
Q 2250 2553 1709 2553 
Q 1456 2553 1204 2497 
Q 953 2441 691 2322 
L 691 4666 
z
" transform="scale(0.015625)"/>
       </defs>
       <use xlink:href="#DejaVuSans-33"/>
       <use xlink:href="#DejaVuSans-35" x="63.623047"/>
      </g>
     </g>
    </g>
    <g id="xtick_6">
     <g id="line2d_9">
      <path d="M 426.417659 228.96 
L 426.417659 7.2 
" clip-path="url(#pa5a6e8e236)" style="fill: none; stroke: #cccccc; stroke-opacity: 0.25; stroke-width: 1.5; stroke-linecap: round"/>
     </g>
     <g id="text_11">
      <!-- 40 -->
      <g style="fill: #262626" transform="translate(415.919534 250.097422) scale(0.165 -0.165)">
       <use xlink:href="#DejaVuSans-34"/>
       <use xlink:href="#DejaVuSans-30" x="63.623047"/>
      </g>
     </g>
    </g>
    <g id="text_12">
     <!-- Speed reward -->
     <g style="fill: #262626" transform="translate(323.440457 271.206094) scale(0.18 -0.18)">
      <use xlink:href="#DejaVuSans-53"/>
      <use xlink:href="#DejaVuSans-70" x="63.476562"/>
      <use xlink:href="#DejaVuSans-65" x="126.953125"/>
      <use xlink:href="#DejaVuSans-65" x="188.476562"/>
      <use xlink:href="#DejaVuSans-64" x="250"/>
      <use xlink:href="#DejaVuSans-20" x="313.476562"/>
      <use xlink:href="#DejaVuSans-72" x="345.263672"/>
      <use xlink:href="#DejaVuSans-65" x="384.126953"/>
      <use xlink:href="#DejaVuSans-77" x="445.650391"/>
      <use xlink:href="#DejaVuSans-61" x="527.4375"/>
      <use xlink:href="#DejaVuSans-72" x="588.716797"/>
      <use xlink:href="#DejaVuSans-64" x="628.080078"/>
     </g>
    </g>
   </g>
   <g id="matplotlib.axis_4">
    <g id="ytick_4">
     <g id="line2d_10">
      <path d="M 312.714663 227.141197 
L 458.653125 227.141197 
" clip-path="url(#pa5a6e8e236)" style="fill: none; stroke: #cccccc; stroke-opacity: 0.25; stroke-width: 1.5; stroke-linecap: round"/>
     </g>
     <g id="text_13">
      <!-- 125 -->
      <g style="fill: #262626" transform="translate(272.620288 233.409908) scale(0.165 -0.165)">
       <use xlink:href="#DejaVuSans-31"/>
       <use xlink:href="#DejaVuSans-32" x="63.623047"/>
       <use xlink:href="#DejaVuSans-35" x="127.246094"/>
      </g>
     </g>
    </g>
    <g id="ytick_5">
     <g id="line2d_11">
      <path d="M 312.714663 134.013739 
L 458.653125 134.013739 
" clip-path="url(#pa5a6e8e236)" style="fill: none; stroke: #cccccc; stroke-opacity: 0.25; stroke-width: 1.5; stroke-linecap: round"/>
     </g>
     <g id="text_14">
      <!-- 135 -->
      <g style="fill: #262626" transform="translate(272.620288 140.28245) scale(0.165 -0.165)">
       <use xlink:href="#DejaVuSans-31"/>
       <use xlink:href="#DejaVuSans-33" x="63.623047"/>
       <use xlink:href="#DejaVuSans-35" x="127.246094"/>
      </g>
     </g>
    </g>
    <g id="ytick_6">
     <g id="line2d_12">
      <path d="M 312.714663 40.886281 
L 458.653125 40.886281 
" clip-path="url(#pa5a6e8e236)" style="fill: none; stroke: #cccccc; stroke-opacity: 0.25; stroke-width: 1.5; stroke-linecap: round"/>
     </g>
     <g id="text_15">
      <!-- 145 -->
      <g style="fill: #262626" transform="translate(272.620288 47.154992) scale(0.165 -0.165)">
       <use xlink:href="#DejaVuSans-31"/>
       <use xlink:href="#DejaVuSans-34" x="63.623047"/>
       <use xlink:href="#DejaVuSans-35" x="127.246094"/>
      </g>
     </g>
    </g>
    <g id="text_16">
     <!-- Energy efficiency -->
     <g style="fill: #262626" transform="translate(264.876851 195.792188) rotate(-90) scale(0.18 -0.18)">
      <use xlink:href="#DejaVuSans-45"/>
      <use xlink:href="#DejaVuSans-6e" x="63.183594"/>
      <use xlink:href="#DejaVuSans-65" x="126.5625"/>
      <use xlink:href="#DejaVuSans-72" x="188.085938"/>
      <use xlink:href="#DejaVuSans-67" x="227.449219"/>
      <use xlink:href="#DejaVuSans-79" x="290.925781"/>
      <use xlink:href="#DejaVuSans-20" x="350.105469"/>
      <use xlink:href="#DejaVuSans-65" x="381.892578"/>
      <use xlink:href="#DejaVuSans-66" x="443.416016"/>
      <use xlink:href="#DejaVuSans-66" x="478.621094"/>
      <use xlink:href="#DejaVuSans-69" x="513.826172"/>
      <use xlink:href="#DejaVuSans-63" x="541.609375"/>
      <use xlink:href="#DejaVuSans-69" x="596.589844"/>
      <use xlink:href="#DejaVuSans-65" x="624.373047"/>
      <use xlink:href="#DejaVuSans-6e" x="685.896484"/>
      <use xlink:href="#DejaVuSans-63" x="749.275391"/>
      <use xlink:href="#DejaVuSans-79" x="804.255859"/>
     </g>
    </g>
   </g>
   <g id="PathCollection_2">
    <path d="M 417.933753 220.800981 
C 418.443203 220.800981 418.931856 220.598575 419.292092 220.238339 
C 419.652327 219.878103 419.854734 219.38945 419.854734 218.88 
C 419.854734 218.37055 419.652327 217.881897 419.292092 217.521661 
C 418.931856 217.161425 418.443203 216.959019 417.933753 216.959019 
C 417.424303 216.959019 416.93565 217.161425 416.575414 217.521661 
C 416.215178 217.881897 416.012771 218.37055 416.012771 218.88 
C 416.012771 219.38945 416.215178 219.878103 416.575414 220.238339 
C 416.93565 220.598575 417.424303 220.800981 417.933753 220.800981 
z
" clip-path="url(#pa5a6e8e236)" style="fill: #0173b2; fill-opacity: 0.85; stroke: #0173b2; stroke-opacity: 0.85; stroke-width: 1.5"/>
    <path d="M 406.971654 175.092606 
C 407.316467 175.092606 407.647205 174.955611 407.891025 174.71179 
C 408.134845 174.46797 408.271841 174.137233 408.271841 173.792419 
C 408.271841 173.447605 408.134845 173.116867 407.891025 172.873047 
C 407.647205 172.629227 407.316467 172.492231 406.971654 172.492231 
C 406.62684 172.492231 406.296102 172.629227 406.052282 172.873047 
C 405.808462 173.116867 405.671466 173.447605 405.671466 173.792419 
C 405.671466 174.137233 405.808462 174.46797 406.052282 174.71179 
C 406.296102 174.955611 406.62684 175.092606 406.971654 175.092606 
z
" clip-path="url(#pa5a6e8e236)" style="fill: #0173b2; fill-opacity: 0.85; stroke: #0173b2; stroke-opacity: 0.85; stroke-width: 1.5"/>
    <path d="M 378.555798 134.283107 
C 379.067894 134.283107 379.559085 134.079649 379.921191 133.717543 
C 380.283298 133.355436 380.486756 132.864245 380.486756 132.352149 
C 380.486756 131.840054 380.283298 131.348863 379.921191 130.986756 
C 379.559085 130.62465 379.067894 130.421192 378.555798 130.421192 
C 378.043703 130.421192 377.552512 130.62465 377.190405 130.986756 
C 376.828299 131.348863 376.624841 131.840054 376.624841 132.352149 
C 376.624841 132.864245 376.828299 133.355436 377.190405 133.717543 
C 377.552512 134.079649 378.043703 134.283107 378.555798 134.283107 
z
" clip-path="url(#pa5a6e8e236)" style="fill: #0173b2; fill-opacity: 0.85; stroke: #0173b2; stroke-opacity: 0.85; stroke-width: 1.5"/>
    <path d="M 370.454354 132.990028 
C 370.904242 132.990028 371.335764 132.811285 371.653883 132.493167 
C 371.972002 132.175048 372.150744 131.743525 372.150744 131.293637 
C 372.150744 130.84375 371.972002 130.412227 371.653883 130.094108 
C 371.335764 129.77599 370.904242 129.597247 370.454354 129.597247 
C 370.004466 129.597247 369.572944 129.77599 369.254825 130.094108 
C 368.936706 130.412227 368.757964 130.84375 368.757964 131.293637 
C 368.757964 131.743525 368.936706 132.175048 369.254825 132.493167 
C 369.572944 132.811285 370.004466 132.990028 370.454354 132.990028 
z
" clip-path="url(#pa5a6e8e236)" style="fill: #0173b2; fill-opacity: 0.85; stroke: #0173b2; stroke-opacity: 0.85; stroke-width: 1.5"/>
    <path d="M 366.025465 121.407099 
C 366.524049 121.407099 367.00228 121.209009 367.354833 120.856456 
C 367.707386 120.503904 367.905475 120.025672 367.905475 119.527088 
C 367.905475 119.028503 367.707386 118.550272 367.354833 118.197719 
C 367.00228 117.845167 366.524049 117.647077 366.025465 117.647077 
C 365.52688 117.647077 365.048649 117.845167 364.696096 118.197719 
C 364.343544 118.550272 364.145454 119.028503 364.145454 119.527088 
C 364.145454 120.025672 364.343544 120.503904 364.696096 120.856456 
C 365.048649 121.209009 365.52688 121.407099 366.025465 121.407099 
z
" clip-path="url(#pa5a6e8e236)" style="fill: #0173b2; fill-opacity: 0.85; stroke: #0173b2; stroke-opacity: 0.85; stroke-width: 1.5"/>
    <path d="M 360.895181 114.401034 
C 361.275835 114.401034 361.640949 114.249799 361.910112 113.980636 
C 362.179275 113.711474 362.33051 113.34636 362.33051 112.965706 
C 362.33051 112.585052 362.179275 112.219938 361.910112 111.950775 
C 361.640949 111.681613 361.275835 111.530377 360.895181 111.530377 
C 360.514528 111.530377 360.149414 111.681613 359.880251 111.950775 
C 359.611088 112.219938 359.459853 112.585052 359.459853 112.965706 
C 359.459853 113.34636 359.611088 113.711474 359.880251 113.980636 
C 360.149414 114.249799 360.514528 114.401034 360.895181 114.401034 
z
" clip-path="url(#pa5a6e8e236)" style="fill: #0173b2; fill-opacity: 0.85; stroke: #0173b2; stroke-opacity: 0.85; stroke-width: 1.5"/>
    <path d="M 358.533093 110.595944 
C 359.110567 110.595944 359.664467 110.366511 360.072802 109.958176 
C 360.481138 109.54984 360.71057 108.995941 360.71057 108.418467 
C 360.71057 107.840993 360.481138 107.287093 360.072802 106.878758 
C 359.664467 106.470422 359.110567 106.24099 358.533093 106.24099 
C 357.95562 106.24099 357.40172 106.470422 356.993384 106.878758 
C 356.585049 107.287093 356.355616 107.840993 356.355616 108.418467 
C 356.355616 108.995941 356.585049 109.54984 356.993384 109.958176 
C 357.40172 110.366511 357.95562 110.595944 358.533093 110.595944 
z
" clip-path="url(#pa5a6e8e236)" style="fill: #0173b2; fill-opacity: 0.85; stroke: #0173b2; stroke-opacity: 0.85; stroke-width: 1.5"/>
    <path d="M 350.100789 92.824174 
C 350.827078 92.824174 351.523718 92.535617 352.037281 92.022053 
C 352.550845 91.50849 352.839402 90.81185 352.839402 90.085562 
C 352.839402 89.359273 352.550845 88.662634 352.037281 88.14907 
C 351.523718 87.635506 350.827078 87.346949 350.100789 87.346949 
C 349.374501 87.346949 348.677861 87.635506 348.164298 88.14907 
C 347.650734 88.662634 347.362177 89.359273 347.362177 90.085562 
C 347.362177 90.81185 347.650734 91.50849 348.164298 92.022053 
C 348.677861 92.535617 349.374501 92.824174 350.100789 92.824174 
z
" clip-path="url(#pa5a6e8e236)" style="fill: #0173b2; fill-opacity: 0.85; stroke: #0173b2; stroke-opacity: 0.85; stroke-width: 1.5"/>
    <path d="M 402.879917 157.232957 
C 403.451464 157.232957 403.999678 157.005879 404.403822 156.601735 
C 404.807967 156.19759 405.035044 155.649376 405.035044 155.07783 
C 405.035044 154.506283 404.807967 153.958069 404.403822 153.553925 
C 403.999678 153.14978 403.451464 152.922703 402.879917 152.922703 
C 402.308371 152.922703 401.760157 153.14978 401.356012 153.553925 
C 400.951868 153.958069 400.72479 154.506283 400.72479 155.07783 
C 400.72479 155.649376 400.951868 156.19759 401.356012 156.601735 
C 401.760157 157.005879 402.308371 157.232957 402.879917 157.232957 
z
" clip-path="url(#pa5a6e8e236)" style="fill: #0173b2; fill-opacity: 0.85; stroke: #0173b2; stroke-opacity: 0.85; stroke-width: 1.5"/>
    <path d="M 319.34823 18.389671 
C 319.642518 18.389671 319.924793 18.272749 320.132886 18.064656 
C 320.340979 17.856563 320.457901 17.574288 320.457901 17.28 
C 320.457901 16.985712 320.340979 16.703437 320.132886 16.495344 
C 319.924793 16.287251 319.642518 16.170329 319.34823 16.170329 
C 319.053942 16.170329 318.771667 16.287251 318.563574 16.495344 
C 318.355481 16.703437 318.238559 16.985712 318.238559 17.28 
C 318.238559 17.574288 318.355481 17.856563 318.563574 18.064656 
C 318.771667 18.272749 319.053942 18.389671 319.34823 18.389671 
z
" clip-path="url(#pa5a6e8e236)" style="fill: #d55e00; fill-opacity: 0.85; stroke: #d55e00; stroke-opacity: 0.85; stroke-width: 1.5"/>
    <path d="M 337.728653 19.301339 
C 338.11454 19.301339 338.484675 19.148024 338.757539 18.87516 
C 339.030403 18.602296 339.183718 18.232161 339.183718 17.846273 
C 339.183718 17.460386 339.030403 17.090251 338.757539 16.817387 
C 338.484675 16.544523 338.11454 16.391208 337.728653 16.391208 
C 337.342765 16.391208 336.97263 16.544523 336.699766 16.817387 
C 336.426902 17.090251 336.273587 17.460386 336.273587 17.846273 
C 336.273587 18.232161 336.426902 18.602296 336.699766 18.87516 
C 336.97263 19.148024 337.342765 19.301339 337.728653 19.301339 
z
" clip-path="url(#pa5a6e8e236)" style="fill: #d55e00; fill-opacity: 0.85; stroke: #d55e00; stroke-opacity: 0.85; stroke-width: 1.5"/>
    <path d="M 358.337394 19.447014 
C 358.675201 19.447014 358.999217 19.312802 359.238083 19.073937 
C 359.476948 18.835071 359.61116 18.511055 359.61116 18.173248 
C 359.61116 17.835442 359.476948 17.511425 359.238083 17.27256 
C 358.999217 17.033695 358.675201 16.899483 358.337394 16.899483 
C 357.999588 16.899483 357.675571 17.033695 357.436706 17.27256 
C 357.19784 17.511425 357.063628 17.835442 357.063628 18.173248 
C 357.063628 18.511055 357.19784 18.835071 357.436706 19.073937 
C 357.675571 19.312802 357.999588 19.447014 358.337394 19.447014 
z
" clip-path="url(#pa5a6e8e236)" style="fill: #d55e00; fill-opacity: 0.85; stroke: #d55e00; stroke-opacity: 0.85; stroke-width: 1.5"/>
    <path d="M 362.445578 23.063078 
C 362.749245 23.063078 363.040516 22.94243 363.255241 22.727705 
C 363.469966 22.51298 363.590614 22.221709 363.590614 21.918042 
C 363.590614 21.614375 363.469966 21.323104 363.255241 21.108379 
C 363.040516 20.893654 362.749245 20.773006 362.445578 20.773006 
C 362.141911 20.773006 361.85064 20.893654 361.635915 21.108379 
C 361.42119 21.323104 361.300542 21.614375 361.300542 21.918042 
C 361.300542 22.221709 361.42119 22.51298 361.635915 22.727705 
C 361.85064 22.94243 362.141911 23.063078 362.445578 23.063078 
z
" clip-path="url(#pa5a6e8e236)" style="fill: #d55e00; fill-opacity: 0.85; stroke: #d55e00; stroke-opacity: 0.85; stroke-width: 1.5"/>
    <path d="M 361.157817 22.292382 
C 361.421705 22.292382 361.674819 22.187539 361.861416 22.000942 
C 362.048013 21.814346 362.152856 21.561231 362.152856 21.297344 
C 362.152856 21.033456 362.048013 20.780342 361.861416 20.593745 
C 361.674819 20.407148 361.421705 20.302305 361.157817 20.302305 
C 360.89393 20.302305 360.640815 20.407148 360.454219 20.593745 
C 360.267622 20.780342 360.162778 21.033456 360.162778 21.297344 
C 360.162778 21.561231 360.267622 21.814346 360.454219 22.000942 
C 360.640815 22.187539 360.89393 22.292382 361.157817 22.292382 
z
" clip-path="url(#pa5a6e8e236)" style="fill: #d55e00; fill-opacity: 0.85; stroke: #d55e00; stroke-opacity: 0.85; stroke-width: 1.5"/>
    <path d="M 363.423829 23.096641 
C 363.726976 23.096641 364.017747 22.976199 364.232104 22.761842 
C 364.446462 22.547485 364.566903 22.256714 364.566903 21.953567 
C 364.566903 21.65042 364.446462 21.359649 364.232104 21.145292 
C 364.017747 20.930935 363.726976 20.810494 363.423829 20.810494 
C 363.120683 20.810494 362.829911 20.930935 362.615554 21.145292 
C 362.401197 21.359649 362.280756 21.65042 362.280756 21.953567 
C 362.280756 22.256714 362.401197 22.547485 362.615554 22.761842 
C 362.829911 22.976199 363.120683 23.096641 363.423829 23.096641 
z
" clip-path="url(#pa5a6e8e236)" style="fill: #d55e00; fill-opacity: 0.85; stroke: #d55e00; stroke-opacity: 0.85; stroke-width: 1.5"/>
    <path d="M 369.41925 28.705838 
C 369.867571 28.705838 370.297591 28.527718 370.614602 28.210707 
C 370.931613 27.893696 371.109733 27.463676 371.109733 27.015355 
C 371.109733 26.567033 370.931613 26.137014 370.614602 25.820002 
C 370.297591 25.502991 369.867571 25.324871 369.41925 25.324871 
C 368.970928 25.324871 368.540908 25.502991 368.223897 25.820002 
C 367.906886 26.137014 367.728766 26.567033 367.728766 27.015355 
C 367.728766 27.463676 367.906886 27.893696 368.223897 28.210707 
C 368.540908 28.527718 368.970928 28.705838 369.41925 28.705838 
z
" clip-path="url(#pa5a6e8e236)" style="fill: #d55e00; fill-opacity: 0.85; stroke: #d55e00; stroke-opacity: 0.85; stroke-width: 1.5"/>
    <path d="M 370.01424 29.074786 
C 370.370095 29.074786 370.711423 28.933404 370.96305 28.681776 
C 371.214677 28.430149 371.35606 28.088821 371.35606 27.732966 
C 371.35606 27.377111 371.214677 27.035783 370.96305 26.784156 
C 370.711423 26.532528 370.370095 26.391146 370.01424 26.391146 
C 369.658385 26.391146 369.317057 26.532528 369.06543 26.784156 
C 368.813802 27.035783 368.672419 27.377111 368.672419 27.732966 
C 368.672419 28.088821 368.813802 28.430149 369.06543 28.681776 
C 369.317057 28.933404 369.658385 29.074786 370.01424 29.074786 
z
" clip-path="url(#pa5a6e8e236)" style="fill: #d55e00; fill-opacity: 0.85; stroke: #d55e00; stroke-opacity: 0.85; stroke-width: 1.5"/>
    <path d="M 373.159437 42.289833 
C 373.584348 42.289833 373.991912 42.121014 374.292369 41.820556 
C 374.592827 41.520099 374.761645 41.112535 374.761645 40.687624 
C 374.761645 40.262713 374.592827 39.855149 374.292369 39.554691 
C 373.991912 39.254234 373.584348 39.085415 373.159437 39.085415 
C 372.734526 39.085415 372.326962 39.254234 372.026504 39.554691 
C 371.726047 39.855149 371.557228 40.262713 371.557228 40.687624 
C 371.557228 41.112535 371.726047 41.520099 372.026504 41.820556 
C 372.326962 42.121014 372.734526 42.289833 373.159437 42.289833 
z
" clip-path="url(#pa5a6e8e236)" style="fill: #d55e00; fill-opacity: 0.85; stroke: #d55e00; stroke-opacity: 0.85; stroke-width: 1.5"/>
    <path d="M 376.270383 47.69878 
C 376.520623 47.69878 376.760646 47.599359 376.937592 47.422413 
C 377.114538 47.245467 377.213959 47.005443 377.213959 46.755204 
C 377.213959 46.504965 377.114538 46.264941 376.937592 46.087995 
C 376.760646 45.911049 376.520623 45.811628 376.270383 45.811628 
C 376.020144 45.811628 375.78012 45.911049 375.603174 46.087995 
C 375.426228 46.264941 375.326807 46.504965 375.326807 46.755204 
C 375.326807 47.005443 375.426228 47.245467 375.603174 47.422413 
C 375.78012 47.599359 376.020144 47.69878 376.270383 47.69878 
z
" clip-path="url(#pa5a6e8e236)" style="fill: #d55e00; fill-opacity: 0.85; stroke: #d55e00; stroke-opacity: 0.85; stroke-width: 1.5"/>
    <path d="M 383.260189 52.728601 
C 383.680732 52.728601 384.084107 52.561518 384.381475 52.264149 
C 384.678843 51.966781 384.845927 51.563406 384.845927 51.142864 
C 384.845927 50.722321 384.678843 50.318946 384.381475 50.021578 
C 384.084107 49.72421 383.680732 49.557126 383.260189 49.557126 
C 382.839647 49.557126 382.436272 49.72421 382.138904 50.021578 
C 381.841535 50.318946 381.674452 50.722321 381.674452 51.142864 
C 381.674452 51.563406 381.841535 51.966781 382.138904 52.264149 
C 382.436272 52.561518 382.839647 52.728601 383.260189 52.728601 
z
" clip-path="url(#pa5a6e8e236)" style="fill: #d55e00; fill-opacity: 0.85; stroke: #d55e00; stroke-opacity: 0.85; stroke-width: 1.5"/>
    <path d="M 385.452727 59.523764 
C 385.902031 59.523764 386.332992 59.345254 386.650697 59.027549 
C 386.968403 58.709843 387.146913 58.278882 387.146913 57.829579 
C 387.146913 57.380276 386.968403 56.949314 386.650697 56.631609 
C 386.332992 56.313904 385.902031 56.135394 385.452727 56.135394 
C 385.003424 56.135394 384.572463 56.313904 384.254758 56.631609 
C 383.937052 56.949314 383.758542 57.380276 383.758542 57.829579 
C 383.758542 58.278882 383.937052 58.709843 384.254758 59.027549 
C 384.572463 59.345254 385.003424 59.523764 385.452727 59.523764 
z
" clip-path="url(#pa5a6e8e236)" style="fill: #d55e00; fill-opacity: 0.85; stroke: #d55e00; stroke-opacity: 0.85; stroke-width: 1.5"/>
    <path d="M 392.301914 72.496025 
C 392.79131 72.496025 393.260728 72.301586 393.606783 71.955531 
C 393.952838 71.609475 394.147278 71.140058 394.147278 70.650662 
C 394.147278 70.161265 393.952838 69.691848 393.606783 69.345792 
C 393.260728 68.999737 392.79131 68.805298 392.301914 68.805298 
C 391.812518 68.805298 391.3431 68.999737 390.997045 69.345792 
C 390.650989 69.691848 390.45655 70.161265 390.45655 70.650662 
C 390.45655 71.140058 390.650989 71.609475 390.997045 71.955531 
C 391.3431 72.301586 391.812518 72.496025 392.301914 72.496025 
z
" clip-path="url(#pa5a6e8e236)" style="fill: #d55e00; fill-opacity: 0.85; stroke: #d55e00; stroke-opacity: 0.85; stroke-width: 1.5"/>
    <path d="M 397.195015 81.79329 
C 397.566645 81.79329 397.923105 81.64564 398.185887 81.382858 
C 398.44867 81.120075 398.59632 80.763615 398.59632 80.391985 
C 398.59632 80.020354 398.44867 79.663894 398.185887 79.401112 
C 397.923105 79.138329 397.566645 78.990679 397.195015 78.990679 
C 396.823384 78.990679 396.466924 79.138329 396.204142 79.401112 
C 395.941359 79.663894 395.793709 80.020354 395.793709 80.391985 
C 395.793709 80.763615 395.941359 81.120075 396.204142 81.382858 
C 396.466924 81.64564 396.823384 81.79329 397.195015 81.79329 
z
" clip-path="url(#pa5a6e8e236)" style="fill: #d55e00; fill-opacity: 0.85; stroke: #d55e00; stroke-opacity: 0.85; stroke-width: 1.5"/>
    <path d="M 401.915088 90.613466 
C 402.340484 90.613466 402.748513 90.444455 403.049314 90.143655 
C 403.350114 89.842855 403.519125 89.434825 403.519125 89.009429 
C 403.519125 88.584033 403.350114 88.176004 403.049314 87.875203 
C 402.748513 87.574403 402.340484 87.405392 401.915088 87.405392 
C 401.489692 87.405392 401.081662 87.574403 400.780862 87.875203 
C 400.480062 88.176004 400.311051 88.584033 400.311051 89.009429 
C 400.311051 89.434825 400.480062 89.842855 400.780862 90.143655 
C 401.081662 90.444455 401.489692 90.613466 401.915088 90.613466 
z
" clip-path="url(#pa5a6e8e236)" style="fill: #d55e00; fill-opacity: 0.85; stroke: #d55e00; stroke-opacity: 0.85; stroke-width: 1.5"/>
    <path d="M 402.422 103.516974 
C 402.897557 103.516974 403.3537 103.328033 403.68997 102.991764 
C 404.026239 102.655494 404.21518 102.199351 404.21518 101.723794 
C 404.21518 101.248237 404.026239 100.792094 403.68997 100.455824 
C 403.3537 100.119555 402.897557 99.930614 402.422 99.930614 
C 401.946443 99.930614 401.4903 100.119555 401.15403 100.455824 
C 400.81776 100.792094 400.62882 101.248237 400.62882 101.723794 
C 400.62882 102.199351 400.81776 102.655494 401.15403 102.991764 
C 401.4903 103.328033 401.946443 103.516974 402.422 103.516974 
z
" clip-path="url(#pa5a6e8e236)" style="fill: #d55e00; fill-opacity: 0.85; stroke: #d55e00; stroke-opacity: 0.85; stroke-width: 1.5"/>
    <path d="M 402.998178 112.966674 
C 403.452585 112.966674 403.888442 112.786136 404.209756 112.464822 
C 404.53107 112.143508 404.711608 111.707651 404.711608 111.253244 
C 404.711608 110.798837 404.53107 110.362981 404.209756 110.041666 
C 403.888442 109.720352 403.452585 109.539815 402.998178 109.539815 
C 402.543771 109.539815 402.107915 109.720352 401.786601 110.041666 
C 401.465286 110.362981 401.284749 110.798837 401.284749 111.253244 
C 401.284749 111.707651 401.465286 112.143508 401.786601 112.464822 
C 402.107915 112.786136 402.543771 112.966674 402.998178 112.966674 
z
" clip-path="url(#pa5a6e8e236)" style="fill: #d55e00; fill-opacity: 0.85; stroke: #d55e00; stroke-opacity: 0.85; stroke-width: 1.5"/>
    <path d="M 411.754213 124.868395 
C 412.292366 124.868395 412.808551 124.654585 413.189083 124.274053 
C 413.569615 123.893521 413.783425 123.377337 413.783425 122.839183 
C 413.783425 122.30103 413.569615 121.784845 413.189083 121.404313 
C 412.808551 121.023781 412.292366 120.809971 411.754213 120.809971 
C 411.216059 120.809971 410.699875 121.023781 410.319343 121.404313 
C 409.938811 121.784845 409.725001 122.30103 409.725001 122.839183 
C 409.725001 123.377337 409.938811 123.893521 410.319343 124.274053 
C 410.699875 124.654585 411.216059 124.868395 411.754213 124.868395 
z
" clip-path="url(#pa5a6e8e236)" style="fill: #d55e00; fill-opacity: 0.85; stroke: #d55e00; stroke-opacity: 0.85; stroke-width: 1.5"/>
    <path d="M 435.347729 144.693227 
C 435.728697 144.693227 436.094113 144.541867 436.363498 144.272482 
C 436.632883 144.003097 436.784243 143.637681 436.784243 143.256713 
C 436.784243 142.875745 436.632883 142.510329 436.363498 142.240944 
C 436.094113 141.971559 435.728697 141.820199 435.347729 141.820199 
C 434.966761 141.820199 434.601345 141.971559 434.33196 142.240944 
C 434.062575 142.510329 433.911215 142.875745 433.911215 143.256713 
C 433.911215 143.637681 434.062575 144.003097 434.33196 144.272482 
C 434.601345 144.541867 434.966761 144.693227 435.347729 144.693227 
z
" clip-path="url(#pa5a6e8e236)" style="fill: #d55e00; fill-opacity: 0.85; stroke: #d55e00; stroke-opacity: 0.85; stroke-width: 1.5"/>
    <path d="M 438.291386 158.571852 
C 438.683515 158.571852 439.059637 158.416058 439.336914 158.13878 
C 439.614192 157.861503 439.769986 157.485381 439.769986 157.093251 
C 439.769986 156.701122 439.614192 156.325 439.336914 156.047723 
C 439.059637 155.770445 438.683515 155.61465 438.291386 155.61465 
C 437.899256 155.61465 437.523134 155.770445 437.245857 156.047723 
C 436.968579 156.325 436.812785 156.701122 436.812785 157.093251 
C 436.812785 157.485381 436.968579 157.861503 437.245857 158.13878 
C 437.523134 158.416058 437.899256 158.571852 438.291386 158.571852 
z
" clip-path="url(#pa5a6e8e236)" style="fill: #d55e00; fill-opacity: 0.85; stroke: #d55e00; stroke-opacity: 0.85; stroke-width: 1.5"/>
    <path d="M 452.019559 166.071139 
C 452.269058 166.071139 452.508371 165.972012 452.684794 165.79559 
C 452.861216 165.619167 452.960343 165.379854 452.960343 165.130354 
C 452.960343 164.880855 452.861216 164.641542 452.684794 164.465119 
C 452.508371 164.288697 452.269058 164.18957 452.019559 164.18957 
C 451.77006 164.18957 451.530746 164.288697 451.354323 164.465119 
C 451.177901 164.641542 451.078774 164.880855 451.078774 165.130354 
C 451.078774 165.379854 451.177901 165.619167 451.354323 165.79559 
C 451.530746 165.972012 451.77006 166.071139 452.019559 166.071139 
z
" clip-path="url(#pa5a6e8e236)" style="fill: #d55e00; fill-opacity: 0.85; stroke: #d55e00; stroke-opacity: 0.85; stroke-width: 1.5"/>
    <path d="M 423.164563 131.63099 
C 423.553669 131.63099 423.92689 131.476397 424.20203 131.201257 
C 424.477169 130.926118 424.631762 130.552897 424.631762 130.163791 
C 424.631762 129.774685 424.477169 129.401463 424.20203 129.126324 
C 423.92689 128.851185 423.553669 128.696591 423.164563 128.696591 
C 422.775457 128.696591 422.402236 128.851185 422.127096 129.126324 
C 421.851957 129.401463 421.697363 129.774685 421.697363 130.163791 
C 421.697363 130.552897 421.851957 130.926118 422.127096 131.201257 
C 422.402236 131.476397 422.775457 131.63099 423.164563 131.63099 
z
" clip-path="url(#pa5a6e8e236)" style="fill: #d55e00; fill-opacity: 0.85; stroke: #d55e00; stroke-opacity: 0.85; stroke-width: 1.5"/>
    <path d="M 421.970757 130.118861 
C 422.211034 130.118861 422.441503 130.023397 422.611404 129.853496 
C 422.781305 129.683594 422.876769 129.453126 422.876769 129.212849 
C 422.876769 128.972572 422.781305 128.742104 422.611404 128.572203 
C 422.441503 128.402301 422.211034 128.306838 421.970757 128.306838 
C 421.73048 128.306838 421.500012 128.402301 421.330111 128.572203 
C 421.160209 128.742104 421.064746 128.972572 421.064746 129.212849 
C 421.064746 129.453126 421.160209 129.683594 421.330111 129.853496 
C 421.500012 130.023397 421.73048 130.118861 421.970757 130.118861 
z
" clip-path="url(#pa5a6e8e236)" style="fill: #d55e00; fill-opacity: 0.85; stroke: #d55e00; stroke-opacity: 0.85; stroke-width: 1.5"/>
    <path d="M 434.068523 131.93568 
C 434.430275 131.93568 434.77726 131.791954 435.033058 131.536156 
C 435.288855 131.280359 435.432581 130.933374 435.432581 130.571621 
C 435.432581 130.209869 435.288855 129.862884 435.033058 129.607086 
C 434.77726 129.351288 434.430275 129.207563 434.068523 129.207563 
C 433.70677 129.207563 433.359785 129.351288 433.103988 129.607086 
C 432.84819 129.862884 432.704464 130.209869 432.704464 130.571621 
C 432.704464 130.933374 432.84819 131.280359 433.103988 131.536156 
C 433.359785 131.791954 433.70677 131.93568 434.068523 131.93568 
z
" clip-path="url(#pa5a6e8e236)" style="fill: #d55e00; fill-opacity: 0.85; stroke: #d55e00; stroke-opacity: 0.85; stroke-width: 1.5"/>
   </g>
   <g id="patch_7">
    <path d="M 307.714663 228.96 
L 307.714663 7.2 
" style="fill: none; stroke: #262626; stroke-width: 2; stroke-linejoin: miter; stroke-linecap: square"/>
   </g>
   <g id="patch_8">
    <path d="M 312.714663 233.96 
L 458.653125 233.96 
" style="fill: none; stroke: #262626; stroke-width: 2; stroke-linejoin: miter; stroke-linecap: square"/>
   </g>
  </g>
 </g>
 <defs>
  <clipPath id="pcabd03850e">
   <rect x="79.213125" y="7.2" width="145.938462" height="221.76"/>
  </clipPath>
  <clipPath id="pa5a6e8e236">
   <rect x="312.714663" y="7.2" width="145.938462" height="221.76"/>
  </clipPath>
 </defs>
</svg>
